<svg width="72" height="51" fill="none" xmlns="http://www.w3.org/2000/svg"><path d="M21.956 50.84c-4.014 0-7.607-.98-10.78-2.94-3.174-2.007-5.67-4.9-7.49-8.68-1.82-3.78-2.73-8.353-2.73-13.72 0-5.367.91-9.94 2.73-13.72 1.82-3.78 4.316-6.65 7.49-8.61C14.349 1.163 17.942.16 21.956.16c4.06 0 7.653 1.003 10.78 3.01 3.173 1.96 5.67 4.83 7.49 8.61 1.82 3.78 2.73 8.353 2.73 13.72 0 5.367-.91 9.94-2.73 13.72-1.82 3.78-4.317 6.673-7.49 8.68-3.127 1.96-6.72 2.94-10.78 2.94Zm0-9.59c1.913 0 3.57-.537 4.97-1.61 1.446-1.073 2.566-2.777 3.36-5.11.84-2.333 1.26-5.343 1.26-9.03 0-3.687-.42-6.697-1.26-9.03-.794-2.333-1.914-4.037-3.36-5.11-1.4-1.073-3.057-1.61-4.97-1.61-1.867 0-3.524.537-4.97 1.61-1.4 1.073-2.52 2.777-3.36 5.11-.794 2.333-1.19 5.343-1.19 9.03 0 3.687.396 6.697 1.19 9.03.84 2.333 1.96 4.037 3.36 5.11 1.446 1.073 3.103 1.61 4.97 1.61ZM60.652 50V5.2l4.9 4.9h-14.7V1h21.14v49h-11.34Z" fill="#fff" fill-opacity=".1"/><path d="m11.176 47.9-.268.423.005.002.263-.425Zm-7.49-8.68-.45.217.45-.217Zm0-27.44.45.217-.45-.217Zm7.49-8.61.262.425.005-.002-.267-.423Zm21.56 0-.27.42.007.005.263-.425Zm7.49 8.61-.45.217.45-.217Zm0 27.44-.45-.217.45.217Zm-7.49 8.68.265.424.002-.001-.267-.423Zm-5.81-8.26-.298-.402-.006.005.304.397Zm3.36-5.11-.47-.17-.004.009.474.161Zm0-18.06-.474.161.003.008.47-.169Zm-3.36-5.11-.304.397.006.005.298-.402Zm-9.94 0-.298-.402-.006.005.304.397Zm-3.36 5.11-.47-.17-.004.009.474.161Zm0 18.06-.474.161.003.008.47-.169Zm3.36 5.11-.305.397.007.005.298-.402Zm4.97 10.7c-.946 0-1.867-.056-2.762-.166l-.123.992c.938.116 1.9.174 2.885.174v-1Zm-8.075-1.592a18.83 18.83 0 0 1-2.443-1.273l-.525.85c.83.512 1.687.96 2.572 1.341l.396-.918Zm-2.438-1.27a18.353 18.353 0 0 1-2.265-1.69l-.657.754c.75.654 1.545 1.248 2.388 1.78l.534-.845ZM5.516 41.49a23.983 23.983 0 0 1-1.38-2.487l-.9.434c.439.913.918 1.777 1.437 2.59l.843-.537Zm-1.38-2.487a23.861 23.861 0 0 1-1.262-3.212l-.954.3c.368 1.174.807 2.29 1.315 3.346l.901-.434Zm-2.542-10.02a42.472 42.472 0 0 1-.138-3.483h-1c0 1.228.047 2.416.141 3.564l.997-.082ZM1.456 25.5c0-1.202.046-2.363.138-3.482l-.997-.082A43.472 43.472 0 0 0 .456 25.5h1Zm1.418-10.291c.355-1.13.776-2.201 1.262-3.212l-.9-.434A24.853 24.853 0 0 0 1.92 14.91l.954.3Zm1.262-3.212c.422-.877.88-1.702 1.375-2.476l-.843-.538c-.517.81-.994 1.67-1.433 2.58l.901.434Zm5.035-6.74a17.796 17.796 0 0 1 2.268-1.662l-.526-.85a18.8 18.8 0 0 0-2.395 1.754l.653.757Zm2.272-1.664a18.68 18.68 0 0 1 2.435-1.3l-.404-.915c-.884.39-1.739.847-2.565 1.37l.534.845ZM19.189.83C20.086.717 21.01.66 21.956.66v-1c-.988 0-1.952.06-2.893.179l.126.992ZM21.956.66c.95 0 1.873.056 2.768.168l.125-.992a23.31 23.31 0 0 0-2.893-.176v1Zm8.082 1.622c.839.372 1.648.808 2.428 1.309l.54-.842a18.99 18.99 0 0 0-2.563-1.381l-.405.914Zm2.435 1.313c.8.495 1.556 1.048 2.268 1.661l.653-.757a18.791 18.791 0 0 0-2.395-1.754l-.526.85Zm5.928 5.926c.494.774.952 1.6 1.374 2.476l.901-.434c-.438-.91-.916-1.77-1.433-2.58l-.843.538Zm1.374 2.476a23.87 23.87 0 0 1 1.263 3.212l.954-.3a24.848 24.848 0 0 0-1.316-3.346l-.9.434Zm2.543 10.02c.092 1.12.138 2.28.138 3.483h1a43.47 43.47 0 0 0-.142-3.564l-.996.082Zm.138 3.483c0 1.202-.046 2.363-.139 3.482l.997.082a43.47 43.47 0 0 0 .142-3.564h-1Zm-1.418 10.291a23.87 23.87 0 0 1-1.263 3.212l.901.434a24.853 24.853 0 0 0 1.316-3.346l-.954-.3Zm-1.263 3.212c-.423.88-.883 1.708-1.38 2.487l.844.538c.519-.814.998-1.678 1.437-2.591l-.9-.434Zm-5.042 6.786c-.71.62-1.465 1.183-2.264 1.688l.534.846a19.346 19.346 0 0 0 2.388-1.781l-.658-.753Zm-2.263 1.687a18.13 18.13 0 0 1-2.436 1.282l.397.918a19.132 19.132 0 0 0 2.57-1.352l-.53-.848Zm-7.75 2.7a22.85 22.85 0 0 1-2.764.164v1c.987 0 1.949-.057 2.885-.17l-.12-.994Zm-2.764-9.426c-.43 0-.848-.03-1.252-.09l-.146.99c.454.067.92.1 1.398.1v-1Zm-3.614-.849a7.797 7.797 0 0 1-1.058-.663l-.596.803c.383.285.78.534 1.193.748l.46-.888Zm-1.052-.658a7.154 7.154 0 0 1-1.05-.995l-.755.655c.373.43.771.808 1.197 1.134l.608-.794Zm-2.623-3.491a16.499 16.499 0 0 1-.57-1.391l-.942.338c.188.521.39 1.013.606 1.476l.906-.423Zm-.568-1.383a17.927 17.927 0 0 1-.575-2.147l-.98.202c.168.81.37 1.566.608 2.267l.947-.322Zm-1.109-6.608a45.05 45.05 0 0 1-.054-2.261h-1c0 .801.018 1.572.056 2.311l.998-.05Zm-.054-2.261c0-.786.018-1.54.054-2.261l-.998-.05c-.038.74-.056 1.51-.056 2.311h1Zm.588-6.722c.16-.775.352-1.49.575-2.147l-.947-.322c-.238.7-.44 1.456-.607 2.267l.979.202Zm.572-2.139c.178-.494.368-.958.57-1.39l-.905-.424a17.5 17.5 0 0 0-.606 1.476l.941.338Zm2.145-3.887a7.154 7.154 0 0 1 1.049-.995l-.608-.794a8.153 8.153 0 0 0-1.197 1.134l.756.655Zm1.043-.99a7.806 7.806 0 0 1 1.058-.663l-.46-.888c-.414.214-.811.463-1.194.747l.596.803Zm3.42-1.422c.404-.06.821-.09 1.252-.09v-1c-.478 0-.944.033-1.398.1l.146.99Zm1.252-.09c.434 0 .853.03 1.255.087l.142-.99a9.857 9.857 0 0 0-1.397-.097v1Zm3.618.837c.364.19.713.414 1.048.67l.608-.794a8.21 8.21 0 0 0-1.192-.762l-.464.886Zm1.054.675c.376.278.73.605 1.063.98l.748-.663a7.97 7.97 0 0 0-1.215-1.12l-.596.803Zm2.634 3.471c.198.435.381.9.55 1.398l.947-.322a16.122 16.122 0 0 0-.587-1.49l-.91.414Zm.553 1.406c.236.654.438 1.367.607 2.14l.977-.215a18.114 18.114 0 0 0-.643-2.263l-.94.338Zm1.173 6.598c.038.722.058 1.477.058 2.263h1c0-.803-.02-1.575-.06-2.316l-.998.053Zm.058 2.263c0 .786-.02 1.54-.058 2.263l.998.053c.04-.741.06-1.513.06-2.316h-1Zm-.624 6.722a17.107 17.107 0 0 1-.607 2.139l.941.338c.252-.7.466-1.454.643-2.264l-.977-.213Zm-.61 2.147c-.169.497-.352.963-.55 1.398l.91.414c.213-.467.408-.964.587-1.49l-.947-.322Zm-2.121 3.889a6.963 6.963 0 0 1-1.063.98l.596.803c.434-.322.84-.696 1.215-1.12l-.748-.663Zm-1.07.985c-.334.256-.683.48-1.047.67l.464.886a8.21 8.21 0 0 0 1.192-.762l-.608-.794Zm-3.41 1.42a8.861 8.861 0 0 1-1.255.087v1c.479 0 .945-.032 1.397-.097l-.142-.99ZM11.176 47.9l-.535.845.01.006.525-.851Zm-7.49-8.68-.901.434.9-.434Zm0-27.44.9.434-.9-.434Zm7.49-8.61.525.85.01-.005-.535-.845Zm21.56 0-.54.842.007.004.007.005.526-.851Zm7.49 8.61-.901.434.9-.434Zm0 27.44-.901-.434.9.434Zm-7.49 8.68.53.847.004-.002-.534-.845Zm-5.81-8.26-.596-.803-.006.005-.007.004.609.794Zm3.36-5.11-.941-.339-.003.009-.003.008.947.322Zm0-18.06-.947.322.003.008.003.009.94-.339Zm-3.36-5.11-.609.794.007.004.006.005.596-.803Zm-9.94 0-.596-.803-.006.005-.007.004.609.794Zm-3.36 5.11-.941-.339-.003.009-.003.008.947.322Zm0 18.06-.947.322.003.008.003.009.94-.339Zm3.36 5.11-.609.794.007.004.006.005.596-.803Zm4.97 10.2c-.927 0-1.827-.054-2.701-.163l-.246 1.985c.96.119 1.942.178 2.947.178v-2Zm-7.877-1.55a18.32 18.32 0 0 1-2.378-1.24l-1.05 1.7c.849.526 1.728.984 2.636 1.376l.792-1.837Zm-2.369-1.235a17.856 17.856 0 0 1-2.203-1.643l-1.315 1.507c.769.67 1.585 1.28 2.45 1.826l1.068-1.69ZM5.938 41.22a23.479 23.479 0 0 1-1.351-2.435l-1.802.868c.447.93.936 1.81 1.466 2.642l1.687-1.075Zm-1.351-2.435a23.364 23.364 0 0 1-1.236-3.145l-1.908.6a25.357 25.357 0 0 0 1.342 3.413l1.802-.868Zm-2.495-9.845a41.97 41.97 0 0 1-.136-3.441h-2c0 1.24.047 2.442.143 3.605l1.993-.164ZM1.956 25.5c0-1.19.045-2.337.136-3.441L.1 21.895A43.97 43.97 0 0 0-.044 25.5h2ZM3.35 15.358c.348-1.108.76-2.156 1.236-3.144l-1.802-.868a25.357 25.357 0 0 0-1.342 3.414l1.908.598Zm1.236-3.144c.414-.86.862-1.667 1.345-2.423L4.247 8.714a25.158 25.158 0 0 0-1.462 2.632l1.802.868Zm4.91-6.579a17.294 17.294 0 0 1 2.204-1.614l-1.05-1.702A19.294 19.294 0 0 0 8.19 4.12l1.306 1.515Zm2.213-1.62a18.186 18.186 0 0 1 2.37-1.265L13.27.92c-.906.4-1.782.869-2.63 1.405l1.07 1.69Zm7.542-2.688a21.45 21.45 0 0 1 2.704-.167v-2c-1.008 0-1.993.06-2.956.183l.252 1.984Zm2.704-.167c.93 0 1.833.055 2.707.164L24.91-.66c-.96-.12-1.946-.18-2.955-.18v2Zm7.879 1.58c.815.36 1.602.785 2.36 1.272l1.08-1.684a19.495 19.495 0 0 0-2.63-1.417l-.81 1.828Zm2.375 1.28c.778.481 1.513 1.02 2.204 1.615L35.72 4.12a19.29 19.29 0 0 0-2.459-1.8l-1.05 1.7Zm5.77 5.77c.482.757.931 1.564 1.345 2.424l1.802-.868a25.17 25.17 0 0 0-1.462-2.632L37.979 9.79Zm1.345 2.424c.475.988.888 2.036 1.236 3.144l1.908-.598a25.358 25.358 0 0 0-1.342-3.414l-1.802.868Zm2.494 9.845c.091 1.104.137 2.251.137 3.441h2c0-1.24-.048-2.442-.144-3.605l-1.993.164Zm.137 3.441c0 1.19-.046 2.337-.137 3.441l1.993.164c.096-1.163.144-2.364.144-3.605h-2ZM40.56 35.642a23.364 23.364 0 0 1-1.236 3.144l1.802.868c.52-1.08.967-2.218 1.342-3.414l-1.908-.599Zm-1.236 3.144a23.471 23.471 0 0 1-1.351 2.435l1.687 1.075a25.467 25.467 0 0 0 1.466-2.642l-1.802-.868Zm-4.92 6.626a17.845 17.845 0 0 1-2.204 1.643l1.07 1.69a19.847 19.847 0 0 0 2.449-1.826l-1.316-1.507Zm-2.2 1.64c-.761.478-1.551.893-2.37 1.247l.794 1.836a19.634 19.634 0 0 0 2.638-1.388l-1.062-1.694ZM24.66 49.68a22.36 22.36 0 0 1-2.704.16v2c1.006 0 1.988-.058 2.946-.175l-.242-1.985Zm-2.704-9.43c-.407 0-.8-.029-1.179-.084l-.293 1.978c.48.071.971.106 1.472.106v-2Zm-3.384-.793a7.305 7.305 0 0 1-.99-.62l-1.192 1.606c.404.3.824.563 1.26.79l.922-1.776Zm-.978-.61a6.66 6.66 0 0 1-.976-.927l-1.51 1.311c.393.453.815.855 1.27 1.203l1.216-1.588ZM15.12 35.54a15.95 15.95 0 0 1-.553-1.349l-1.882.678c.192.533.4 1.04.623 1.517l1.812-.846Zm-.547-1.332a17.43 17.43 0 0 1-.56-2.087l-1.958.404c.17.828.378 1.605.624 2.327l1.894-.644Zm-1.083-6.472a44.609 44.609 0 0 1-.054-2.236h-2c0 .809.018 1.587.056 2.336l1.998-.1Zm-.054-2.236c0-.778.018-1.523.054-2.236l-1.998-.1a46.51 46.51 0 0 0-.056 2.336h2Zm.578-6.62a17.43 17.43 0 0 1 .559-2.088l-1.894-.644a19.428 19.428 0 0 0-.624 2.327l1.959.404Zm.553-2.071c.173-.482.357-.931.553-1.35l-1.812-.845c-.224.477-.431.984-.623 1.517l1.882.678Zm2.051-3.73a6.66 6.66 0 0 1 .976-.925l-1.217-1.588c-.454.348-.876.75-1.27 1.203l1.511 1.31Zm.964-.916c.32-.238.65-.444.99-.62l-.921-1.776c-.437.227-.857.49-1.261.79l1.192 1.606Zm3.195-1.329a8.043 8.043 0 0 1 1.179-.084v-2c-.501 0-.992.035-1.471.106l.292 1.979Zm1.179-.084c.412 0 .807.028 1.185.082l.283-1.98a10.357 10.357 0 0 0-1.468-.102v2Zm3.387.78c.338.177.662.385.974.624l1.217-1.588a8.696 8.696 0 0 0-1.265-.808l-.926 1.773Zm.987.633c.347.257.676.56.986.91l1.498-1.325a8.467 8.467 0 0 0-1.292-1.191l-1.192 1.606Zm2.477 3.277c.19.419.368.869.532 1.352l1.894-.644a16.64 16.64 0 0 0-.606-1.536l-1.82.829Zm.538 1.369c.227.631.424 1.323.589 2.076l1.954-.427c-.182-.828-.401-1.604-.661-2.327l-1.882.678Zm1.144 6.455c.038.712.057 1.458.057 2.236h2c0-.81-.02-1.592-.06-2.343l-1.997.107Zm.057 2.236c0 .778-.02 1.524-.057 2.236l1.997.107c.04-.751.06-1.532.06-2.343h-2Zm-.612 6.615a16.63 16.63 0 0 1-.59 2.076l1.883.678c.26-.723.48-1.499.66-2.327l-1.953-.427Zm-.595 2.093c-.164.483-.342.933-.532 1.352l1.82.828c.22-.484.422-.996.606-1.536l-1.894-.644Zm-2.023 3.718c-.31.351-.64.654-.986.91l1.192 1.607a8.463 8.463 0 0 0 1.292-1.19l-1.498-1.327Zm-.999.92c-.312.24-.636.447-.974.623l.926 1.773c.442-.231.864-.5 1.265-.808l-1.217-1.588Zm-3.176 1.322a8.356 8.356 0 0 1-1.185.082v2c.501 0 .99-.034 1.468-.102l-.283-1.98ZM60.652 50h-.5v.5h.5V50Zm0-44.8.354-.354-.854-.853V5.2h.5Zm4.9 4.9v.5h1.207l-.853-.854-.354.354Zm-14.7 0h-.5v.5h.5v-.5Zm0-9.1V.5h-.5V1h.5Zm21.14 0h.5V.5h-.5V1Zm0 49v.5h.5V50h-.5Zm-10.84 0v-3.733h-1V50h1Zm0-11.2v-7.467h-1V38.8h1Zm0-14.933V16.4h-1v7.467h1Zm0-14.934V5.2h-1v3.733h1Zm-.853-3.38 1.225 1.226.707-.708-1.225-1.225-.707.708Zm3.675 3.676 1.225 1.225.707-.708-1.225-1.225-.707.708Zm1.578.371h-3.675v1h3.675v-1Zm-11.025 0h-3.675v1h3.675v-1Zm-3.175.5V7.825h-1V10.1h1Zm0-6.825V1h-1v2.275h1Zm-.5-1.775h5.285v-1h-5.285v1Zm15.855 0h5.285v-1h-5.285v1Zm4.785-.5v4.083h1V1h-1Zm0 12.25v8.167h1V13.25h-1Zm0 16.333v8.167h1v-8.167h-1Zm0 16.334V50h1v-4.083h-1Zm.5 3.583h-2.835v1h2.835v-1Zm-8.505 0h-2.835v1h2.835v-1Zm-2.835.5h-1v1h1v-1Zm0-44.8.707-.707-1.707-1.707V5.2h1Zm4.9 4.9v1h2.414L66.26 9.393l-.707.707Zm-14.7 0h-1v1h1v-1Zm0-9.1V0h-1v1h1Zm21.14 0h1V0h-1v1Zm0 49v1h1v-1h-1Zm-10.34 0v-3.733h-2V50h2Zm0-11.2v-7.467h-2V38.8h2Zm0-14.933V16.4h-2v7.467h2Zm0-14.934V5.2h-2v3.733h2Zm-1.707-3.026 1.225 1.225 1.414-1.414-1.225-1.225-1.414 1.414Zm3.675 3.675 1.225 1.225 1.414-1.414-1.225-1.225-1.414 1.414Zm1.932-.482h-3.675v2h3.675v-2Zm-11.025 0h-3.675v2h3.675v-2Zm-2.675 1V7.825h-2V10.1h2Zm0-6.825V1h-2v2.275h2Zm-1-1.275h5.285V0h-5.285v2Zm15.855 0h5.285V0h-5.285v2Zm4.285-1v4.083h2V1h-2Zm0 12.25v8.167h2V13.25h-2Zm0 16.333v8.167h2v-8.167h-2Zm0 16.334V50h2v-4.083h-2Zm1 3.083h-2.835v2h2.835v-2Zm-8.505 0h-2.835v2h2.835v-2Z" fill="#fff"/></svg>