<svg width="89" height="51" fill="none" xmlns="http://www.w3.org/2000/svg"><path d="M21.017 50.84c-4.013 0-7.606-.98-10.78-2.94-3.173-2.007-5.67-4.9-7.49-8.68C.927 35.44.017 30.867.017 25.5c0-5.367.91-9.94 2.73-13.72 1.82-3.78 4.317-6.65 7.49-8.61C13.411 1.163 17.004.16 21.017.16c4.06 0 7.654 1.003 10.78 3.01 3.174 1.96 5.67 4.83 7.49 8.61 1.82 3.78 2.73 8.353 2.73 13.72 0 5.367-.91 9.94-2.73 13.72-1.82 3.78-4.316 6.673-7.49 8.68-3.126 1.96-6.72 2.94-10.78 2.94Zm0-9.59c1.914 0 3.57-.537 4.97-1.61 1.447-1.073 2.567-2.777 3.36-5.11.84-2.333 1.26-5.343 1.26-9.03 0-3.687-.42-6.697-1.26-9.03-.793-2.333-1.913-4.037-3.36-5.11-1.4-1.073-3.056-1.61-4.97-1.61-1.866 0-3.523.537-4.97 1.61-1.4 1.073-2.52 2.777-3.36 5.11-.793 2.333-1.19 5.343-1.19 9.03 0 3.687.397 6.697 1.19 9.03.84 2.333 1.96 4.037 3.36 5.11 1.447 1.073 3.104 1.61 4.97 1.61ZM51.734 50v-7.35l18.9-17.85c1.493-1.353 2.59-2.567 3.29-3.64.7-1.073 1.166-2.053 1.4-2.94.28-.887.42-1.703.42-2.45 0-1.96-.677-3.453-2.03-4.48-1.307-1.073-3.244-1.61-5.81-1.61-2.054 0-3.967.397-5.74 1.19-1.727.793-3.197 2.03-4.41 3.71l-8.26-5.32c1.866-2.8 4.48-5.017 7.84-6.65C60.694.977 64.567.16 68.954.16c3.64 0 6.813.607 9.52 1.82 2.753 1.167 4.876 2.823 6.37 4.97 1.54 2.147 2.31 4.713 2.31 7.7 0 1.587-.21 3.173-.63 4.76-.374 1.54-1.167 3.173-2.38 4.9-1.167 1.727-2.894 3.663-5.18 5.81l-15.68 14.77-2.17-4.13h27.65V50h-37.03Z" fill="#fff" fill-opacity=".1"/><path d="m10.237 47.9-.267.423.005.002.262-.425Zm-7.49-8.68-.45.217.45-.217Zm0-27.44.45.217-.45-.217Zm7.49-8.61.263.425.005-.002-.268-.423Zm21.56 0-.27.42.008.005.262-.425Zm7.49 8.61-.45.217.45-.217Zm0 27.44-.45-.217.45.217Zm-7.49 8.68.266.424.002-.001-.268-.423Zm-5.81-8.26-.298-.402-.006.005.304.397Zm3.36-5.11-.47-.17-.003.009.473.161Zm0-18.06-.473.161.003.008.47-.169Zm-3.36-5.11-.304.397.006.005.298-.402Zm-9.94 0-.298-.402-.006.005.304.397Zm-3.36 5.11-.47-.17-.003.009.473.161Zm0 18.06-.473.161.003.008.47-.169Zm3.36 5.11-.304.397.006.005.298-.402Zm4.97 10.7c-.946 0-1.866-.056-2.762-.166l-.123.992c.938.116 1.9.174 2.885.174v-1Zm-8.074-1.592a18.828 18.828 0 0 1-2.443-1.273l-.525.85c.829.512 1.686.96 2.572 1.341l.396-.918Zm-2.438-1.27a18.354 18.354 0 0 1-2.265-1.69l-.658.754c.75.654 1.546 1.248 2.388 1.78l.534-.845ZM4.577 41.49a23.983 23.983 0 0 1-1.38-2.487l-.9.434c.44.913.918 1.777 1.437 2.59l.843-.537Zm-1.38-2.487a23.863 23.863 0 0 1-1.262-3.212l-.954.3c.369 1.174.807 2.29 1.316 3.346l.9-.434ZM.657 28.983A42.473 42.473 0 0 1 .517 25.5h-1c0 1.228.047 2.416.142 3.564l.997-.082ZM.517 25.5c0-1.202.046-2.363.139-3.482l-.997-.082A43.472 43.472 0 0 0-.483 25.5h1Zm1.418-10.291c.355-1.13.776-2.201 1.263-3.212l-.901-.434A24.853 24.853 0 0 0 .98 14.91l.954.3Zm1.263-3.212c.422-.877.88-1.702 1.375-2.476l-.843-.538c-.517.81-.995 1.67-1.433 2.58l.9.434Zm5.034-6.74A17.792 17.792 0 0 1 10.5 3.594l-.525-.85A18.794 18.794 0 0 0 7.58 4.499l.652.757Zm2.273-1.664c.785-.497 1.597-.93 2.434-1.3l-.404-.915c-.883.39-1.738.847-2.565 1.37l.534.845ZM18.25.83C19.148.717 20.07.66 21.017.66v-1c-.987 0-1.952.06-2.892.179l.126.992ZM21.017.66c.95 0 1.874.056 2.77.168l.123-.992a23.313 23.313 0 0 0-2.893-.176v1ZM29.1 2.282c.84.372 1.648.808 2.428 1.309l.54-.842a18.992 18.992 0 0 0-2.563-1.381l-.405.914Zm2.436 1.313c.8.495 1.556 1.048 2.267 1.661l.653-.757a18.797 18.797 0 0 0-2.395-1.754l-.525.85Zm5.927 5.926c.494.774.953 1.6 1.375 2.476l.9-.434c-.438-.91-.915-1.77-1.432-2.58l-.843.538Zm1.375 2.476c.486 1.01.907 2.081 1.262 3.212l.954-.3a24.848 24.848 0 0 0-1.315-3.346l-.901.434Zm2.542 10.02c.092 1.12.138 2.28.138 3.483h1c0-1.228-.047-2.416-.141-3.564l-.997.082Zm.138 3.483c0 1.202-.046 2.363-.138 3.482l.997.082c.094-1.148.141-2.336.141-3.564h-1ZM40.1 35.791a23.856 23.856 0 0 1-1.262 3.212l.9.434a24.867 24.867 0 0 0 1.316-3.346l-.954-.3Zm-1.262 3.212c-.424.88-.884 1.708-1.38 2.487l.843.538c.52-.814.998-1.678 1.438-2.591l-.901-.434Zm-5.042 6.786c-.711.62-1.466 1.183-2.265 1.688l.535.846a19.338 19.338 0 0 0 2.387-1.781l-.657-.753Zm-2.263 1.687a18.13 18.13 0 0 1-2.436 1.282l.396.918a19.132 19.132 0 0 0 2.57-1.352l-.53-.848Zm-7.75 2.7a22.85 22.85 0 0 1-2.765.164v1c.988 0 1.95-.057 2.886-.17l-.121-.994Zm-2.765-9.426c-.43 0-.848-.03-1.251-.09l-.147.99c.455.067.92.1 1.398.1v-1Zm-3.614-.849a7.797 7.797 0 0 1-1.058-.663l-.596.803a8.8 8.8 0 0 0 1.194.748l.46-.888Zm-1.051-.658a7.159 7.159 0 0 1-1.05-.995l-.755.655c.372.43.77.808 1.196 1.134l.609-.794Zm-2.624-3.491a16.465 16.465 0 0 1-.57-1.391l-.941.338c.187.521.389 1.013.605 1.476l.906-.423Zm-.567-1.383a17.927 17.927 0 0 1-.575-2.147l-.98.202c.168.81.37 1.566.608 2.267l.947-.322Zm-1.11-6.608a45.05 45.05 0 0 1-.054-2.261h-1c0 .801.019 1.572.056 2.311l.999-.05Zm-.054-2.261c0-.786.018-1.54.055-2.261l-.999-.05c-.037.74-.056 1.51-.056 2.311h1Zm.589-6.722c.16-.775.351-1.49.575-2.147l-.947-.322c-.238.7-.44 1.456-.608 2.267l.98.202Zm.572-2.139c.178-.494.368-.958.57-1.39l-.906-.424c-.216.463-.418.955-.605 1.476l.94.338Zm2.144-3.887a7.159 7.159 0 0 1 1.05-.995l-.609-.794a8.158 8.158 0 0 0-1.196 1.134l.755.655Zm1.043-.99a7.806 7.806 0 0 1 1.058-.663l-.46-.888a8.81 8.81 0 0 0-1.194.747l.596.803Zm3.42-1.422c.404-.06.822-.09 1.252-.09v-1c-.477 0-.943.033-1.398.1l.147.99Zm1.252-.09c.435 0 .853.03 1.256.087l.142-.99a9.857 9.857 0 0 0-1.398-.097v1Zm3.619.837c.364.19.713.414 1.047.67l.608-.794a8.204 8.204 0 0 0-1.192-.762l-.463.886Zm1.053.675c.376.278.73.605 1.063.98l.749-.663a7.97 7.97 0 0 0-1.216-1.12l-.596.803Zm2.634 3.471c.198.435.382.9.55 1.398l.948-.322a16.122 16.122 0 0 0-.588-1.49l-.91.414Zm.554 1.406c.235.654.438 1.367.607 2.14l.977-.215a18.097 18.097 0 0 0-.643-2.263l-.941.338Zm1.172 6.598c.039.722.058 1.477.058 2.263h1c0-.803-.02-1.575-.059-2.316l-.998.053Zm.058 2.263c0 .786-.019 1.54-.058 2.263l1 .053c.039-.741.058-1.513.058-2.316h-1Zm-.623 6.722a17.125 17.125 0 0 1-.607 2.139l.94.338c.253-.7.467-1.454.644-2.264l-.977-.213Zm-.61 2.147c-.17.497-.353.963-.55 1.398l.91.414c.212-.467.408-.964.587-1.49l-.947-.322Zm-2.122 3.889a6.958 6.958 0 0 1-1.063.98l.596.803c.435-.322.84-.696 1.216-1.12l-.749-.663Zm-1.069.985c-.334.256-.683.48-1.047.67l.463.886a8.204 8.204 0 0 0 1.192-.762l-.608-.794Zm-3.41 1.42a8.861 8.861 0 0 1-1.256.087v1c.48 0 .945-.032 1.398-.097l-.142-.99ZM10.237 47.9l-.534.845.009.006.525-.851Zm-7.49-8.68-.9.434.9-.434Zm0-27.44.901.434-.9-.434Zm7.49-8.61.526.85.009-.005-.535-.845Zm21.56 0-.54.842.008.004.007.005.525-.851Zm7.49 8.61-.9.434.9-.434Zm0 27.44-.9-.434.9.434Zm-7.49 8.68.531.847.004-.002-.535-.845Zm-5.81-8.26-.595-.803-.007.005-.006.004.608.794Zm3.36-5.11-.94-.339-.004.009-.002.008.946.322Zm0-18.06-.947.322.003.008.003.009.941-.339Zm-3.36-5.11-.608.794.006.004.006.005.596-.803Zm-9.94 0-.596-.803-.006.005-.006.004.608.794Zm-3.36 5.11-.94-.339-.004.009-.002.008.946.322Zm0 18.06-.946.322.002.008.003.009.941-.339Zm3.36 5.11-.608.794.006.004.006.005.596-.803Zm4.97 10.2c-.926 0-1.826-.054-2.7-.163l-.246 1.985c.96.119 1.941.178 2.946.178v-2Zm-7.876-1.55a18.333 18.333 0 0 1-2.378-1.24l-1.051 1.7c.85.526 1.729.984 2.637 1.376l.792-1.837Zm-2.37-1.235a17.848 17.848 0 0 1-2.202-1.643l-1.316 1.507c.77.67 1.586 1.28 2.45 1.826l1.069-1.69ZM5 41.22a23.477 23.477 0 0 1-1.35-2.435l-1.803.868c.448.93.937 1.81 1.466 2.642L5 41.221Zm-1.35-2.435a23.363 23.363 0 0 1-1.237-3.145l-1.908.6a25.356 25.356 0 0 0 1.342 3.413l1.802-.868Zm-2.495-9.845a41.974 41.974 0 0 1-.137-3.441h-2c0 1.24.048 2.442.144 3.605l1.993-.164ZM1.017 25.5c0-1.19.046-2.337.137-3.441l-1.993-.164A43.97 43.97 0 0 0-.983 25.5h2Zm1.395-10.142c.348-1.108.76-2.156 1.236-3.144l-1.802-.868A25.356 25.356 0 0 0 .504 14.76l1.908.598Zm1.236-3.144c.414-.86.863-1.667 1.346-2.423L3.308 8.714a25.158 25.158 0 0 0-1.462 2.632l1.802.868Zm4.91-6.579a17.295 17.295 0 0 1 2.205-1.614L9.712 2.319A19.294 19.294 0 0 0 7.253 4.12L8.56 5.635Zm2.214-1.62a18.173 18.173 0 0 1 2.37-1.265L12.333.92c-.906.4-1.783.869-2.63 1.405l1.069 1.69Zm7.542-2.688a21.45 21.45 0 0 1 2.703-.167v-2c-1.008 0-1.993.06-2.955.183l.252 1.984Zm2.703-.167c.931 0 1.833.055 2.707.164l.248-1.984c-.96-.12-1.945-.18-2.955-.18v2Zm7.88 1.58c.815.36 1.602.785 2.36 1.272l1.08-1.684a19.495 19.495 0 0 0-2.63-1.417l-.81 1.828Zm2.375 1.28a17.29 17.29 0 0 1 2.204 1.615L34.78 4.12a19.298 19.298 0 0 0-2.458-1.8l-1.051 1.7Zm5.769 5.77c.483.757.931 1.564 1.345 2.424l1.802-.868a25.152 25.152 0 0 0-1.462-2.632L37.041 9.79Zm1.345 2.424c.476.988.888 2.036 1.236 3.144l1.908-.598a25.358 25.358 0 0 0-1.342-3.414l-1.802.868Zm2.495 9.845c.09 1.104.136 2.251.136 3.441h2c0-1.24-.047-2.442-.143-3.605l-1.993.164Zm.136 3.441c0 1.19-.045 2.337-.136 3.441l1.993.164c.096-1.163.143-2.364.143-3.605h-2Zm-1.395 10.142a23.378 23.378 0 0 1-1.236 3.144l1.802.868c.52-1.08.967-2.218 1.342-3.414l-1.908-.599Zm-1.236 3.144a23.471 23.471 0 0 1-1.35 2.435l1.686 1.075a25.485 25.485 0 0 0 1.466-2.642l-1.802-.868Zm-4.92 6.626a17.845 17.845 0 0 1-2.203 1.643l1.069 1.69a19.846 19.846 0 0 0 2.45-1.826l-1.316-1.507Zm-2.2 1.64c-.76.478-1.55.893-2.369 1.247l.794 1.836a19.639 19.639 0 0 0 2.637-1.388l-1.062-1.694Zm-7.545 2.628c-.873.106-1.774.16-2.704.16v2c1.007 0 1.989-.058 2.946-.175l-.242-1.985Zm-2.704-9.43c-.407 0-.8-.029-1.178-.084l-.293 1.978c.48.071.97.106 1.471.106v-2Zm-3.384-.793a7.293 7.293 0 0 1-.99-.62l-1.192 1.606a9.3 9.3 0 0 0 1.261.79l.921-1.776Zm-.977-.61a6.66 6.66 0 0 1-.976-.927l-1.51 1.311c.392.453.815.855 1.269 1.203l1.217-1.588ZM14.18 35.54c-.195-.418-.38-.867-.553-1.349l-1.882.678c.192.533.4 1.04.623 1.517l1.812-.846Zm-.547-1.332a17.43 17.43 0 0 1-.559-2.087l-1.958.404c.17.828.378 1.605.623 2.327l1.894-.644Zm-1.083-6.472a44.486 44.486 0 0 1-.054-2.236h-2c0 .809.019 1.587.057 2.336l1.997-.1Zm-.054-2.236c0-.778.018-1.523.054-2.236l-1.997-.1a46.51 46.51 0 0 0-.057 2.336h2Zm.578-6.62a17.43 17.43 0 0 1 .56-2.088l-1.894-.644a19.428 19.428 0 0 0-.624 2.327l1.958.404Zm.553-2.071c.174-.482.358-.931.553-1.35l-1.812-.845c-.223.477-.43.984-.623 1.517l1.882.678Zm2.052-3.73a6.66 6.66 0 0 1 .976-.925l-1.217-1.588c-.454.348-.877.75-1.27 1.203l1.51 1.31Zm.963-.916c.32-.238.65-.444.99-.62l-.92-1.776c-.438.227-.858.49-1.262.79l1.192 1.606Zm3.196-1.329a8.043 8.043 0 0 1 1.178-.084v-2c-.5 0-.991.035-1.471.106l.293 1.979Zm1.178-.084c.412 0 .807.028 1.185.082l.283-1.98a10.356 10.356 0 0 0-1.468-.102v2Zm3.387.78c.338.177.663.385.975.624l1.217-1.588a8.695 8.695 0 0 0-1.265-.808l-.927 1.773Zm.988.633c.346.257.675.56.986.91l1.497-1.325a8.471 8.471 0 0 0-1.292-1.191l-1.191 1.606Zm2.476 3.277c.19.419.368.869.533 1.352l1.893-.644a16.613 16.613 0 0 0-.605-1.536l-1.82.829Zm.538 1.369c.228.631.425 1.323.59 2.076l1.953-.427a18.635 18.635 0 0 0-.66-2.327l-1.883.678Zm1.144 6.455c.038.712.057 1.458.057 2.236h2c0-.81-.02-1.592-.06-2.343l-1.997.107Zm.057 2.236c0 .778-.019 1.524-.057 2.236l1.997.107c.04-.751.06-1.532.06-2.343h-2Zm-.612 6.615a16.63 16.63 0 0 1-.589 2.076l1.882.678c.26-.723.48-1.499.661-2.327l-1.954-.427Zm-.595 2.093c-.164.483-.341.933-.532 1.352l1.82.828c.22-.484.422-.996.606-1.536l-1.893-.644Zm-2.022 3.718c-.31.351-.64.654-.986.91l1.191 1.607a8.467 8.467 0 0 0 1.292-1.19l-1.497-1.327Zm-1 .92c-.311.24-.636.447-.974.623l.927 1.773c.442-.231.863-.5 1.265-.808l-1.217-1.588Zm-3.176 1.322a8.356 8.356 0 0 1-1.185.082v2c.502 0 .991-.034 1.468-.102l-.283-1.98ZM51.734 50h-.5v.5h.5V50Zm0-7.35-.344-.364-.156.148v.216h.5Zm18.9-17.85-.336-.37-.008.006.344.364Zm3.29-3.64.418.273-.418-.273Zm1.4-2.94-.477-.15-.004.011-.003.012.484.127Zm-1.61-6.93-.318.386.008.006.007.006.303-.398Zm-11.55-.42-.205-.456-.004.002.209.454Zm-4.41 3.71-.271.42.398.257.278-.384-.405-.293Zm-8.26-5.32-.416-.277-.282.422.427.275.27-.42Zm7.84-6.65-.219-.45.219.45Zm21.14-.63-.205.456.01.004.195-.46Zm6.37 4.97-.41.286.003.005.407-.291Zm1.68 12.46-.484-.128-.002.01.486.118Zm-2.38 4.9-.41-.287-.005.007.415.28Zm-5.18 5.81-.343-.364.343.364Zm-15.68 14.77-.443.233.306.582.48-.451-.343-.364Zm-2.17-4.13v-.5h-.828l.385.733.443-.233Zm27.65 0h.5v-.5h-.5v.5Zm0 9.24v.5h.5V50h-.5Zm-36.53 0v-1.837h-1V50h1Zm0-5.513V42.65h-1v1.837h1Zm-.157-1.474 2.362-2.23-.686-.728-2.363 2.231.687.727Zm7.087-6.693 4.725-4.463-.686-.727-4.725 4.463.686.727Zm9.45-8.925 2.363-2.232-.687-.727-2.362 2.232.686.727Zm2.355-2.224c.321-.291.625-.576.91-.855l-.698-.716c-.276.27-.57.546-.883.83l.671.74Zm2.617-2.706c.286-.353.538-.698.756-1.032l-.837-.546c-.197.302-.429.618-.697.95l.778.628Zm.756-1.032c.16-.243.307-.483.443-.718l-.865-.501c-.127.219-.265.443-.415.673l.837.546Zm1.193-2.255c.11-.283.2-.56.272-.83l-.967-.255c-.06.231-.14.472-.237.722l.932.363Zm.265-.807c.068-.213.127-.422.18-.629l-.97-.244c-.047.186-.102.377-.163.571l.953.302Zm.41-1.93c.023-.228.034-.452.034-.671h-1c0 .186-.01.377-.029.575l.995.096Zm.034-.671c0-.475-.038-.928-.114-1.36l-.985.175c.065.368.099.763.099 1.185h1Zm-1.225-3.901a5.547 5.547 0 0 0-1.003-.977l-.605.796c.318.241.592.509.824.801l.784-.62Zm-.988-.965a6.36 6.36 0 0 0-1.416-.872l-.413.91c.452.206.85.451 1.194.734l.635-.772Zm-4.544-1.65a16.26 16.26 0 0 0-1.583-.074v1c.525 0 1.02.023 1.486.069l.097-.995Zm-1.583-.074c-.516 0-1.023.024-1.523.073l.097.995a14.75 14.75 0 0 1 1.426-.068v-1Zm-4.515.686c-.486.156-.962.339-1.43.548l.409.912c.433-.194.876-.363 1.327-.508l-.306-.952Zm-1.434.55c-.464.213-.91.456-1.339.73l.54.843c.389-.25.794-.47 1.216-.665l-.417-.908ZM58.3 13.112c-.334.366-.651.758-.953 1.175l.811.586c.28-.388.574-.75.881-1.088l-.74-.673Zm-.277 1.048-2.065-1.33-.541.84L57.483 15l.541-.84Zm-6.195-3.99-2.065-1.33-.541.84 2.065 1.33.541-.84Zm-1.92-.633c.47-.702.986-1.367 1.551-1.994l-.743-.67a18.352 18.352 0 0 0-1.64 2.11l.833.554Zm5.421-5.24a22.312 22.312 0 0 1 2.222-1.237l-.437-.9c-.816.397-1.59.828-2.321 1.293l.536.844Zm2.222-1.237a22.002 22.002 0 0 1 2.712-1.1l-.314-.949c-.981.324-1.926.708-2.835 1.15l.437.899ZM66.008.792A32.134 32.134 0 0 1 68.954.66v-1c-1.04 0-2.052.045-3.037.136l.091.996ZM68.954.66c.825 0 1.624.032 2.398.095l.081-.997a30.52 30.52 0 0 0-2.48-.098v1Zm7.089.951c.776.233 1.518.508 2.226.825l.41-.912a19.244 19.244 0 0 0-2.349-.87l-.287.957Zm2.236.83c.63.266 1.224.559 1.784.877l.494-.87a18.128 18.128 0 0 0-1.888-.928l-.39.92Zm4.907 3.275c.457.475.873.981 1.247 1.52l.821-.572a13.361 13.361 0 0 0-1.348-1.642l-.72.694Zm1.251 1.525c.383.534.716 1.094.999 1.68l.9-.434c-.308-.639-.67-1.249-1.086-1.828l-.813.582Zm2.093 5.435c.082.633.124 1.291.124 1.974h1c0-.723-.044-1.424-.132-2.103l-.992.129Zm.124 1.974c0 .39-.013.78-.04 1.17l.998.066c.028-.412.042-.824.042-1.236h-1Zm-.349 3.49c-.076.38-.164.761-.265 1.142l.967.256c.106-.4.2-.802.28-1.203l-.982-.195Zm-.267 1.152c-.099.406-.229.822-.39 1.246l.934.356c.176-.46.318-.916.428-1.366l-.972-.236Zm-1.57 3.613c-.223.367-.468.74-.734 1.117l.819.576c.277-.395.534-.786.77-1.173l-.855-.52Zm-.739 1.125c-.33.49-.71 1-1.138 1.53l.779.628a23.43 23.43 0 0 0 1.188-1.598l-.829-.56Zm-3.72 4.38a56.8 56.8 0 0 1-1.388 1.346l.685.729c.496-.466.967-.923 1.412-1.37l-.71-.705Zm-1.388 1.346-3.92 3.693.686.727 3.92-3.692-.686-.728ZM66.86 40.834l-3.92 3.692.685.728 3.92-3.692-.685-.728Zm-3.135 3.823-.542-1.032-.886.465.543 1.033.885-.466ZM62.1 41.56l-.543-1.033-.885.466.543 1.032.885-.465Zm-.985-.3h3.456v-1h-3.456v1Zm10.368 0h6.913v-1h-6.913v1Zm13.825 0h3.457v-1h-3.457v1Zm2.957-.5v2.31h1v-2.31h-1Zm0 6.93V50h1v-2.31h-1Zm.5 1.81h-4.63v1h4.63v-1Zm-13.887 0H65.62v1h9.257v-1Zm-18.515 0h-4.628v1h4.628v-1Zm-4.628.5h-1v1h1v-1Zm0-7.35-.687-.727-.313.296v.431h1Zm18.9-17.85-.672-.741-.008.007-.007.007.687.727Zm3.29-3.64.837.546-.837-.546Zm1.4-2.94-.954-.301-.007.023-.006.023.967.255Zm-1.61-6.93-.635.773.015.012.015.012.605-.797Zm-11.55-.42-.409-.913-.009.004.418.909Zm-4.41 3.71-.542.84.797.514.555-.768-.81-.586Zm-8.26-5.32-.832-.555-.564.846.854.55.542-.841Zm7.84-6.65-.438-.9.438.9Zm21.14-.63-.41.913.01.004.01.004.39-.921Zm6.37 4.97-.821.571.004.006.004.006.813-.583Zm1.68 12.46-.967-.256-.003.01-.002.01.972.236Zm-2.38 4.9-.819-.575-.005.008-.005.007.829.56Zm-5.18 5.81-.685-.73-.001.002.686.728Zm-15.68 14.77-.886.465.613 1.166.958-.903-.685-.728Zm-2.17-4.13v-1h-1.655l.77 1.465.885-.465Zm27.65 0h1v-1h-1v1Zm0 9.24v1h1v-1h-1Zm-36.03 0v-1.837h-2V50h2Zm0-5.513V42.65h-2v1.837h2Zm-.314-1.11 2.363-2.231-1.373-1.454-2.363 2.231 1.373 1.454Zm7.088-6.694 4.725-4.462-1.374-1.454-4.724 4.462 1.373 1.454Zm9.45-8.925 2.362-2.231-1.373-1.454-2.362 2.231 1.373 1.454Zm2.347-2.217c.325-.295.633-.584.924-.868l-1.397-1.43c-.272.265-.562.537-.87.816l1.343 1.482Zm2.67-2.761c.295-.365.558-.723.786-1.074l-1.675-1.092c-.186.285-.408.588-.667.908l1.555 1.258Zm.786-1.074c.163-.25.316-.497.457-.741l-1.731-1.002c-.122.211-.256.428-.401.65l1.675 1.093Zm1.24-2.347c.116-.298.213-.593.29-.885l-1.934-.509a6.2 6.2 0 0 1-.22.669l1.864.725Zm.276-.838c.07-.221.132-.44.187-.656l-1.94-.49a9.62 9.62 0 0 1-.154.544l1.907.602Zm.431-2.032a7.47 7.47 0 0 0 .036-.719h-2c0 .169-.009.344-.027.527l1.991.192Zm.036-.719c0-.501-.04-.984-.122-1.447l-1.97.35c.06.336.092.701.092 1.097h2Zm-1.333-4.212a6.047 6.047 0 0 0-1.093-1.065l-1.209 1.594c.286.217.53.454.734.713l1.568-1.242Zm-1.063-1.04a6.856 6.856 0 0 0-1.526-.941l-.827 1.82c.416.19.776.412 1.084.666l1.27-1.546Zm-4.812-1.762c-.52-.051-1.064-.076-1.632-.076v2c.51 0 .989.022 1.437.066l.195-1.99Zm-1.632-.076c-.531 0-1.055.025-1.572.075l.194 1.99c.45-.043.91-.065 1.378-.065v-2Zm-4.668.71c-.503.162-.997.35-1.48.567l.816 1.826c.417-.187.842-.35 1.275-.489l-.61-1.904Zm-1.49.571a11.5 11.5 0 0 0-1.4.765l1.079 1.684a9.5 9.5 0 0 1 1.156-.631l-.835-1.818Zm-3.815 2.814c-.347.38-.676.787-.988 1.22l1.621 1.17c.27-.373.552-.72.846-1.043l-1.479-1.347Zm.364.964-2.065-1.33-1.083 1.682 2.065 1.33 1.083-1.682ZM52.1 9.75l-2.065-1.33-1.083 1.682 2.065 1.33L52.1 9.749Zm-1.774.066c.455-.683.956-1.328 1.505-1.937l-1.485-1.34a18.853 18.853 0 0 0-1.684 2.167l1.664 1.11Zm5.273-5.096a21.815 21.815 0 0 1 2.172-1.21l-.875-1.798c-.831.404-1.622.844-2.37 1.32l1.073 1.688Zm2.172-1.21c.847-.412 1.73-.77 2.65-1.074L59.792.536a23.502 23.502 0 0 0-2.896 1.175l.875 1.798Zm8.283-2.22c.937-.086 1.904-.129 2.9-.129v-2c-1.054 0-2.082.046-3.083.138l.183 1.992Zm2.9-.129c.812 0 1.598.031 2.357.093l.163-1.993c-.817-.067-1.657-.1-2.52-.1v2Zm6.945.93c.757.227 1.478.494 2.166.803l.818-1.826a19.741 19.741 0 0 0-2.41-.893L75.9 2.09Zm2.184.81c.614.26 1.19.545 1.733.853l.988-1.739a18.623 18.623 0 0 0-1.94-.955l-.78 1.842Zm4.743 3.163c.439.456.837.942 1.197 1.458l1.642-1.142a13.845 13.845 0 0 0-1.4-1.703l-1.44 1.387Zm1.205 1.47c.366.51.684 1.045.955 1.606l1.801-.869c-.321-.665-.698-1.3-1.13-1.903L84.03 7.533Zm2.003 5.207c.08.611.12 1.248.12 1.91h2c0-.743-.045-1.466-.137-2.167l-1.983.257Zm.12 1.91c0 .379-.013.757-.038 1.136l1.995.134c.028-.424.043-.847.043-1.27h-2Zm-.339 3.392c-.074.37-.16.74-.258 1.112l1.933.512c.109-.41.204-.821.286-1.233l-1.96-.391Zm-.263 1.132c-.093.385-.217.78-.372 1.186l1.87.713c.182-.48.331-.955.446-1.427l-1.944-.472Zm-1.511 3.471c-.218.357-.456.72-.716 1.09l1.637 1.15c.283-.403.546-.803.787-1.2l-1.708-1.04Zm-.726 1.105c-.322.477-.693.975-1.112 1.495l1.555 1.257c.451-.558.856-1.102 1.214-1.632l-1.657-1.12Zm-3.66 4.307c-.433.434-.891.879-1.376 1.334l1.37 1.458c.5-.47.974-.93 1.423-1.381l-1.418-1.411Zm-1.377 1.335-3.92 3.693 1.371 1.455 3.92-3.692-1.371-1.456ZM66.518 40.47l-3.92 3.692 1.371 1.456 3.92-3.693-1.371-1.455Zm-2.35 3.955-.542-1.033-1.77.93.542 1.033 1.77-.93Zm-1.627-3.098L62 40.295l-1.77.93.542 1.033 1.77-.93Zm-1.427.433h3.456v-2h-3.456v2Zm10.368 0h6.913v-2h-6.913v2Zm13.825 0h3.457v-2h-3.457v2Zm2.457-1v2.31h2v-2.31h-2Zm0 6.93V50h2v-2.31h-2Zm1 1.31h-4.63v2h4.63v-2Zm-13.887 0H65.62v2h9.257v-2Zm-18.515 0h-4.628v2h4.628v-2Z" fill="#fff"/></svg>