<svg width="89" height="51" fill="none" xmlns="http://www.w3.org/2000/svg"><path d="M21.154 50.84c-4.013 0-7.607-.98-10.78-2.94-3.173-2.007-5.67-4.9-7.49-8.68-1.82-3.78-2.73-8.353-2.73-13.72 0-5.367.91-9.94 2.73-13.72 1.82-3.78 4.317-6.65 7.49-8.61C13.547 1.163 17.141.16 21.154.16c4.06 0 7.653 1.003 10.78 3.01 3.173 1.96 5.67 4.83 7.49 8.61 1.82 3.78 2.73 8.353 2.73 13.72 0 5.367-.91 9.94-2.73 13.72-1.82 3.78-4.317 6.673-7.49 8.68-3.127 1.96-6.72 2.94-10.78 2.94Zm0-9.59c1.913 0 3.57-.537 4.97-1.61 1.447-1.073 2.567-2.777 3.36-5.11.84-2.333 1.26-5.343 1.26-9.03 0-3.687-.42-6.697-1.26-9.03-.793-2.333-1.913-4.037-3.36-5.11-1.4-1.073-3.057-1.61-4.97-1.61-1.867 0-3.523.537-4.97 1.61-1.4 1.073-2.52 2.777-3.36 5.11-.793 2.333-1.19 5.343-1.19 9.03 0 3.687.397 6.697 1.19 9.03.84 2.333 1.96 4.037 3.36 5.11 1.447 1.073 3.103 1.61 4.97 1.61Zm46.616 9.59c-3.406 0-6.79-.443-10.15-1.33-3.36-.933-6.206-2.24-8.54-3.92l4.41-8.68c1.867 1.353 4.037 2.427 6.51 3.22a24.39 24.39 0 0 0 7.49 1.19c2.847 0 5.087-.56 6.72-1.68 1.634-1.12 2.45-2.66 2.45-4.62 0-1.867-.723-3.337-2.17-4.41s-3.78-1.61-7-1.61h-5.18v-7.49L75.96 6.04l1.26 4.06H51.53V1h34.3v7.35L72.25 23.82l-5.74-3.29h3.29c6.02 0 10.57 1.353 13.65 4.06s4.62 6.183 4.62 10.43c0 2.753-.723 5.343-2.17 7.77-1.447 2.38-3.663 4.317-6.65 5.81-2.987 1.493-6.813 2.24-11.48 2.24Z" fill="#fff" fill-opacity=".1"/><path d="m10.374 47.9-.267.423.004.002.263-.425Zm-7.49-8.68-.45.217.45-.217Zm0-27.44.45.217-.45-.217Zm7.49-8.61.263.425.004-.002-.267-.423Zm21.56 0-.27.42.007.005.263-.425Zm7.49 8.61-.45.217.45-.217Zm0 27.44-.45-.217.45.217Zm-7.49 8.68.266.424.001-.001-.267-.423Zm-5.81-8.26-.298-.402-.006.005.304.397Zm3.36-5.11-.47-.17-.003.009.473.161Zm0-18.06-.473.161.003.008.47-.169Zm-3.36-5.11-.304.397.006.005.298-.402Zm-9.94 0-.298-.402-.006.005.304.397Zm-3.36 5.11-.47-.17-.003.009.473.161Zm0 18.06-.473.161.003.008.47-.169Zm3.36 5.11-.304.397.006.005.298-.402Zm4.97 10.7c-.946 0-1.867-.056-2.762-.166l-.123.992c.938.116 1.9.174 2.885.174v-1Zm-8.074-1.592a18.823 18.823 0 0 1-2.443-1.273l-.526.85c.83.512 1.687.96 2.573 1.341l.396-.918Zm-2.439-1.27a18.348 18.348 0 0 1-2.264-1.69l-.658.754c.75.654 1.545 1.248 2.388 1.78l.534-.845ZM4.714 41.49a23.983 23.983 0 0 1-1.38-2.487l-.9.434c.44.913.918 1.777 1.437 2.59l.843-.537Zm-1.38-2.487a23.863 23.863 0 0 1-1.262-3.212l-.954.3c.368 1.174.807 2.29 1.316 3.346l.9-.434ZM.793 28.983A42.473 42.473 0 0 1 .654 25.5h-1c0 1.228.047 2.416.142 3.564l.996-.082ZM.654 25.5c0-1.202.046-2.363.138-3.482l-.996-.082A43.472 43.472 0 0 0-.346 25.5h1Zm1.418-10.291c.355-1.13.776-2.201 1.263-3.212l-.901-.434a24.853 24.853 0 0 0-1.316 3.346l.954.3Zm1.263-3.212c.422-.877.88-1.702 1.374-2.476l-.842-.538c-.518.81-.995 1.67-1.433 2.58l.9.434Zm5.034-6.74a17.793 17.793 0 0 1 2.268-1.662l-.526-.85a18.793 18.793 0 0 0-2.395 1.754l.653.757Zm2.272-1.664c.786-.497 1.598-.93 2.435-1.3l-.404-.915c-.883.39-1.739.847-2.565 1.37l.534.845ZM18.387.83c.897-.114 1.82-.171 2.767-.171v-1c-.988 0-1.952.06-2.892.179l.125.992ZM21.154.66c.95 0 1.873.056 2.769.168l.124-.992a23.312 23.312 0 0 0-2.893-.176v1Zm8.082 1.622c.839.372 1.648.808 2.428 1.309l.54-.842a18.997 18.997 0 0 0-2.563-1.381l-.405.914Zm2.435 1.313c.8.495 1.556 1.048 2.268 1.661l.653-.757a18.797 18.797 0 0 0-2.395-1.754l-.526.85ZM37.6 9.521c.494.774.953 1.6 1.375 2.476l.9-.434c-.438-.91-.915-1.77-1.433-2.58l-.842.538Zm1.375 2.476c.486 1.01.907 2.081 1.262 3.212l.954-.3a24.861 24.861 0 0 0-1.316-3.346l-.9.434Zm2.542 10.02c.092 1.12.138 2.28.138 3.483h1c0-1.228-.047-2.416-.142-3.564l-.996.082Zm.138 3.483c0 1.202-.046 2.363-.138 3.482l.996.082c.095-1.148.142-2.336.142-3.564h-1Zm-1.418 10.291a23.856 23.856 0 0 1-1.262 3.212l.9.434a24.867 24.867 0 0 0 1.316-3.346l-.954-.3Zm-1.262 3.212c-.424.88-.884 1.708-1.38 2.487l.843.538c.519-.814.998-1.678 1.438-2.591l-.901-.434ZM33.93 45.79c-.71.62-1.465 1.183-2.264 1.688l.534.846a19.345 19.345 0 0 0 2.388-1.781l-.658-.753Zm-2.262 1.687c-.783.49-1.595.918-2.437 1.282l.397.918a19.13 19.13 0 0 0 2.57-1.352l-.53-.848Zm-7.75 2.7c-.895.11-1.816.164-2.765.164v1c.987 0 1.95-.057 2.885-.17l-.12-.994Zm-2.765-9.426c-.43 0-.848-.03-1.252-.09l-.146.99c.454.067.92.1 1.398.1v-1Zm-3.614-.849a7.803 7.803 0 0 1-1.058-.663l-.596.803a8.8 8.8 0 0 0 1.193.748l.46-.888Zm-1.052-.658a7.159 7.159 0 0 1-1.05-.995l-.754.655c.372.43.77.808 1.196 1.134l.608-.794Zm-2.623-3.491a16.465 16.465 0 0 1-.57-1.391l-.941.338c.187.521.389 1.013.605 1.476l.906-.423Zm-.568-1.383a17.927 17.927 0 0 1-.575-2.147l-.98.202c.168.81.37 1.566.609 2.267l.946-.322Zm-1.109-6.608a45.05 45.05 0 0 1-.054-2.261h-1c0 .801.019 1.572.056 2.311l.998-.05Zm-.054-2.261c0-.786.018-1.54.054-2.261l-.998-.05c-.037.74-.056 1.51-.056 2.311h1Zm.588-6.722c.16-.775.352-1.49.575-2.147l-.946-.322c-.239.7-.44 1.456-.608 2.267l.98.202Zm.572-2.139c.178-.494.369-.958.571-1.39l-.906-.424c-.216.463-.418.955-.605 1.476l.94.338Zm2.145-3.887a7.159 7.159 0 0 1 1.05-.995l-.61-.794a8.163 8.163 0 0 0-1.195 1.134l.755.655Zm1.043-.99a7.813 7.813 0 0 1 1.058-.663l-.46-.888a8.81 8.81 0 0 0-1.194.747l.596.803Zm3.42-1.422c.404-.06.821-.09 1.252-.09v-1c-.477 0-.944.033-1.398.1l.146.99Zm1.252-.09c.434 0 .853.03 1.256.087l.141-.99a9.856 9.856 0 0 0-1.397-.097v1Zm3.619.837c.364.19.712.414 1.047.67l.608-.794a8.198 8.198 0 0 0-1.192-.762l-.463.886Zm1.053.675c.376.278.73.605 1.063.98l.748-.663a7.965 7.965 0 0 0-1.215-1.12l-.596.803Zm2.634 3.471c.198.435.382.9.55 1.398l.947-.322a16.122 16.122 0 0 0-.587-1.49l-.91.414Zm.554 1.406c.235.654.438 1.367.607 2.14l.976-.215a18.115 18.115 0 0 0-.643-2.263l-.94.338Zm1.172 6.598c.039.722.058 1.477.058 2.263h1c0-.803-.02-1.575-.06-2.316l-.998.053Zm.058 2.263c0 .786-.02 1.54-.058 2.263l.999.053c.04-.741.059-1.513.059-2.316h-1Zm-.623 6.722a17.125 17.125 0 0 1-.607 2.139l.94.338c.252-.7.466-1.454.643-2.264l-.977-.213Zm-.61 2.147c-.17.497-.353.963-.55 1.398l.91.414c.212-.467.408-.964.586-1.49l-.946-.322Zm-2.122 3.889a6.958 6.958 0 0 1-1.063.98l.596.803a7.96 7.96 0 0 0 1.215-1.12l-.748-.663Zm-1.07.985c-.334.256-.682.48-1.046.67l.463.886a8.198 8.198 0 0 0 1.192-.762l-.608-.794Zm-3.41 1.42a8.863 8.863 0 0 1-1.255.087v1c.48 0 .945-.032 1.397-.097l-.141-.99ZM10.375 47.9l-.534.845.009.006.525-.851Zm-7.49-8.68-.901.434.901-.434Zm0-27.44.901.434-.901-.434Zm7.49-8.61.525.85.01-.005-.535-.845Zm21.56 0-.54.842.007.004.008.005.525-.851Zm7.49 8.61-.901.434.901-.434Zm0 27.44-.901-.434.901.434Zm-7.49 8.68.531.847.003-.002-.534-.845Zm-5.81-8.26-.596-.803-.006.005-.006.004.608.794Zm3.36-5.11-.94-.339-.004.009-.003.008.947.322Zm0-18.06-.947.322.003.008.003.009.941-.339Zm-3.36-5.11-.608.794.006.004.006.005.596-.803Zm-9.94 0-.596-.803-.006.005-.006.004.608.794Zm-3.36 5.11-.94-.339-.004.009-.003.008.947.322Zm0 18.06-.947.322.003.008.003.009.941-.339Zm3.36 5.11-.608.794.006.004.006.005.596-.803Zm4.97 10.2c-.926 0-1.826-.054-2.7-.163l-.247 1.985c.96.119 1.942.178 2.947.178v-2Zm-7.877-1.55a18.333 18.333 0 0 1-2.377-1.24l-1.051 1.7c.85.526 1.728.984 2.637 1.376l.791-1.837Zm-2.368-1.235a17.847 17.847 0 0 1-2.204-1.643L7.39 46.919c.769.67 1.586 1.28 2.45 1.826l1.069-1.69ZM5.136 41.22a23.479 23.479 0 0 1-1.351-2.435l-1.802.868c.448.93.936 1.81 1.466 2.642l1.687-1.075Zm-1.351-2.435a23.364 23.364 0 0 1-1.236-3.145l-1.908.6a25.356 25.356 0 0 0 1.342 3.413l1.802-.868Zm-2.494-9.845a41.974 41.974 0 0 1-.137-3.441h-2c0 1.24.048 2.442.143 3.605l1.994-.164ZM1.154 25.5c0-1.19.046-2.337.137-3.441l-1.994-.164A43.97 43.97 0 0 0-.846 25.5h2Zm1.395-10.142c.348-1.108.76-2.156 1.236-3.144l-1.802-.868A25.356 25.356 0 0 0 .641 14.76l1.908.598Zm1.236-3.144A23.16 23.16 0 0 1 5.131 9.79L3.445 8.714a25.16 25.16 0 0 0-1.462 2.632l1.802.868Zm4.91-6.579A17.299 17.299 0 0 1 10.9 4.021L9.85 2.319A19.294 19.294 0 0 0 7.39 4.12l1.305 1.515Zm2.213-1.62a18.18 18.18 0 0 1 2.37-1.265L12.47.92c-.906.4-1.783.869-2.63 1.405l1.069 1.69Zm7.542-2.688a21.451 21.451 0 0 1 2.704-.167v-2c-1.008 0-1.993.06-2.956.183l.252 1.984Zm2.704-.167c.93 0 1.833.055 2.707.164l.248-1.984c-.96-.12-1.945-.18-2.955-.18v2Zm7.88 1.58c.815.36 1.601.785 2.36 1.272l1.08-1.684a19.488 19.488 0 0 0-2.63-1.417l-.81 1.828Zm2.375 1.28c.777.481 1.512 1.02 2.204 1.615l1.305-1.515a19.298 19.298 0 0 0-2.459-1.8l-1.05 1.7Zm5.768 5.77c.483.757.932 1.564 1.346 2.424l1.802-.868a25.152 25.152 0 0 0-1.462-2.632L37.177 9.79Zm1.346 2.424c.476.988.888 2.036 1.236 3.144l1.908-.598a25.358 25.358 0 0 0-1.342-3.414l-1.802.868Zm2.494 9.845c.091 1.104.137 2.251.137 3.441h2c0-1.24-.048-2.442-.143-3.605l-1.994.164Zm.137 3.441c0 1.19-.046 2.337-.137 3.441l1.994.164c.095-1.163.143-2.364.143-3.605h-2Zm-1.395 10.142a23.364 23.364 0 0 1-1.236 3.144l1.802.868c.52-1.08.967-2.218 1.342-3.414l-1.908-.599Zm-1.236 3.144a23.471 23.471 0 0 1-1.35 2.435l1.686 1.075a25.485 25.485 0 0 0 1.466-2.642l-1.802-.868Zm-4.92 6.626a17.86 17.86 0 0 1-2.203 1.643l1.069 1.69a19.846 19.846 0 0 0 2.449-1.826l-1.315-1.507Zm-2.2 1.64c-.761.478-1.55.893-2.37 1.247l.795 1.836a19.64 19.64 0 0 0 2.637-1.388l-1.062-1.694Zm-7.545 2.628c-.873.106-1.774.16-2.704.16v2c1.007 0 1.989-.058 2.946-.175l-.242-1.985Zm-2.704-9.43c-.407 0-.8-.029-1.178-.084l-.293 1.978c.48.071.97.106 1.471.106v-2Zm-3.384-.793a7.299 7.299 0 0 1-.99-.62l-1.192 1.606c.404.3.824.563 1.261.79l.92-1.776Zm-.977-.61a6.655 6.655 0 0 1-.976-.927l-1.511 1.311c.393.453.816.855 1.27 1.203l1.216-1.588Zm-2.475-3.307c-.195-.418-.38-.867-.553-1.349l-1.882.678c.192.533.4 1.04.623 1.517l1.812-.846Zm-.547-1.332a17.412 17.412 0 0 1-.559-2.087l-1.959.404c.171.828.379 1.605.624 2.327l1.894-.644Zm-1.083-6.472a44.486 44.486 0 0 1-.054-2.236h-2c0 .809.019 1.587.056 2.336l1.998-.1Zm-.054-2.236c0-.778.018-1.523.054-2.236l-1.998-.1a46.51 46.51 0 0 0-.056 2.336h2Zm.578-6.62c.156-.758.343-1.453.559-2.088l-1.894-.644a19.41 19.41 0 0 0-.624 2.327l1.959.404Zm.553-2.071c.173-.482.358-.931.553-1.35l-1.812-.845c-.223.477-.43.984-.623 1.517l1.882.678Zm2.051-3.73c.311-.357.637-.665.976-.925l-1.216-1.588c-.454.348-.877.75-1.27 1.203l1.51 1.31Zm.964-.916c.32-.238.65-.444.99-.62l-.92-1.776c-.438.227-.858.49-1.262.79l1.192 1.606Zm3.195-1.329a8.044 8.044 0 0 1 1.179-.084v-2c-.5 0-.991.035-1.471.106l.293 1.979Zm1.179-.084c.412 0 .807.028 1.185.082l.283-1.98a10.356 10.356 0 0 0-1.468-.102v2Zm3.387.78c.338.177.663.385.975.624l1.217-1.588a8.696 8.696 0 0 0-1.266-.808l-.926 1.773Zm.987.633c.347.257.676.56.987.91l1.497-1.325a8.467 8.467 0 0 0-1.292-1.191l-1.192 1.606Zm2.477 3.277c.19.419.368.869.532 1.352l1.894-.644a16.613 16.613 0 0 0-.606-1.536l-1.82.829Zm.538 1.369c.227.631.424 1.323.59 2.076l1.953-.427a18.6 18.6 0 0 0-.661-2.327l-1.882.678Zm1.144 6.455c.038.712.057 1.458.057 2.236h2c0-.81-.02-1.592-.06-2.343l-1.997.107Zm.057 2.236c0 .778-.02 1.524-.057 2.236l1.997.107c.04-.751.06-1.532.06-2.343h-2Zm-.612 6.615a16.612 16.612 0 0 1-.589 2.076l1.882.678a18.6 18.6 0 0 0 .66-2.327l-1.953-.427Zm-.595 2.093c-.164.483-.342.933-.532 1.352l1.82.828c.22-.484.422-.996.606-1.536l-1.894-.644Zm-2.022 3.718c-.311.351-.64.654-.987.91l1.192 1.607a8.462 8.462 0 0 0 1.292-1.19l-1.497-1.327Zm-1 .92c-.311.24-.636.447-.974.623l.926 1.773c.442-.231.864-.5 1.266-.808l-1.217-1.588Zm-3.176 1.322a8.356 8.356 0 0 1-1.185.082v2c.502 0 .991-.034 1.468-.102l-.283-1.98ZM57.62 49.51l-.134.482.007.001.127-.483Zm-8.54-3.92-.446-.227-.194.383.348.25.292-.406Zm4.41-8.68.294-.405-.474-.344-.266.523.446.226ZM60 40.13l-.153.476.153-.476Zm14.21-.49.283.412-.283-.412Zm.28-9.03-.298.402.298-.402ZM62.31 29h-.5v.5h.5V29Zm0-7.49-.375-.33-.125.14v.19h.5ZM75.96 6.04l.478-.148-.264-.85-.589.667.375.331Zm1.26 4.06v.5h.679l-.201-.648-.478.148Zm-25.69 0h-.5v.5h.5v-.5Zm0-9.1V.5h-.5V1h.5Zm34.3 0h.5V.5h-.5V1Zm0 7.35.376.33.124-.142V8.35h-.5ZM72.25 23.82l-.248.434.354.203.27-.307-.376-.33Zm-5.74-3.29v-.5h-1.878l1.63.934.248-.434Zm16.94 4.06-.33.376.33-.376Zm2.45 18.2.427.26.003-.004-.43-.256Zm-6.65 5.81-.223-.447.223.447Zm-11.48 1.74c-.845 0-1.69-.028-2.532-.083l-.065.998c.864.057 1.73.085 2.597.085v-1Zm-7.552-.743a40.426 40.426 0 0 1-2.47-.57l-.255.966a41.43 41.43 0 0 0 2.53.585l.194-.981Zm-2.464-.569a33.405 33.405 0 0 1-2.22-.698l-.333.943c.735.26 1.496.5 2.285.719l.268-.964Zm-6.439-2.602a21.35 21.35 0 0 1-1.943-1.242l-.584.812c.641.461 1.32.895 2.034 1.3l.493-.87Zm-1.789-.61 1.102-2.17-.891-.453-1.103 2.17.892.453Zm3.307-6.51 1.103-2.17-.892-.453-1.102 2.17.892.453Zm.364-1.991c.499.362 1.019.704 1.56 1.026l.512-.859a19.806 19.806 0 0 1-1.485-.977l-.587.81Zm4.902 2.665a27.16 27.16 0 0 0 1.748.626l.306-.952a26.176 26.176 0 0 1-1.684-.603l-.37.929Zm1.748.626c.621.2 1.244.374 1.869.524l.234-.972c-.6-.144-1.2-.312-1.797-.504l-.306.952Zm5.702 1.137c.645.051 1.293.077 1.941.077v-1a23.4 23.4 0 0 1-1.862-.074l-.08.997Zm1.941.077c.628 0 1.228-.027 1.802-.08l-.093-.996c-.54.05-1.11.076-1.709.076v1Zm5.358-.893a8.586 8.586 0 0 0 1.645-.875l-.566-.824a7.577 7.577 0 0 1-1.453.771l.374.928Zm1.645-.875a6.8 6.8 0 0 0 1.12-.953l-.73-.684c-.271.29-.59.561-.956.813l.566.824Zm2.51-3.567a6.63 6.63 0 0 0 .157-1.465h-1c0 .443-.045.857-.132 1.245l.975.22Zm.157-1.465c0-.477-.044-.935-.134-1.372l-.98.202c.076.365.114.755.114 1.17h1Zm-1.353-3.87a6.226 6.226 0 0 0-1.019-.941l-.596.803c.33.244.614.507.857.79l.758-.652Zm-1.019-.941a6.914 6.914 0 0 0-1.733-.914l-.347.938a5.93 5.93 0 0 1 1.484.779l.596-.803Zm-5.437-1.643a25.012 25.012 0 0 0-1.86-.066v1c.631 0 1.226.021 1.785.063l.075-.997Zm-1.86-.066h-1.296v1h1.295v-1Zm-3.886 0H62.31v1h1.295v-1Zm-.795.5v-1.872h-1V29h1Zm0-5.617V21.51h-1v1.872h1Zm-.125-1.542 3.413-3.868-.75-.661-3.413 3.867.75.662Zm10.238-11.603 3.412-3.867-.75-.662-3.412 3.868.75.661Zm2.56-4.05.315 1.015.955-.296-.315-1.015-.955.296Zm.945 3.045.315 1.015.955-.296-.315-1.015-.955.296Zm.792.367H74.01v1h3.211v-1Zm-9.634 0h-6.422v1h6.422v-1Zm-12.845 0h-3.21v1h3.21v-1Zm-2.71.5V7.825h-1V10.1h1Zm0-6.825V1h-1v2.275h1Zm-.5-1.775h4.287v-1H51.53v1Zm12.862 0h8.575v-1h-8.575v1Zm17.15 0h4.287v-1h-4.287v1ZM85.33 1v1.837h1V1h-1Zm0 5.513V8.35h1V6.513h-1Zm.124 1.507-3.395 3.868.752.66 3.395-3.868-.752-.66ZM75.27 19.623l-3.395 3.867.752.66 3.395-3.868-.752-.66Zm-2.77 3.763-1.435-.822-.497.867 1.435.823.497-.868Zm-4.305-2.467-1.435-.823-.497.868 1.435.822.497-.867Zm-1.684.111h.823v-1h-.823v1Zm2.468 0h.822v-1h-.822v1Zm.822 0c1.261 0 2.454.06 3.58.18l.106-.995a34.862 34.862 0 0 0-3.686-.185v1Zm10.404 2.008a13.196 13.196 0 0 1 2.916 1.928l.66-.752a14.198 14.198 0 0 0-3.135-2.074l-.44.898Zm2.916 1.928a13.77 13.77 0 0 1 1.935 2.076l.8-.6a14.775 14.775 0 0 0-2.075-2.228l-.66.752Zm4.192 7.218c.172.899.258 1.844.258 2.836h1c0-1.05-.091-2.059-.276-3.024l-.982.188Zm.258 2.836c0 .667-.044 1.323-.131 1.969l.99.134c.094-.691.141-1.392.141-2.103h-1Zm-1.194 5.756c-.26.594-.561 1.18-.905 1.758l.859.512c.365-.613.686-1.236.962-1.87l-.916-.4Zm-.903 1.754c-.37.609-.793 1.188-1.269 1.738l.757.654c.511-.59.967-1.215 1.367-1.872l-.855-.52Zm-4.55 4.545c-.59.381-1.222.74-1.896 1.078l.447.894c.704-.352 1.368-.73 1.992-1.132l-.542-.84Zm-1.896 1.078a17.51 17.51 0 0 1-2.663 1.058l.296.955a18.503 18.503 0 0 0 2.814-1.119l-.447-.894Zm-8.347 2.08a38.35 38.35 0 0 1-2.91.107v1c1.035 0 2.03-.036 2.986-.109l-.076-.997Zm-13.06-.723-.267.964.012.003.255-.967Zm-8.54-3.92-.891-.453-.388.764.695.5.584-.811Zm4.41-8.68.587-.81-.948-.687-.53 1.044.891.453ZM60 40.13l-.305.952.305-.952Zm14.21-.49.566.825-.566-.825Zm.28-9.03-.596.803.596-.803ZM62.31 29h-1v1h1v-1Zm0-7.49-.75-.662-.25.284v.378h1ZM75.96 6.04l.955-.296-.527-1.7-1.178 1.334.75.662Zm1.26 4.06v1h1.358l-.403-1.296-.955.296Zm-25.69 0h-1v1h1v-1Zm0-9.1V0h-1v1h1Zm34.3 0h1V0h-1v1Zm0 7.35.752.66.248-.283V8.35h-1ZM72.25 23.82l-.497.868.71.406.539-.614-.752-.66Zm-5.74-3.29v-1h-3.755l3.258 1.868.497-.868Zm16.94 4.06-.66.751.66-.751Zm2.45 18.2.855.52.004-.008-.859-.512Zm-6.65 5.81-.447-.894.447.894Zm-11.48 1.24c-.834 0-1.667-.027-2.499-.082l-.13 1.996c.874.057 1.751.086 2.63.086v-2Zm-7.455-.734a39.923 39.923 0 0 1-2.44-.563l-.51 1.934c.852.225 1.706.422 2.561.591l.389-1.962Zm-2.427-.56c-.757-.21-1.486-.44-2.186-.687l-.668 1.885c.746.264 1.519.507 2.319.73l.535-1.927Zm-6.326-2.554c-.67-.38-1.302-.785-1.898-1.213L48.496 46.4c.656.473 1.35.916 2.08 1.33l.986-1.74Zm-1.59.051 1.102-2.17-1.783-.906-1.102 2.17 1.783.906Zm3.307-6.51 1.103-2.17-1.783-.906-1.103 2.17 1.783.906Zm-.376-1.813c.512.37 1.044.72 1.598 1.05l1.024-1.717c-.503-.3-.986-.617-1.448-.953l-1.174 1.62Zm5.011 2.724c.577.23 1.17.442 1.78.638l.612-1.904a25.67 25.67 0 0 1-1.652-.592l-.74 1.858Zm1.78.638c.633.203 1.268.381 1.905.534l.468-1.944a24.624 24.624 0 0 1-1.761-.494l-.611 1.904Zm5.815 1.16c.659.052 1.32.078 1.981.078v-2c-.609 0-1.216-.024-1.822-.072l-.159 1.993Zm1.981.078c.642 0 1.258-.027 1.849-.082l-.186-1.992c-.524.05-1.078.074-1.663.074v2Zm5.546-.93a9.076 9.076 0 0 0 1.74-.925l-1.131-1.65a7.086 7.086 0 0 1-1.358.72l.749 1.855Zm1.74-.925c.448-.307.85-.648 1.202-1.024l-1.459-1.368c-.245.262-.535.51-.874.742l1.13 1.65Zm2.715-3.87c.114-.505.17-1.03.17-1.575h-2c0 .409-.042.786-.121 1.134l1.95.442Zm.17-1.575c0-.508-.048-1-.145-1.473l-1.96.404c.069.33.104.685.104 1.069h2Zm-1.475-4.196a6.733 6.733 0 0 0-1.1-1.017l-1.192 1.606c.302.224.559.462.775.714l1.517-1.303Zm-1.1-1.017a7.416 7.416 0 0 0-1.858-.981l-.694 1.875a5.43 5.43 0 0 1 1.36.712l1.192-1.606Zm-5.698-1.74c-.6-.045-1.233-.067-1.898-.067v2c.621 0 1.204.02 1.749.061l.149-1.994ZM67.49 28h-1.295v2h1.295v-2Zm-3.885 0H62.31v2h1.295v-2Zm-.295 1v-1.872h-2V29h2Zm0-5.617V21.51h-2v1.872h2Zm-.25-1.211 3.412-3.868-1.5-1.323-3.412 3.867 1.5 1.324Zm10.237-11.603 3.413-3.867-1.5-1.324-3.412 3.868 1.5 1.323Zm1.708-4.233.315 1.015 1.91-.592-.315-1.015-1.91.592Zm.945 3.045.315 1.015 1.91-.592-.315-1.015-1.91.592Zm1.27-.281H74.01v2h3.211v-2Zm-9.634 0h-6.422v2h6.422v-2Zm-12.845 0h-3.21v2h3.21v-2Zm-2.21 1V7.825h-2V10.1h2Zm0-6.825V1h-2v2.275h2ZM51.53 2h4.287V0H51.53v2Zm12.862 0h8.575V0h-8.575v2Zm17.15 0h4.287V0h-4.287v2Zm3.287-1v1.837h2V1h-2Zm0 5.512V8.35h2V6.513h-2Zm.249 1.178-3.395 3.868 1.503 1.32 3.395-3.868-1.503-1.32ZM74.894 19.293l-3.395 3.867 1.503 1.32 3.395-3.868-1.503-1.32Zm-2.147 3.66-1.434-.823-.995 1.735 1.435.823.995-1.736Zm-4.305-2.468-1.434-.823-.995 1.736 1.435.822.995-1.735ZM66.51 21.53h.823v-2h-.823v2Zm2.468 0h.822v-2h-.822v2Zm.822 0c1.246 0 2.421.06 3.527.177l.212-1.989a35.376 35.376 0 0 0-3.739-.188v2Zm10.184 1.957a12.698 12.698 0 0 1 2.806 1.854l1.32-1.502a14.701 14.701 0 0 0-3.245-2.148l-.88 1.796Zm2.806 1.854a13.274 13.274 0 0 1 1.865 2.001l1.6-1.2a15.276 15.276 0 0 0-2.145-2.303l-1.32 1.502Zm4.03 6.937c.166.865.25 1.779.25 2.742h2c0-1.08-.094-2.12-.285-3.118l-1.964.376Zm.25 2.742c0 .645-.042 1.279-.127 1.902l1.982.268a16.15 16.15 0 0 0 .145-2.17h-2Zm-1.153 5.556c-.25.575-.542 1.142-.876 1.702l1.718 1.024c.376-.63.707-1.273.992-1.927l-1.834-.799Zm-.871 1.695c-.356.584-.762 1.14-1.22 1.67l1.513 1.308a14.348 14.348 0 0 0 1.416-1.94l-1.71-1.038Zm-4.393 4.384a19.44 19.44 0 0 1-1.85 1.05l.894 1.79c.72-.36 1.4-.747 2.04-1.16l-1.084-1.68Zm-1.85 1.05c-.793.397-1.654.74-2.586 1.028l.59 1.911c1.028-.318 1.992-.7 2.89-1.15l-.894-1.788Zm-8.161 2.03c-.915.07-1.872.105-2.872.105v2a39.85 39.85 0 0 0 3.023-.11l-.151-1.995Z" fill="#fff"/></svg>