<svg width="99" height="51" fill="none" xmlns="http://www.w3.org/2000/svg"><path d="M21.894 50.84c-4.013 0-7.606-.98-10.78-2.94-3.173-2.007-5.67-4.9-7.49-8.68-1.82-3.78-2.73-8.353-2.73-13.72 0-5.367.91-9.94 2.73-13.72 1.82-3.78 4.317-6.65 7.49-8.61C14.288 1.163 17.881.16 21.894.16c4.06 0 7.654 1.003 10.78 3.01 3.174 1.96 5.67 4.83 7.49 8.61 1.82 3.78 2.73 8.353 2.73 13.72 0 5.367-.91 9.94-2.73 13.72-1.82 3.78-4.316 6.673-7.49 8.68-3.126 1.96-6.72 2.94-10.78 2.94Zm0-9.59c1.914 0 3.57-.537 4.97-1.61 1.447-1.073 2.567-2.777 3.36-5.11.84-2.333 1.26-5.343 1.26-9.03 0-3.687-.42-6.697-1.26-9.03-.793-2.333-1.913-4.037-3.36-5.11-1.4-1.073-3.056-1.61-4.97-1.61-1.866 0-3.523.537-4.97 1.61-1.4 1.073-2.52 2.777-3.36 5.11-.793 2.333-1.19 5.343-1.19 9.03 0 3.687.397 6.697 1.19 9.03.84 2.333 1.96 4.037 3.36 5.11 1.447 1.073 3.104 1.61 4.97 1.61Zm30.85-1.54v-7.63L75.844 1h11.9l-22.61 31.08-5.53-1.61h38.57v9.24h-45.43ZM79.134 50V39.71l.35-9.24V21.3h10.71V50h-11.06Z" fill="#fff" fill-opacity=".1"/><path d="m11.114 47.9-.267.423.005.002.262-.425Zm-7.49-8.68-.45.217.45-.217Zm0-27.44.45.217-.45-.217Zm7.49-8.61.263.425.005-.002-.268-.423Zm21.56 0-.27.42.007.005.263-.425Zm7.49 8.61-.45.217.45-.217Zm0 27.44-.45-.217.45.217Zm-7.49 8.68.266.424.002-.001-.268-.423Zm-5.81-8.26-.298-.402-.006.005.304.397Zm3.36-5.11-.47-.17-.003.009.473.161Zm0-18.06-.473.161.003.008.47-.169Zm-3.36-5.11-.304.397.006.005.298-.402Zm-9.94 0-.298-.402-.006.005.304.397Zm-3.36 5.11-.47-.17-.003.009.473.161Zm0 18.06-.473.161.003.008.47-.169Zm3.36 5.11-.304.397.006.005.298-.402Zm4.97 10.7c-.946 0-1.866-.056-2.762-.166l-.123.992c.938.116 1.9.174 2.885.174v-1Zm-8.074-1.592a18.83 18.83 0 0 1-2.443-1.273l-.526.85c.83.512 1.687.96 2.573 1.341l.396-.918Zm-2.438-1.27a18.354 18.354 0 0 1-2.265-1.69l-.658.754c.75.654 1.546 1.248 2.388 1.78l.535-.845ZM5.454 41.49a23.983 23.983 0 0 1-1.38-2.487l-.9.434c.44.913.918 1.777 1.437 2.59l.843-.537Zm-1.38-2.487a23.861 23.861 0 0 1-1.262-3.212l-.954.3c.369 1.174.807 2.29 1.316 3.346l.9-.434Zm-2.541-10.02a42.472 42.472 0 0 1-.139-3.483h-1c0 1.228.047 2.416.142 3.564l.997-.082ZM1.394 25.5c0-1.202.046-2.363.139-3.482l-.997-.082A43.472 43.472 0 0 0 .394 25.5h1Zm1.418-10.291c.355-1.13.776-2.201 1.263-3.212l-.901-.434a24.852 24.852 0 0 0-1.316 3.346l.954.3Zm1.263-3.212c.422-.877.88-1.702 1.375-2.476l-.843-.538c-.517.81-.995 1.67-1.433 2.58l.9.434Zm5.034-6.74a17.796 17.796 0 0 1 2.268-1.662l-.526-.85a18.8 18.8 0 0 0-2.394 1.754l.652.757Zm2.273-1.664a18.68 18.68 0 0 1 2.434-1.3l-.404-.915c-.883.39-1.738.847-2.565 1.37l.535.845ZM19.128.83C20.025.717 20.947.66 21.894.66v-1c-.987 0-1.952.06-2.892.179l.126.992ZM21.894.66c.95 0 1.874.056 2.769.168l.124-.992a23.311 23.311 0 0 0-2.893-.176v1Zm8.082 1.622c.839.372 1.648.808 2.428 1.309l.54-.842a18.997 18.997 0 0 0-2.563-1.381l-.405.914Zm2.435 1.313a17.79 17.79 0 0 1 2.268 1.661l.653-.757a18.798 18.798 0 0 0-2.395-1.754l-.526.85Zm5.928 5.926c.494.774.953 1.6 1.375 2.476l.9-.434c-.438-.91-.915-1.77-1.432-2.58l-.843.538Zm1.375 2.476a23.87 23.87 0 0 1 1.262 3.212l.954-.3a24.848 24.848 0 0 0-1.315-3.346l-.901.434Zm2.542 10.02c.092 1.12.138 2.28.138 3.483h1a43.47 43.47 0 0 0-.141-3.564l-.997.082Zm.138 3.483c0 1.202-.046 2.363-.138 3.482l.997.082a43.47 43.47 0 0 0 .141-3.564h-1Zm-1.418 10.291a23.87 23.87 0 0 1-1.262 3.212l.9.434a24.853 24.853 0 0 0 1.316-3.346l-.954-.3Zm-1.262 3.212c-.424.88-.883 1.708-1.38 2.487l.843.538a24.99 24.99 0 0 0 1.438-2.591l-.901-.434Zm-5.042 6.786c-.711.62-1.466 1.183-2.265 1.688l.535.846a19.353 19.353 0 0 0 2.387-1.781l-.657-.753Zm-2.263 1.687a18.13 18.13 0 0 1-2.436 1.282l.396.918a19.13 19.13 0 0 0 2.57-1.352l-.53-.848Zm-7.75 2.7c-.894.11-1.816.164-2.765.164v1c.988 0 1.95-.057 2.886-.17l-.121-.994Zm-2.765-9.426c-.43 0-.848-.03-1.252-.09l-.146.99c.455.067.92.1 1.398.1v-1Zm-3.614-.849a7.796 7.796 0 0 1-1.058-.663l-.596.803c.383.285.78.534 1.194.748l.46-.888Zm-1.052-.658a7.16 7.16 0 0 1-1.049-.995l-.755.655c.372.43.77.808 1.196 1.134l.608-.794Zm-2.623-3.491a16.465 16.465 0 0 1-.57-1.391l-.941.338c.187.521.389 1.013.605 1.476l.906-.423Zm-.567-1.383a17.946 17.946 0 0 1-.575-2.147l-.98.202c.167.81.37 1.566.608 2.267l.947-.322Zm-1.11-6.608a45.172 45.172 0 0 1-.054-2.261h-1c0 .801.019 1.572.056 2.311l.999-.05Zm-.054-2.261c0-.786.018-1.54.055-2.261l-.999-.05c-.037.74-.056 1.51-.056 2.311h1Zm.588-6.722c.16-.775.352-1.49.576-2.147l-.947-.322c-.238.7-.44 1.456-.608 2.267l.98.202Zm.573-2.139c.178-.494.368-.958.57-1.39l-.906-.424c-.216.463-.418.955-.605 1.476l.94.338Zm2.144-3.887a7.16 7.16 0 0 1 1.05-.995l-.609-.794a8.157 8.157 0 0 0-1.196 1.134l.755.655Zm1.043-.99a7.805 7.805 0 0 1 1.058-.663l-.46-.888a8.81 8.81 0 0 0-1.194.747l.596.803Zm3.42-1.422c.404-.06.822-.09 1.252-.09v-1c-.477 0-.943.033-1.398.1l.146.99Zm1.252-.09c.435 0 .853.03 1.256.087l.142-.99a9.855 9.855 0 0 0-1.398-.097v1Zm3.619.837c.364.19.713.414 1.047.67l.609-.794a8.205 8.205 0 0 0-1.193-.762l-.463.886Zm1.053.675c.376.278.73.605 1.063.98l.749-.663a7.97 7.97 0 0 0-1.216-1.12l-.596.803Zm2.634 3.471c.198.435.382.9.55 1.398l.948-.322a16.122 16.122 0 0 0-.588-1.49l-.91.414Zm.554 1.406c.235.654.438 1.367.607 2.14l.977-.215a18.114 18.114 0 0 0-.643-2.263l-.941.338Zm1.172 6.598c.039.722.058 1.477.058 2.263h1c0-.803-.02-1.575-.059-2.316l-.999.053Zm.058 2.263c0 .786-.02 1.54-.058 2.263l.999.053c.04-.741.06-1.513.06-2.316h-1Zm-.623 6.722a17.107 17.107 0 0 1-.607 2.139l.94.338c.253-.7.467-1.454.644-2.264l-.977-.213Zm-.61 2.147c-.17.497-.353.963-.55 1.398l.91.414c.212-.467.408-.964.587-1.49l-.947-.322Zm-2.122 3.889a6.958 6.958 0 0 1-1.063.98l.596.803c.435-.322.84-.696 1.216-1.12l-.749-.663Zm-1.069.985c-.334.256-.683.48-1.047.67l.463.886a8.205 8.205 0 0 0 1.193-.762l-.609-.794Zm-3.41 1.42a8.862 8.862 0 0 1-1.256.087v1c.48 0 .945-.032 1.398-.097l-.142-.99ZM11.114 47.9l-.534.845.009.006.525-.851Zm-7.49-8.68-.9.434.9-.434Zm0-27.44.901.434-.9-.434Zm7.49-8.61.526.85.009-.005-.535-.845Zm21.56 0-.54.842.007.004.008.005.525-.851Zm7.49 8.61-.9.434.9-.434Zm0 27.44-.9-.434.9.434Zm-7.49 8.68.531.847.004-.002-.535-.845Zm-5.81-8.26-.596-.803-.006.005-.006.004.608.794Zm3.36-5.11-.94-.339-.004.009-.003.008.947.322Zm0-18.06-.947.322.003.008.003.009.941-.339Zm-3.36-5.11-.608.794.006.004.006.005.596-.803Zm-9.94 0-.596-.803-.006.005-.006.004.608.794Zm-3.36 5.11-.94-.339-.004.009-.002.008.946.322Zm0 18.06-.947.322.003.008.003.009.941-.339Zm3.36 5.11-.608.794.006.004.006.005.596-.803Zm4.97 10.2a21.98 21.98 0 0 1-2.7-.163l-.246 1.985c.96.119 1.942.178 2.946.178v-2Zm-7.876-1.55a18.32 18.32 0 0 1-2.378-1.24l-1.051 1.7c.85.526 1.729.984 2.637 1.376l.792-1.837Zm-2.37-1.235a17.858 17.858 0 0 1-2.202-1.643L8.13 46.919c.77.67 1.586 1.28 2.45 1.826l1.069-1.69ZM5.877 41.22a23.475 23.475 0 0 1-1.35-2.435l-1.803.868c.448.93.937 1.81 1.466 2.642l1.687-1.075Zm-1.35-2.435a23.363 23.363 0 0 1-1.237-3.145l-1.908.6a25.356 25.356 0 0 0 1.342 3.413l1.802-.868ZM2.03 28.941a41.974 41.974 0 0 1-.137-3.441h-2c0 1.24.048 2.442.144 3.605l1.993-.164ZM1.894 25.5c0-1.19.046-2.337.137-3.441l-1.993-.164A43.97 43.97 0 0 0-.106 25.5h2ZM3.29 15.358c.348-1.108.76-2.156 1.236-3.144l-1.802-.868a25.356 25.356 0 0 0-1.342 3.414l1.908.598Zm1.236-3.144c.414-.86.863-1.667 1.346-2.423L4.185 8.714a25.156 25.156 0 0 0-1.462 2.632l1.802.868Zm4.91-6.579a17.289 17.289 0 0 1 2.205-1.614l-1.051-1.702A19.293 19.293 0 0 0 8.13 4.12l1.306 1.515Zm2.214-1.62a18.186 18.186 0 0 1 2.37-1.265l-.81-1.83c-.905.4-1.782.869-2.63 1.405l1.07 1.69Zm7.542-2.688a21.45 21.45 0 0 1 2.703-.167v-2c-1.008 0-1.993.06-2.955.183l.252 1.984Zm2.703-.167c.931 0 1.833.055 2.707.164l.248-1.984a23.81 23.81 0 0 0-2.955-.18v2Zm7.88 1.58a17.49 17.49 0 0 1 2.36 1.272l1.08-1.684a19.495 19.495 0 0 0-2.63-1.417l-.81 1.828Zm2.375 1.28c.778.481 1.512 1.02 2.204 1.615l1.305-1.515a19.297 19.297 0 0 0-2.458-1.8l-1.051 1.7Zm5.769 5.77c.483.757.931 1.564 1.345 2.424l1.802-.868a25.17 25.17 0 0 0-1.462-2.632L37.918 9.79Zm1.345 2.424c.476.988.888 2.036 1.236 3.144l1.908-.598a25.358 25.358 0 0 0-1.342-3.414l-1.802.868Zm2.495 9.845c.09 1.104.136 2.251.136 3.441h2c0-1.24-.047-2.442-.143-3.605l-1.993.164Zm.136 3.441c0 1.19-.045 2.337-.136 3.441l1.993.164c.096-1.163.143-2.364.143-3.605h-2ZM40.5 35.642a23.364 23.364 0 0 1-1.236 3.144l1.802.868c.52-1.08.967-2.218 1.342-3.414l-1.908-.599Zm-1.236 3.144a23.49 23.49 0 0 1-1.35 2.435l1.686 1.075a25.485 25.485 0 0 0 1.466-2.642l-1.802-.868Zm-4.92 6.626a17.845 17.845 0 0 1-2.203 1.643l1.069 1.69a19.846 19.846 0 0 0 2.45-1.826l-1.316-1.507Zm-2.2 1.64c-.76.478-1.55.893-2.369 1.247l.794 1.836a19.634 19.634 0 0 0 2.637-1.388l-1.062-1.694Zm-7.545 2.628c-.873.106-1.774.16-2.704.16v2c1.007 0 1.989-.058 2.946-.175l-.242-1.985Zm-2.704-9.43c-.407 0-.8-.029-1.178-.084l-.293 1.978c.48.071.97.106 1.471.106v-2Zm-3.384-.793a7.305 7.305 0 0 1-.99-.62l-1.192 1.606c.404.3.824.563 1.261.79l.921-1.776Zm-.977-.61a6.66 6.66 0 0 1-.976-.927l-1.51 1.311c.392.453.815.855 1.269 1.203l1.217-1.588Zm-2.475-3.307c-.195-.418-.38-.867-.553-1.349l-1.882.678c.193.533.4 1.04.623 1.517l1.812-.846Zm-.547-1.332a17.45 17.45 0 0 1-.559-2.087l-1.959.404c.171.828.379 1.605.624 2.327l1.894-.644Zm-1.083-6.472a44.609 44.609 0 0 1-.054-2.236h-2c0 .809.019 1.587.057 2.336l1.997-.1Zm-.054-2.236c0-.778.018-1.523.054-2.236l-1.997-.1a46.631 46.631 0 0 0-.057 2.336h2Zm.578-6.62a17.45 17.45 0 0 1 .559-2.088l-1.893-.644a19.428 19.428 0 0 0-.625 2.327l1.96.404Zm.553-2.071c.173-.482.358-.931.553-1.35l-1.812-.845c-.223.477-.43.984-.623 1.517l1.882.678Zm2.052-3.73a6.66 6.66 0 0 1 .976-.925l-1.217-1.588c-.454.348-.877.75-1.27 1.203l1.51 1.31Zm.963-.916c.32-.238.65-.444.99-.62l-.92-1.776c-.438.227-.858.49-1.262.79l1.192 1.606Zm3.196-1.329a8.045 8.045 0 0 1 1.178-.084v-2c-.5 0-.991.035-1.471.106l.293 1.979Zm1.178-.084c.412 0 .807.028 1.185.082l.283-1.98a10.358 10.358 0 0 0-1.468-.102v2Zm3.387.78c.338.177.663.385.975.624l1.217-1.588a8.696 8.696 0 0 0-1.265-.808l-.927 1.773Zm.987.633c.347.257.676.56.987.91l1.497-1.325a8.462 8.462 0 0 0-1.292-1.191l-1.192 1.606Zm2.477 3.277c.19.419.368.869.532 1.352l1.894-.644a16.613 16.613 0 0 0-.605-1.536l-1.82.829Zm.538 1.369c.228.631.424 1.323.59 2.076l1.953-.427a18.6 18.6 0 0 0-.66-2.327l-1.883.678Zm1.144 6.455c.038.712.057 1.458.057 2.236h2c0-.81-.02-1.592-.06-2.343l-1.997.107Zm.057 2.236c0 .778-.019 1.524-.057 2.236l1.997.107c.04-.751.06-1.532.06-2.343h-2Zm-.612 6.615a16.63 16.63 0 0 1-.589 2.076l1.882.678a18.6 18.6 0 0 0 .661-2.327l-1.954-.427Zm-.595 2.093c-.164.483-.341.933-.532 1.352l1.82.828c.22-.484.422-.996.606-1.536l-1.893-.644Zm-2.022 3.718c-.31.351-.64.654-.987.91l1.192 1.607a8.458 8.458 0 0 0 1.292-1.19l-1.497-1.327Zm-1 .92c-.311.24-.636.447-.974.623l.927 1.773c.442-.231.863-.5 1.265-.808l-1.217-1.588Zm-3.176 1.322a8.356 8.356 0 0 1-1.185.082v2c.502 0 .991-.034 1.468-.102l-.283-1.98Zm29.665-.458h-.5v.5h.5v-.5Zm0-7.63-.401-.298-.099.133v.165h.5ZM75.844 1V.5h-.251l-.15.202.401.298Zm11.9 0 .404.294.578-.794h-.982V1Zm-22.61 31.08-.14.48.338.098.206-.284-.404-.294Zm-5.53-1.61v-.5l-.14.98.14-.48Zm38.57 0h.5v-.5h-.5v.5Zm0 9.24v.5h.5v-.5h-.5ZM79.134 50h-.5v.5h.5V50Zm0-10.29-.5-.019v.019h.5Zm.35-9.24.5.019v-.019h-.5Zm0-9.17v-.5h-.5v.5h.5Zm10.71 0h.5v-.5h-.5v.5Zm0 28.7v.5h.5V50h-.5Zm-36.95-10.29v-1.907h-1v1.907h1Zm0-5.723V32.08h-1v1.907h1Zm-.099-1.609 2.888-3.885-.803-.596-2.887 3.885.802.596Zm8.663-11.655 5.775-7.77-.803-.596-5.775 7.77.803.596Zm11.55-15.54 2.887-3.885-.802-.596-2.888 3.885.803.596ZM75.844 1.5h2.975v-1h-2.975v1Zm8.925 0h2.975v-1h-2.975v1Zm2.57-.794L84.514 4.59l.81.588 2.825-3.885-.808-.588ZM78.862 12.36l-5.653 7.77.81.588 5.652-7.77-.81-.588ZM67.556 27.9l-2.826 3.885.808.588 2.827-3.885-.81-.588ZM65.274 31.6l-1.383-.403-.28.96 1.383.403.28-.96Zm-4.148-1.208-1.382-.402-.28.96 1.383.403.28-.96Zm-1.522.578h4.821v-1h-4.821v1Zm14.464 0h9.642v-1h-9.642v1Zm19.285 0h4.821v-1h-4.821v1Zm4.321-.5v2.31h1v-2.31h-1Zm0 6.93v2.31h1V37.4h-1Zm.5 1.81h-3.786v1h3.786v-1Zm-11.358 0h-7.571v1h7.572v-1Zm-15.143 0h-7.572v1h7.572v-1Zm-15.143 0h-3.786v1h3.786v-1ZM79.634 50v-2.572h-1V50h1Zm0-7.718V39.71h-1v2.572h1Zm0-2.553.087-2.31-1-.038-.087 2.31 1 .038Zm.262-6.93.088-2.31-1-.038-.087 2.31 1 .038Zm.088-2.329v-2.293h-1v2.293h1Zm0-6.877V21.3h-1v2.293h1Zm-.5-1.793h2.678v-1h-2.678v1Zm8.032 0h2.678v-1h-2.678v1Zm2.178-.5v3.587h1V21.3h-1Zm0 10.762v7.175h1v-7.175h-1Zm0 14.35V50h1v-3.587h-1Zm.5 3.088h-2.765v1h2.765v-1Zm-8.295 0h-2.765v1h2.765v-1Zm-29.155-9.79h-1v1h1v-1Zm0-7.63-.803-.596-.197.265v.331h1ZM75.844 1V0h-.503l-.3.403.803.597Zm11.9 0 .809.588L89.708 0h-1.964v1Zm-22.61 31.08-.28.96.675.197.414-.569-.809-.588Zm-5.53-1.61v-1l-.28 1.96.28-.96Zm38.57 0h1v-1h-1v1Zm0 9.24v1h1v-1h-1ZM79.134 50h-1v1h1v-1Zm0-10.29-1-.038v.038h1Zm.35-9.24 1 .038v-.038h-1Zm0-9.17v-1h-1v1h1Zm10.71 0h1v-1h-1v1Zm0 28.7v1h1v-1h-1Zm-36.45-10.29v-1.907h-2v1.907h2Zm0-5.723V32.08h-2v1.907h2Zm-.197-1.31 2.887-3.886L54.83 27.6l-2.888 3.884 1.606 1.193Zm8.662-11.655 5.775-7.77-1.605-1.194-5.775 7.77 1.605 1.194Zm11.55-15.54 2.888-3.885L75.04.403l-2.887 3.885 1.605 1.194ZM75.844 2h2.975V0h-2.975v2Zm8.925 0h2.975V0h-2.975v2ZM86.935.412 84.11 4.297l1.617 1.176 2.827-3.885L86.935.412Zm-8.478 11.655-5.653 7.77 1.617 1.176 5.653-7.77-1.617-1.176Zm-11.305 15.54-2.827 3.885 1.618 1.176 2.826-3.885-1.617-1.176Zm-1.738 3.513-1.383-.403-.559 1.92 1.383.403.559-1.92Zm-4.148-1.208-1.382-.402-.56 1.92 1.383.403.56-1.92Zm-1.662 1.558h4.821v-2h-4.821v2Zm14.464 0h9.642v-2h-9.642v2Zm19.285 0h4.821v-2h-4.821v2Zm3.821-1v2.31h2v-2.31h-2Zm0 6.93v2.31h2V37.4h-2Zm1 1.31h-3.786v2h3.786v-2Zm-11.358 0h-7.571v2h7.572v-2Zm-15.143 0h-7.572v2h7.572v-2Zm-15.143 0h-3.786v2h3.786v-2ZM80.134 50v-2.572h-2V50h2Zm0-7.718V39.71h-2v2.572h2Zm0-2.534.087-2.31-1.999-.076-.087 2.31 1.998.076Zm.262-6.93.087-2.31-1.998-.076-.088 2.31 1.999.076Zm.088-2.348v-2.293h-2v2.293h2Zm0-6.877V21.3h-2v2.293h2Zm-1-1.293h2.678v-2h-2.678v2Zm8.032 0h2.678v-2h-2.678v2Zm1.678-1v3.587h2V21.3h-2Zm0 10.762v7.175h2v-7.175h-2Zm0 14.35V50h2v-3.587h-2Zm1 2.588h-2.765v2h2.765v-2Zm-8.295 0h-2.765v2h2.765v-2Z" fill="#fff"/></svg>