<svg width="90" height="51" fill="none" xmlns="http://www.w3.org/2000/svg"><path d="M21.21 50.84c-4.014 0-7.607-.98-10.78-2.94-3.174-2.007-5.67-4.9-7.49-8.68C1.12 35.44.21 30.867.21 25.5c0-5.367.91-9.94 2.73-13.72C4.76 8 7.256 5.13 10.43 3.17 13.603 1.163 17.196.16 21.21.16c4.06 0 7.653 1.003 10.78 3.01 3.173 1.96 5.67 4.83 7.49 8.61 1.82 3.78 2.73 8.353 2.73 13.72 0 5.367-.91 9.94-2.73 13.72-1.82 3.78-4.317 6.673-7.49 8.68-3.127 1.96-6.72 2.94-10.78 2.94Zm0-9.59c1.913 0 3.57-.537 4.97-1.61 1.446-1.073 2.566-2.777 3.36-5.11.84-2.333 1.26-5.343 1.26-9.03 0-3.687-.42-6.697-1.26-9.03-.794-2.333-1.914-4.037-3.36-5.11-1.4-1.073-3.057-1.61-4.97-1.61-1.867 0-3.524.537-4.97 1.61-1.4 1.073-2.52 2.777-3.36 5.11-.794 2.333-1.19 5.343-1.19 9.03 0 3.687.396 6.697 1.19 9.03.84 2.333 1.96 4.037 3.36 5.11 1.446 1.073 3.103 1.61 4.97 1.61Zm48.07 9.59c-3.407 0-6.79-.443-10.15-1.33-3.314-.933-6.16-2.24-8.54-3.92l4.48-8.68c1.866 1.353 4.013 2.427 6.44 3.22A24.39 24.39 0 0 0 69 41.32c2.846 0 5.086-.56 6.72-1.68 1.633-1.12 2.45-2.683 2.45-4.69 0-1.26-.327-2.38-.98-3.36-.654-.98-1.82-1.727-3.5-2.24-1.634-.513-3.944-.77-6.93-.77H54.23L56.75 1h29.89v9.1H60.81l5.88-5.18-1.75 19.67-5.88-5.18h10.36c4.853 0 8.75.677 11.69 2.03 2.986 1.307 5.156 3.103 6.51 5.39 1.353 2.287 2.03 4.877 2.03 7.77s-.724 5.577-2.17 8.05c-1.447 2.427-3.687 4.41-6.72 5.95-2.987 1.493-6.814 2.24-11.48 2.24Z" fill="#fff" fill-opacity=".1"/><path d="m10.43 47.9-.268.423.005.002.263-.425Zm-7.49-8.68-.45.217.45-.217Zm0-27.44.45.217-.45-.217Zm7.49-8.61.262.425.005-.002-.267-.423Zm21.56 0-.27.42.007.005.263-.425Zm7.49 8.61-.45.217.45-.217Zm0 27.44-.45-.217.45.217Zm-7.49 8.68.265.424.002-.001-.267-.423Zm-5.81-8.26-.298-.402-.007.005.305.397Zm3.36-5.11-.47-.17-.004.009.474.161Zm0-18.06-.474.161.003.008.47-.169Zm-3.36-5.11-.305.397.007.005.298-.402Zm-9.94 0-.298-.402-.007.005.305.397Zm-3.36 5.11-.47-.17-.004.009.474.161Zm0 18.06-.474.161.003.008.47-.169Zm3.36 5.11-.305.397.007.005.298-.402Zm4.97 10.7c-.946 0-1.867-.056-2.763-.166l-.122.992c.938.116 1.9.174 2.885.174v-1Zm-8.075-1.592a18.83 18.83 0 0 1-2.443-1.273l-.525.85c.829.512 1.687.96 2.572 1.341l.396-.918Zm-2.438-1.27a18.354 18.354 0 0 1-2.265-1.69l-.657.754c.75.654 1.545 1.248 2.387 1.78l.535-.845ZM4.77 41.49a23.98 23.98 0 0 1-1.38-2.487l-.9.434c.439.913.918 1.777 1.436 2.59l.844-.537Zm-1.38-2.487a23.861 23.861 0 0 1-1.262-3.212l-.954.3c.368 1.174.806 2.29 1.315 3.346l.901-.434ZM.848 28.983A42.473 42.473 0 0 1 .71 25.5h-1c0 1.228.047 2.416.141 3.564l.997-.082ZM.71 25.5c0-1.202.046-2.363.138-3.482l-.997-.082A43.472 43.472 0 0 0-.29 25.5h1Zm1.418-10.291c.355-1.13.775-2.201 1.262-3.212l-.9-.434a24.852 24.852 0 0 0-1.316 3.346l.954.3Zm1.262-3.212c.422-.877.88-1.702 1.375-2.476l-.843-.538c-.517.81-.994 1.67-1.433 2.58l.901.434Zm5.035-6.74a17.797 17.797 0 0 1 2.267-1.662l-.525-.85a18.798 18.798 0 0 0-2.395 1.754l.653.757Zm2.272-1.664a18.68 18.68 0 0 1 2.435-1.3l-.405-.915c-.883.39-1.738.847-2.565 1.37l.535.845ZM18.443.83C19.34.717 20.263.66 21.21.66v-1c-.988 0-1.952.06-2.893.179l.126.992ZM21.21.66c.95 0 1.873.056 2.768.168l.124-.992A23.313 23.313 0 0 0 21.21-.34v1Zm8.082 1.622c.838.372 1.648.808 2.428 1.309l.54-.842a18.998 18.998 0 0 0-2.563-1.381l-.405.914Zm2.435 1.313c.8.495 1.556 1.048 2.268 1.661l.652-.757a18.791 18.791 0 0 0-2.395-1.754l-.525.85Zm5.927 5.926c.495.774.953 1.6 1.375 2.476l.901-.434c-.438-.91-.916-1.77-1.433-2.58l-.843.538Zm1.375 2.476a23.87 23.87 0 0 1 1.263 3.212l.954-.3a24.848 24.848 0 0 0-1.316-3.346l-.9.434Zm2.542 10.02c.093 1.12.139 2.28.139 3.483h1c0-1.228-.047-2.416-.142-3.564l-.997.082Zm.139 3.483c0 1.202-.047 2.363-.139 3.482l.997.082c.095-1.148.142-2.336.142-3.564h-1Zm-1.418 10.291a23.87 23.87 0 0 1-1.263 3.212l.901.434a24.853 24.853 0 0 0 1.316-3.346l-.954-.3Zm-1.263 3.212c-.423.88-.883 1.708-1.38 2.487l.844.538c.519-.814.998-1.678 1.437-2.591l-.9-.434Zm-5.042 6.786c-.71.62-1.465 1.183-2.265 1.688l.535.846a19.338 19.338 0 0 0 2.388-1.781l-.658-.753Zm-2.263 1.687a18.13 18.13 0 0 1-2.436 1.282l.397.918a19.132 19.132 0 0 0 2.57-1.352l-.53-.848Zm-7.75 2.7a22.85 22.85 0 0 1-2.764.164v1c.987 0 1.949-.057 2.885-.17l-.12-.994ZM21.21 40.75c-.431 0-.848-.03-1.252-.09l-.146.99c.454.067.92.1 1.398.1v-1Zm-3.615-.849a7.797 7.797 0 0 1-1.057-.663l-.596.803c.383.285.78.534 1.193.748l.46-.888Zm-1.051-.658a7.159 7.159 0 0 1-1.05-.995l-.755.655c.372.43.771.808 1.196 1.134l.609-.794Zm-2.623-3.491a16.499 16.499 0 0 1-.57-1.391l-.942.338c.188.521.39 1.013.606 1.476l.906-.423Zm-.568-1.383a17.927 17.927 0 0 1-.575-2.147l-.98.202c.168.81.37 1.566.608 2.267l.947-.322Zm-1.109-6.608a45.05 45.05 0 0 1-.054-2.261h-1c0 .801.018 1.572.055 2.311l1-.05ZM12.19 25.5c0-.786.018-1.54.054-2.261l-.999-.05c-.037.74-.055 1.51-.055 2.311h1Zm.588-6.722c.16-.775.352-1.49.575-2.147l-.947-.322c-.238.7-.44 1.456-.607 2.267l.979.202Zm.572-2.139c.178-.494.368-.958.57-1.39l-.905-.424a17.5 17.5 0 0 0-.606 1.476l.941.338Zm2.145-3.887a7.159 7.159 0 0 1 1.049-.995l-.609-.794a8.153 8.153 0 0 0-1.196 1.134l.756.655Zm1.043-.99a7.806 7.806 0 0 1 1.057-.663l-.46-.888c-.413.214-.81.463-1.193.747l.596.803Zm3.42-1.422c.404-.06.821-.09 1.252-.09v-1c-.478 0-.944.033-1.398.1l.146.99Zm1.252-.09c.434 0 .853.03 1.255.087l.142-.99a9.857 9.857 0 0 0-1.397-.097v1Zm3.618.837c.364.19.713.414 1.047.67l.609-.794a8.21 8.21 0 0 0-1.193-.762l-.463.886Zm1.054.675c.376.278.73.605 1.063.98l.748-.663a7.97 7.97 0 0 0-1.215-1.12l-.596.803Zm2.634 3.471c.198.435.381.9.55 1.398l.947-.322a16.15 16.15 0 0 0-.587-1.49l-.91.414Zm.553 1.406c.236.654.438 1.367.607 2.14l.977-.215a18.114 18.114 0 0 0-.643-2.263l-.94.338Zm1.173 6.598c.038.722.058 1.477.058 2.263h1c0-.803-.02-1.575-.06-2.316l-.998.053ZM30.3 25.5c0 .786-.02 1.54-.058 2.263l.998.053c.04-.741.06-1.513.06-2.316h-1Zm-.624 6.722a17.107 17.107 0 0 1-.607 2.139l.941.338c.252-.7.466-1.454.643-2.264l-.977-.213Zm-.61 2.147c-.169.497-.352.963-.55 1.398l.91.414c.213-.467.408-.964.587-1.49l-.947-.322Zm-2.121 3.889a6.963 6.963 0 0 1-1.063.98l.596.803c.434-.322.84-.696 1.215-1.12l-.748-.663Zm-1.07.985c-.334.256-.683.48-1.047.67l.463.886a8.21 8.21 0 0 0 1.193-.762l-.609-.794Zm-3.41 1.42a8.861 8.861 0 0 1-1.255.087v1c.479 0 .945-.032 1.397-.097l-.142-.99ZM10.43 47.9l-.535.845.01.006.525-.851Zm-7.49-8.68-.901.434.9-.434Zm0-27.44.9.434-.9-.434Zm7.49-8.61.525.85.01-.005-.535-.845Zm21.56 0-.54.842.007.004.007.005.526-.851Zm7.49 8.61-.901.434.9-.434Zm0 27.44-.901-.434.9.434Zm-7.49 8.68.53.847.004-.002-.534-.845Zm-5.81-8.26-.596-.803-.006.005-.007.004.609.794Zm3.36-5.11-.941-.339-.003.009-.003.008.947.322Zm0-18.06-.947.322.003.008.003.009.94-.339Zm-3.36-5.11-.609.794.006.004.007.005.596-.803Zm-9.94 0-.596-.803-.007.005-.006.004.609.794Zm-3.36 5.11-.941-.339-.003.009-.003.008.947.322Zm0 18.06-.947.322.003.008.003.009.94-.339Zm3.36 5.11-.609.794.006.004.007.005.596-.803Zm4.97 10.2c-.927 0-1.827-.054-2.701-.163l-.246 1.985c.96.119 1.942.178 2.947.178v-2Zm-7.877-1.55a18.32 18.32 0 0 1-2.378-1.24l-1.05 1.7c.849.526 1.728.984 2.636 1.376l.792-1.837Zm-2.369-1.235a17.854 17.854 0 0 1-2.203-1.643l-1.315 1.507c.769.67 1.585 1.28 2.45 1.826l1.068-1.69ZM5.191 41.22a23.475 23.475 0 0 1-1.35-2.435l-1.802.868c.447.93.936 1.81 1.466 2.642l1.686-1.075Zm-1.35-2.435a23.363 23.363 0 0 1-1.236-3.145l-1.908.6a25.356 25.356 0 0 0 1.342 3.413l1.802-.868Zm-2.495-9.845A41.974 41.974 0 0 1 1.21 25.5h-2c0 1.24.047 2.442.143 3.605l1.993-.164ZM1.21 25.5c0-1.19.045-2.337.136-3.441l-1.993-.164A43.97 43.97 0 0 0-.79 25.5h2Zm1.395-10.142c.348-1.108.76-2.156 1.236-3.144l-1.802-.868A25.356 25.356 0 0 0 .697 14.76l1.908.598Zm1.236-3.144c.413-.86.862-1.667 1.345-2.423L3.501 8.714a25.156 25.156 0 0 0-1.462 2.632l1.802.868Zm4.91-6.579a17.291 17.291 0 0 1 2.204-1.614l-1.05-1.702a19.295 19.295 0 0 0-2.46 1.801l1.306 1.515Zm2.213-1.62a18.186 18.186 0 0 1 2.37-1.265L12.525.92c-.906.4-1.783.869-2.63 1.405l1.07 1.69Zm7.542-2.688a21.45 21.45 0 0 1 2.704-.167v-2c-1.008 0-1.993.06-2.956.183l.252 1.984Zm2.704-.167c.93 0 1.833.055 2.706.164l.248-1.984c-.96-.12-1.945-.18-2.954-.18v2Zm7.879 1.58c.815.36 1.602.785 2.36 1.272l1.08-1.684A19.495 19.495 0 0 0 29.9.911l-.81 1.828Zm2.375 1.28c.778.481 1.513 1.02 2.204 1.615l1.306-1.515a19.298 19.298 0 0 0-2.459-1.8l-1.05 1.7Zm5.77 5.77c.482.757.93 1.564 1.345 2.424l1.802-.868a25.152 25.152 0 0 0-1.462-2.632L37.233 9.79Zm1.345 2.424c.475.988.888 2.036 1.236 3.144l1.908-.598a25.358 25.358 0 0 0-1.342-3.414l-1.802.868Zm2.494 9.845c.091 1.104.137 2.251.137 3.441h2c0-1.24-.048-2.442-.144-3.605l-1.993.164Zm.137 3.441c0 1.19-.046 2.337-.137 3.441l1.993.164c.096-1.163.144-2.364.144-3.605h-2Zm-1.395 10.142a23.364 23.364 0 0 1-1.236 3.144l1.802.868c.52-1.08.966-2.218 1.342-3.414l-1.908-.599Zm-1.236 3.144a23.471 23.471 0 0 1-1.351 2.435l1.687 1.075a25.485 25.485 0 0 0 1.466-2.642l-1.802-.868Zm-4.92 6.626a17.845 17.845 0 0 1-2.204 1.643l1.07 1.69a19.853 19.853 0 0 0 2.449-1.826l-1.316-1.507Zm-2.2 1.64c-.761.478-1.551.893-2.37 1.247l.794 1.836a19.634 19.634 0 0 0 2.638-1.388l-1.062-1.694Zm-7.545 2.628a22.36 22.36 0 0 1-2.704.16v2c1.006 0 1.988-.058 2.945-.175l-.241-1.985Zm-2.704-9.43c-.408 0-.8-.029-1.179-.084l-.293 1.978c.48.071.97.106 1.472.106v-2Zm-3.384-.793a7.305 7.305 0 0 1-.99-.62l-1.192 1.606c.403.3.824.563 1.26.79l.922-1.776Zm-.978-.61a6.66 6.66 0 0 1-.976-.927l-1.51 1.311c.392.453.815.855 1.27 1.203l1.216-1.588Zm-2.474-3.307a15.95 15.95 0 0 1-.553-1.349l-1.882.678c.192.533.4 1.04.623 1.517l1.812-.846Zm-.548-1.332a17.43 17.43 0 0 1-.558-2.087l-1.96.404c.172.828.38 1.605.625 2.327l1.893-.644Zm-1.083-6.472a44.609 44.609 0 0 1-.053-2.236h-2c0 .809.018 1.587.056 2.336l1.997-.1ZM12.69 25.5c0-.778.018-1.523.053-2.236l-1.997-.1a46.51 46.51 0 0 0-.056 2.336h2Zm.578-6.62a17.43 17.43 0 0 1 .558-2.088l-1.893-.644a19.428 19.428 0 0 0-.624 2.327l1.959.404Zm.553-2.071c.173-.482.357-.931.553-1.35l-1.812-.845c-.224.477-.431.984-.623 1.517l1.882.678Zm2.051-3.73a6.66 6.66 0 0 1 .976-.925l-1.217-1.588c-.454.348-.877.75-1.27 1.203l1.511 1.31Zm.963-.916c.321-.238.651-.444.99-.62l-.92-1.776c-.437.227-.858.49-1.261.79l1.191 1.606Zm3.196-1.329a8.043 8.043 0 0 1 1.179-.084v-2c-.501 0-.992.035-1.472.106l.293 1.979Zm1.179-.084c.412 0 .806.028 1.184.082l.284-1.98a10.356 10.356 0 0 0-1.468-.102v2Zm3.387.78c.338.177.662.385.974.624l1.217-1.588a8.696 8.696 0 0 0-1.265-.808l-.926 1.773Zm.987.633c.346.257.675.56.986.91l1.497-1.325a8.467 8.467 0 0 0-1.291-1.191l-1.192 1.606Zm2.477 3.277c.19.419.368.869.532 1.352l1.893-.644a16.613 16.613 0 0 0-.605-1.536l-1.82.829Zm.538 1.369c.227.631.424 1.323.589 2.076l1.954-.427c-.182-.828-.401-1.604-.661-2.327l-1.882.678Zm1.144 6.455c.038.712.057 1.458.057 2.236h2c0-.81-.02-1.592-.06-2.343l-1.997.107ZM29.8 25.5c0 .778-.02 1.524-.057 2.236l1.997.107c.04-.751.06-1.532.06-2.343h-2Zm-.612 6.615a16.63 16.63 0 0 1-.59 2.076l1.883.678c.26-.723.48-1.499.66-2.327l-1.953-.427Zm-.595 2.093c-.164.483-.342.933-.532 1.352l1.82.828c.22-.484.422-.996.605-1.536l-1.893-.644Zm-2.023 3.718c-.31.351-.64.654-.986.91l1.192 1.607a8.463 8.463 0 0 0 1.291-1.19l-1.497-1.327Zm-.999.92c-.312.24-.636.447-.974.623l.926 1.773c.442-.231.864-.5 1.265-.808l-1.217-1.588Zm-3.177 1.322a8.356 8.356 0 0 1-1.184.082v2c.501 0 .99-.034 1.468-.102l-.284-1.98ZM59.13 49.51l-.136.481.008.002.127-.483Zm-8.54-3.92-.445-.23-.2.388.356.25.288-.408Zm4.48-8.68.293-.405-.471-.341-.267.517.444.229Zm6.44 3.22-.156.475.003.001.153-.476Zm14.21-.49.282.412-.282-.412Zm1.47-8.05.416-.277-.416.277Zm-3.5-2.24-.15.477.003.001.146-.478Zm-19.46-.77-.498-.045-.05.545h.547v-.5ZM56.75 1V.5h-.457l-.041.455.497.045Zm29.89 0h.5V.5h-.5V1Zm0 9.1v.5h.5v-.5h-.5Zm-25.83 0-.331-.375-.993.875h1.324v-.5Zm5.88-5.18.498.044.11-1.247-.94.828.331.375Zm-1.75 19.67-.331.375.741.653.088-.984-.499-.044Zm-5.88-5.18v-.5h-1.325l.994.875.33-.375Zm22.05 2.03-.21.454.009.004.2-.458Zm6.51 5.39.43-.255-.43.255Zm-.14 15.82.429.256.002-.004-.431-.252Zm-6.72 5.95.223.447.003-.001-.227-.446Zm-11.48 1.74c-.846 0-1.69-.028-2.532-.083l-.066.998c.864.057 1.73.085 2.597.085v-1Zm-7.553-.743a40.426 40.426 0 0 1-2.47-.57l-.255.966c.842.223 1.685.417 2.53.585l.195-.981Zm-2.462-.568a33.675 33.675 0 0 1-2.216-.706l-.337.941c.735.264 1.496.506 2.282.727l.271-.962Zm-6.435-2.615a22.787 22.787 0 0 1-1.952-1.233L50.3 46c.646.456 1.326.885 2.038 1.286l.491-.871Zm-1.796-.595 1.12-2.17-.889-.458-1.12 2.17.889.458Zm3.36-6.51 1.12-2.17-.889-.458-1.12 2.17.889.458Zm.382-1.994c.496.36 1.01.699 1.544 1.02l.514-.858c-.509-.306-1-.63-1.471-.972l-.587.81Zm4.848 2.66c.56.226 1.138.436 1.73.63l.31-.95A25.945 25.945 0 0 1 60 39.047l-.375.927Zm1.733.631c.62.2 1.243.374 1.868.524l.234-.972c-.6-.144-1.199-.312-1.797-.504l-.305.952Zm5.701 1.137c.646.051 1.293.077 1.941.077v-1c-.622 0-1.242-.025-1.861-.074l-.08.997Zm1.941.077c.628 0 1.229-.027 1.802-.08l-.093-.996c-.54.05-1.11.076-1.709.076v1Zm5.359-.893a8.582 8.582 0 0 0 1.644-.875l-.565-.824a7.58 7.58 0 0 1-1.454.771l.375.928Zm1.644-.875a6.686 6.686 0 0 0 1.132-.97l-.734-.678c-.273.295-.594.57-.963.824l.565.824Zm2.514-3.623c.103-.47.153-.963.153-1.479h-1c0 .45-.044.871-.13 1.265l.977.214Zm.153-1.479c0-.324-.02-.641-.06-.951l-.992.13c.035.265.052.538.052.821h1Zm-.591-2.797a6.275 6.275 0 0 0-.472-.84l-.833.554c.152.228.285.464.397.707l.908-.42Zm-.472-.84a4.617 4.617 0 0 0-.782-.89l-.664.748c.246.218.45.45.613.696l.833-.554Zm-2.727-2.067a11.172 11.172 0 0 0-1.043-.374l-.293.956c.341.104.658.218.95.34l.386-.922Zm-1.04-.373a13.742 13.742 0 0 0-1.765-.417l-.171.986a12.74 12.74 0 0 1 1.636.385l.3-.954Zm-5.31-.76a45.686 45.686 0 0 0-1.77-.033v1c.606 0 1.183.01 1.73.032l.04-1Zm-1.77-.033h-3.132v1h3.133v-1Zm-9.397 0h-3.133v1h3.133v-1Zm-2.635.546.315-3.448-.995-.091-.316 3.448.996.09Zm.945-10.343.63-6.895-.995-.091-.63 6.895.995.091Zm1.26-13.79.315-3.448-.995-.09-.316 3.447.996.091ZM56.75 1.5h3.737v-1H56.75v1Zm11.21 0h7.472v-1h-7.473v1Zm14.944 0h3.736v-1h-3.736v1ZM86.14 1v2.275h1V1h-1Zm0 6.825V10.1h1V7.825h-1Zm.5 1.775h-3.228v1h3.228v-1Zm-9.686 0h-6.457v1h6.457v-1Zm-12.915 0H60.81v1h3.228v-1Zm-2.898.875 1.47-1.295-.661-.75-1.47 1.295.661.75Zm4.41-3.885 1.47-1.295-.661-.75-1.47 1.295.661.75Zm.641-1.714-.437 4.917.996.089.438-4.918-.997-.088ZM64.88 19.628l-.438 4.918.996.088.438-4.917-.996-.089Zm.391 4.587L63.8 22.92l-.661.75 1.47 1.295.661-.75Zm-4.41-3.885-1.47-1.295-.661.75 1.47 1.295.661-.75Zm-1.8-.42h2.59v-1h-2.59v1Zm7.77 0h2.59v-1h-2.59v1Zm2.59 0c1.029 0 2.014.03 2.954.092l.065-.998a46.398 46.398 0 0 0-3.02-.094v1Zm8.748 1.003c.994.273 1.905.6 2.732.981l.418-.908a18.773 18.773 0 0 0-2.885-1.038l-.265.965Zm2.741.985c.665.29 1.286.605 1.864.944l.505-.863c-.614-.36-1.27-.692-1.968-.997l-.401.916Zm5.072 3.53c.46.52.862 1.072 1.208 1.657l.86-.51c-.378-.64-.819-1.244-1.32-1.81l-.748.663Zm1.208 1.657c.335.565.626 1.15.875 1.752l.925-.38a14.647 14.647 0 0 0-.94-1.882l-.86.51Zm1.847 5.546c.076.638.114 1.294.114 1.969h1a17.8 17.8 0 0 0-.12-2.087l-.994.118Zm.114 1.969c0 .694-.043 1.374-.129 2.04l.992.127c.091-.71.136-1.432.136-2.167h-1Zm-1.186 5.971a15.71 15.71 0 0 1-.916 1.827l.863.504c.37-.633.695-1.28.974-1.942l-.921-.389Zm-.914 1.823c-.37.622-.796 1.214-1.276 1.776l.76.65c.517-.605.975-1.243 1.375-1.914l-.859-.512Zm-4.594 4.653c-.598.39-1.24.76-1.923 1.107l.453.892c.714-.363 1.386-.75 2.017-1.162l-.547-.837Zm-1.92 1.106c-.82.41-1.706.762-2.662 1.058l.295.955a18.5 18.5 0 0 0 2.814-1.119l-.447-.894Zm-8.347 2.08c-.929.072-1.898.107-2.91.107v1c1.035 0 2.03-.036 2.986-.109l-.076-.997Zm-13.06-.723-.27.962.007.003.008.002.255-.967Zm-8.54-3.92-.888-.459-.4.774.712.502.577-.817Zm4.48-8.68.587-.81-.941-.683-.534 1.034.889.459Zm6.44 3.22-.31.95.005.002.306-.952Zm14.21-.49.566.825-.566-.825Zm1.47-8.05.833-.555-.833.555Zm-3.5-2.24-.3.954.008.002.292-.956Zm-19.46-.77-.995-.091-.1 1.091h1.096v-1ZM56.75 1V0h-.912l-.083.909.995.091Zm29.89 0h1V0h-1v1Zm0 9.1v1h1v-1h-1Zm-25.83 0-.66-.75-1.988 1.75h2.648v-1Zm5.88-5.18.997.089.221-2.495-1.879 1.656.661.75Zm-1.75 19.67-.66.75 1.481 1.306.175-1.967-.996-.089Zm-5.88-5.18v-1h-2.648l1.987 1.75.661-.75Zm22.05 2.03-.418.908.009.004.009.004.4-.916Zm6.51 5.39.861-.51-.86.51Zm-.14 15.82.86.512.004-.007-.864-.505Zm-6.72 5.95.448.894.005-.002-.453-.892Zm-11.48 1.24c-.834 0-1.667-.027-2.499-.082l-.13 1.996c.875.057 1.751.086 2.63.086v-2Zm-7.455-.734a39.943 39.943 0 0 1-2.44-.563l-.51 1.934c.852.225 1.706.422 2.562.591l.388-1.962Zm-2.423-.559a33.099 33.099 0 0 1-2.183-.695l-.675 1.883c.747.267 1.519.513 2.315.737l.543-1.925Zm-6.325-2.569c-.67-.377-1.306-.779-1.91-1.205l-1.153 1.634c.66.466 1.354.904 2.08 1.314l.983-1.742Zm-1.598.07 1.12-2.17-1.777-.917-1.12 2.17 1.777.918Zm3.36-6.51 1.12-2.17-1.777-.917-1.12 2.17 1.777.918Zm-.355-1.818c.507.367 1.034.715 1.58 1.043l1.029-1.715a19.899 19.899 0 0 1-1.436-.948l-1.173 1.62Zm4.954 2.718c.571.231 1.159.445 1.762.642l.621-1.9a25.4 25.4 0 0 1-1.633-.596l-.75 1.854Zm1.767.644c.633.203 1.267.381 1.904.534l.468-1.944a24.624 24.624 0 0 1-1.761-.494l-.611 1.904Zm5.814 1.16c.66.052 1.32.078 1.981.078v-2c-.608 0-1.216-.024-1.822-.072l-.159 1.993ZM69 42.32c.642 0 1.258-.027 1.849-.082l-.186-1.992c-.523.05-1.077.074-1.663.074v2Zm5.546-.93a9.077 9.077 0 0 0 1.74-.925l-1.131-1.65a7.083 7.083 0 0 1-1.358.72l.749 1.855Zm1.74-.925c.454-.311.86-.658 1.216-1.043l-1.468-1.358a5.18 5.18 0 0 1-.88.751l1.132 1.65Zm2.72-3.929a7.392 7.392 0 0 0 .165-1.586h-2c0 .418-.041.803-.12 1.158l1.954.428Zm.165-1.586c0-.345-.022-.684-.066-1.017l-1.983.262c.032.242.049.493.049.755h2Zm-.639-3.007a6.763 6.763 0 0 0-.51-.908l-1.664 1.11c.138.207.258.42.36.64l1.814-.842Zm-.51-.908c-.24-.36-.53-.689-.865-.986l-1.328 1.495c.217.193.391.393.53.6l1.663-1.109Zm-2.949-2.25a11.64 11.64 0 0 0-1.09-.391l-.585 1.912c.327.1.628.208.903.323l.772-1.845Zm-1.083-.389a14.233 14.233 0 0 0-1.83-.433l-.341 1.971c.596.104 1.119.228 1.572.37l.6-1.908Zm-5.441-.783a46.342 46.342 0 0 0-1.788-.033v2c.6 0 1.17.01 1.71.032l.078-1.999Zm-1.788-.033h-3.133v2h3.133v-2Zm-9.398 0h-3.133v2h3.133v-2Zm-2.137 1.091.315-3.447-1.991-.183-.315 3.448 1.991.182Zm.945-10.343.63-6.894-1.991-.182-.63 6.894 1.991.182Zm1.26-13.79.315-3.447-1.991-.182-.315 3.447 1.991.182ZM56.75 2h3.736V0H56.75v2Zm11.208 0h7.473V0h-7.473v2Zm14.945 0h3.736V0h-3.736v2Zm2.736-1v2.275h2V1h-2Zm0 6.825V10.1h2V7.825h-2Zm1 1.275h-3.228v2h3.228v-2Zm-9.686 0h-6.457v2h6.457v-2Zm-12.915 0H60.81v2h3.228v-2Zm-2.567 1.75 1.47-1.295-1.323-1.5-1.47 1.295 1.322 1.5Zm4.41-3.885 1.47-1.295-1.323-1.5-1.47 1.295 1.322 1.5Zm-.188-2.134-.437 4.918 1.992.177.438-4.917-1.993-.178Zm-1.312 14.753-.438 4.917 1.993.178.437-4.918-1.992-.177Zm1.22 4.256-1.47-1.295-1.323 1.5 1.47 1.295 1.322-1.5Zm-4.41-3.885-1.47-1.295-1.323 1.5 1.47 1.295 1.322-1.5Zm-2.132.455h2.59v-2h-2.59v2Zm7.77 0h2.59v-2h-2.59v2Zm2.59 0c1.02 0 1.994.03 2.922.091l.13-1.996a46.943 46.943 0 0 0-3.052-.095v2Zm8.617.985c.97.266 1.855.585 2.655.953l.837-1.816a19.285 19.285 0 0 0-2.963-1.066l-.529 1.929Zm2.673.961c.648.284 1.251.59 1.811.917l1.01-1.726a19.36 19.36 0 0 0-2.02-1.023l-.801 1.832Zm4.897 3.404c.44.495.823 1.022 1.153 1.58l1.721-1.02a12.275 12.275 0 0 0-1.376-1.886l-1.498 1.326Zm1.153 1.58c.322.544.603 1.107.843 1.688l1.849-.762c-.276-.67-.6-1.319-.971-1.945l-1.721 1.018Zm1.78 5.35c.074.617.11 1.254.11 1.91h2c0-.73-.04-1.446-.123-2.145l-1.986.234Zm.11 1.91c0 .673-.041 1.332-.124 1.977l1.984.254c.094-.732.14-1.476.14-2.231h-2Zm-1.146 5.777c-.253.6-.548 1.19-.887 1.768l1.727 1.01c.38-.652.715-1.319 1.003-2l-1.843-.778Zm-.882 1.76a12.444 12.444 0 0 1-1.227 1.709l1.521 1.298a14.442 14.442 0 0 0 1.423-1.982l-1.717-1.024Zm-4.439 4.491c-.582.38-1.207.741-1.875 1.08l.905 1.784c.73-.37 1.418-.767 2.065-1.19l-1.095-1.674Zm-1.87 1.078c-.792.396-1.654.739-2.586 1.027l.59 1.911a19 19 0 0 0 2.89-1.15l-.894-1.788Zm-8.161 2.03c-.915.069-1.872.104-2.871.104v2c1.046 0 2.053-.037 3.023-.11l-.152-1.995Z" fill="#fff"/></svg>