<svg width="94" height="51" fill="none" xmlns="http://www.w3.org/2000/svg"><path d="M21.74 50.84c-4.013 0-7.607-.98-10.78-2.94-3.173-2.007-5.67-4.9-7.49-8.68C1.65 35.44.74 30.867.74 25.5c0-5.367.91-9.94 2.73-13.72C5.29 8 7.787 5.13 10.96 3.17 14.133 1.163 17.727.16 21.74.16c4.06 0 7.653 1.003 10.78 3.01 3.173 1.96 5.67 4.83 7.49 8.61 1.82 3.78 2.73 8.353 2.73 13.72 0 5.367-.91 9.94-2.73 13.72-1.82 3.78-4.317 6.673-7.49 8.68-3.127 1.96-6.72 2.94-10.78 2.94Zm0-9.59c1.913 0 3.57-.537 4.97-1.61 1.447-1.073 2.567-2.777 3.36-5.11.84-2.333 1.26-5.343 1.26-9.03 0-3.687-.42-6.697-1.26-9.03-.793-2.333-1.913-4.037-3.36-5.11-1.4-1.073-3.057-1.61-4.97-1.61-1.867 0-3.523.537-4.97 1.61-1.4 1.073-2.52 2.777-3.36 5.11-.793 2.333-1.19 5.343-1.19 9.03 0 3.687.397 6.697 1.19 9.03.84 2.333 1.96 4.037 3.36 5.11 1.447 1.073 3.103 1.61 4.97 1.61Zm53.32 9.59c-4.48 0-8.377-.933-11.69-2.8-3.267-1.867-5.787-4.597-7.56-8.19-1.774-3.593-2.66-8.027-2.66-13.3 0-5.647 1.05-10.43 3.15-14.35 2.146-3.92 5.086-6.907 8.82-8.96C68.9 1.187 73.24.16 78.14.16c2.613 0 5.11.28 7.49.84 2.38.56 4.433 1.4 6.16 2.52l-4.2 8.33a11.96 11.96 0 0 0-4.34-1.89c-1.54-.373-3.15-.56-4.83-.56-4.247 0-7.607 1.283-10.08 3.85-2.474 2.567-3.71 6.37-3.71 11.41v2.8c.046 1.027.186 2.053.42 3.08L61.9 27.6c.886-1.82 2.03-3.337 3.43-4.55 1.4-1.26 3.056-2.193 4.97-2.8 1.96-.653 4.106-.98 6.44-.98 3.173 0 6.02.63 8.54 1.89 2.52 1.26 4.526 3.033 6.02 5.32 1.54 2.287 2.31 4.97 2.31 8.05 0 3.313-.84 6.207-2.52 8.68-1.634 2.427-3.85 4.317-6.65 5.67-2.754 1.307-5.88 1.96-9.38 1.96Zm-.63-8.47c1.586 0 2.986-.28 4.2-.84 1.26-.607 2.24-1.47 2.94-2.59.7-1.12 1.05-2.403 1.05-3.85 0-2.24-.77-4.013-2.31-5.32-1.494-1.353-3.5-2.03-6.02-2.03-1.68 0-3.15.327-4.41.98-1.26.607-2.264 1.47-3.01 2.59-.7 1.073-1.05 2.333-1.05 3.78 0 1.4.35 2.66 1.05 3.78.7 1.073 1.68 1.937 2.94 2.59 1.26.607 2.8.91 4.62.91Z" fill="#fff" fill-opacity=".1"/><path d="m10.96 47.9-.267.423.004.002.263-.425Zm-7.49-8.68-.45.217.45-.217Zm0-27.44.45.217-.45-.217Zm7.49-8.61.263.425.004-.002-.267-.423Zm21.56 0-.27.42.007.005.263-.425Zm7.49 8.61-.45.217.45-.217Zm0 27.44-.45-.217.45.217Zm-7.49 8.68.265.424.002-.001-.267-.423Zm-5.81-8.26-.298-.402-.006.005.304.397Zm3.36-5.11-.47-.17-.003.009.473.161Zm0-18.06-.474.161.003.008.471-.169Zm-3.36-5.11-.304.397.006.005.298-.402Zm-9.94 0-.298-.402-.006.005.304.397Zm-3.36 5.11-.47-.17-.003.009.473.161Zm0 18.06-.473.161.003.008.47-.169Zm3.36 5.11-.304.397.006.005.298-.402Zm4.97 10.7c-.946 0-1.867-.056-2.762-.166l-.123.992c.938.116 1.9.174 2.885.174v-1Zm-8.074-1.592a18.83 18.83 0 0 1-2.443-1.273l-.526.85c.83.512 1.687.96 2.573 1.341l.396-.918Zm-2.439-1.27a18.353 18.353 0 0 1-2.264-1.69l-.658.754c.75.654 1.545 1.248 2.388 1.78l.534-.845ZM5.3 41.49a23.983 23.983 0 0 1-1.38-2.487l-.9.434c.439.913.918 1.777 1.437 2.59l.843-.537Zm-1.38-2.487a23.861 23.861 0 0 1-1.262-3.212l-.954.3c.368 1.174.807 2.29 1.315 3.346l.901-.434Zm-2.542-10.02A42.472 42.472 0 0 1 1.24 25.5h-1c0 1.228.047 2.416.142 3.564l.996-.082ZM1.24 25.5c0-1.202.046-2.363.138-3.482l-.996-.082A43.472 43.472 0 0 0 .24 25.5h1Zm1.418-10.291c.355-1.13.776-2.201 1.262-3.212l-.9-.434a24.853 24.853 0 0 0-1.316 3.346l.954.3Zm1.262-3.212c.422-.877.88-1.702 1.375-2.476l-.843-.538c-.517.81-.994 1.67-1.433 2.58l.901.434Zm5.035-6.74a17.796 17.796 0 0 1 2.268-1.662l-.526-.85a18.796 18.796 0 0 0-2.395 1.754l.653.757Zm2.272-1.664a18.68 18.68 0 0 1 2.435-1.3l-.404-.915c-.883.39-1.739.847-2.565 1.37l.534.845ZM18.973.83C19.87.717 20.793.66 21.74.66v-1c-.988 0-1.952.06-2.893.179l.126.992ZM21.74.66c.95 0 1.873.056 2.769.168l.124-.992A23.311 23.311 0 0 0 21.74-.34v1Zm8.082 1.622c.839.372 1.648.808 2.428 1.309l.54-.842a18.997 18.997 0 0 0-2.563-1.381l-.405.914Zm2.435 1.313c.8.495 1.556 1.048 2.268 1.661l.653-.757a18.791 18.791 0 0 0-2.395-1.754l-.526.85Zm5.928 5.926c.494.774.953 1.6 1.374 2.476l.902-.434c-.439-.91-.916-1.77-1.434-2.58l-.842.538Zm1.374 2.476a23.87 23.87 0 0 1 1.263 3.212l.954-.3a24.848 24.848 0 0 0-1.316-3.346l-.9.434Zm2.543 10.02c.092 1.12.138 2.28.138 3.483h1a43.47 43.47 0 0 0-.142-3.564l-.996.082Zm.138 3.483c0 1.202-.046 2.363-.138 3.482l.996.082a43.47 43.47 0 0 0 .142-3.564h-1Zm-1.418 10.291a23.87 23.87 0 0 1-1.263 3.212l.902.434a24.853 24.853 0 0 0 1.315-3.346l-.954-.3Zm-1.263 3.212c-.423.88-.883 1.708-1.38 2.487l.844.538a24.99 24.99 0 0 0 1.438-2.591l-.901-.434Zm-5.042 6.786c-.71.62-1.465 1.183-2.264 1.688l.534.846a19.346 19.346 0 0 0 2.388-1.781l-.658-.753Zm-2.263 1.687a18.13 18.13 0 0 1-2.436 1.282l.397.918a19.13 19.13 0 0 0 2.57-1.352l-.53-.848Zm-7.75 2.7c-.894.11-1.815.164-2.764.164v1c.987 0 1.95-.057 2.885-.17l-.12-.994ZM21.74 40.75c-.43 0-.848-.03-1.252-.09l-.146.99c.454.067.92.1 1.398.1v-1Zm-3.614-.849a7.796 7.796 0 0 1-1.058-.663l-.596.803c.383.285.78.534 1.193.748l.46-.888Zm-1.052-.658a7.16 7.16 0 0 1-1.05-.995l-.754.655c.372.43.77.808 1.196 1.134l.608-.794Zm-2.623-3.491a16.465 16.465 0 0 1-.57-1.391l-.941.338c.187.521.389 1.013.605 1.476l.906-.423Zm-.568-1.383a17.946 17.946 0 0 1-.575-2.147l-.98.202c.168.81.37 1.566.609 2.267l.946-.322Zm-1.109-6.608a45.172 45.172 0 0 1-.054-2.261h-1c0 .801.018 1.572.056 2.311l.998-.05ZM12.72 25.5c0-.786.018-1.54.054-2.261l-.998-.05c-.037.74-.056 1.51-.056 2.311h1Zm.588-6.722c.16-.775.352-1.49.575-2.147l-.946-.322c-.239.7-.44 1.456-.608 2.267l.98.202Zm.572-2.139c.178-.494.369-.958.57-1.39l-.905-.424c-.216.463-.418.955-.605 1.476l.94.338Zm2.145-3.887a7.16 7.16 0 0 1 1.05-.995l-.61-.794a8.157 8.157 0 0 0-1.195 1.134l.755.655Zm1.043-.99a7.805 7.805 0 0 1 1.058-.663l-.46-.888a8.81 8.81 0 0 0-1.194.747l.596.803Zm3.42-1.422c.404-.06.821-.09 1.252-.09v-1c-.477 0-.944.033-1.398.1l.146.99Zm1.252-.09c.434 0 .853.03 1.256.087l.141-.99a9.857 9.857 0 0 0-1.397-.097v1Zm3.619.837c.363.19.712.414 1.047.67l.608-.794a8.205 8.205 0 0 0-1.192-.762l-.463.886Zm1.053.675c.376.278.73.605 1.063.98l.748-.663a7.97 7.97 0 0 0-1.215-1.12l-.596.803Zm2.634 3.471c.198.435.381.9.55 1.398l.947-.322a16.122 16.122 0 0 0-.587-1.49l-.91.414Zm.553 1.406c.236.654.439 1.367.607 2.14l.977-.215a18.114 18.114 0 0 0-.643-2.263l-.94.338Zm1.173 6.598c.039.722.058 1.477.058 2.263h1c0-.803-.02-1.575-.06-2.316l-.998.053Zm.058 2.263c0 .786-.02 1.54-.058 2.263l.999.053c.04-.741.059-1.513.059-2.316h-1Zm-.623 6.722a17.107 17.107 0 0 1-.608 2.139l.941.338c.252-.7.466-1.454.643-2.264l-.977-.213Zm-.61 2.147c-.17.497-.353.963-.551 1.398l.91.414c.213-.467.409-.964.587-1.49l-.946-.322Zm-2.122 3.889a6.958 6.958 0 0 1-1.063.98l.596.803c.435-.322.84-.696 1.215-1.12l-.748-.663Zm-1.07.985c-.334.256-.683.48-1.046.67l.463.886a8.205 8.205 0 0 0 1.192-.762l-.608-.794Zm-3.41 1.42a8.862 8.862 0 0 1-1.255.087v1c.48 0 .945-.032 1.397-.097l-.141-.99ZM10.96 47.9l-.535.845.01.006.525-.851Zm-7.49-8.68-.901.434.901-.434Zm0-27.44.901.434-.901-.434Zm7.49-8.61.525.85.01-.005-.535-.845Zm21.56 0-.54.842.007.004.008.005.525-.851Zm7.49 8.61-.901.434.901-.434Zm0 27.44-.901-.434.901.434Zm-7.49 8.68.531.847.003-.002-.534-.845Zm-5.81-8.26-.596-.803-.006.005-.006.004.608.794Zm3.36-5.11-.94-.339-.004.009-.003.008.947.322Zm0-18.06-.947.322.003.008.003.009.941-.339Zm-3.36-5.11-.608.794.006.004.006.005.596-.803Zm-9.94 0-.596-.803-.006.005-.006.004.608.794Zm-3.36 5.11-.94-.339-.004.009-.003.008.947.322Zm0 18.06-.947.322.003.008.003.009.941-.339Zm3.36 5.11-.608.794.006.004.006.005.596-.803Zm4.97 10.2a21.98 21.98 0 0 1-2.701-.163l-.245 1.985c.959.119 1.941.178 2.946.178v-2Zm-7.876-1.55a18.32 18.32 0 0 1-2.379-1.24l-1.05 1.7c.85.526 1.728.984 2.637 1.376l.792-1.837Zm-2.37-1.235a17.855 17.855 0 0 1-2.203-1.643l-1.315 1.507c.769.67 1.586 1.28 2.45 1.826l1.068-1.69ZM5.722 41.22a23.479 23.479 0 0 1-1.351-2.435l-1.802.868c.448.93.936 1.81 1.466 2.642l1.687-1.075ZM4.37 38.786a23.364 23.364 0 0 1-1.236-3.145l-1.908.6a25.357 25.357 0 0 0 1.342 3.413l1.802-.868Zm-2.494-9.845A41.974 41.974 0 0 1 1.74 25.5h-2c0 1.24.048 2.442.143 3.605l1.994-.164ZM1.74 25.5c0-1.19.046-2.337.137-3.441l-1.994-.164A43.97 43.97 0 0 0-.26 25.5h2Zm1.395-10.142c.348-1.108.76-2.156 1.236-3.144l-1.802-.868a25.357 25.357 0 0 0-1.342 3.414l1.908.598Zm1.236-3.144A23.16 23.16 0 0 1 5.717 9.79L4.03 8.714a25.158 25.158 0 0 0-1.462 2.632l1.802.868Zm4.91-6.579a17.292 17.292 0 0 1 2.204-1.614l-1.05-1.702a19.293 19.293 0 0 0-2.46 1.801l1.306 1.515Zm2.213-1.62a18.186 18.186 0 0 1 2.37-1.265L13.056.92c-.906.4-1.783.869-2.63 1.405l1.068 1.69Zm7.542-2.688a21.45 21.45 0 0 1 2.704-.167v-2c-1.008 0-1.993.06-2.955.183l.251 1.984Zm2.704-.167c.93 0 1.833.055 2.707.164l.248-1.984a23.81 23.81 0 0 0-2.955-.18v2Zm7.88 1.58a17.49 17.49 0 0 1 2.36 1.272l1.08-1.684A19.495 19.495 0 0 0 30.43.911l-.81 1.828Zm2.374 1.28c.778.481 1.513 1.02 2.205 1.615l1.305-1.515a19.297 19.297 0 0 0-2.459-1.8l-1.05 1.7Zm5.77 5.77c.482.757.931 1.564 1.345 2.424l1.802-.868a25.17 25.17 0 0 0-1.462-2.632L37.763 9.79Zm1.345 2.424c.476.988.888 2.036 1.236 3.144l1.908-.598a25.358 25.358 0 0 0-1.342-3.414l-1.802.868Zm2.494 9.845c.091 1.104.137 2.251.137 3.441h2c0-1.24-.048-2.442-.143-3.605l-1.994.164Zm.137 3.441c0 1.19-.046 2.337-.137 3.441l1.994.164c.095-1.163.143-2.364.143-3.605h-2Zm-1.395 10.142a23.364 23.364 0 0 1-1.236 3.144l1.802.868c.52-1.08.967-2.218 1.342-3.414l-1.908-.599Zm-1.236 3.144a23.49 23.49 0 0 1-1.35 2.435l1.686 1.075a25.485 25.485 0 0 0 1.466-2.642l-1.802-.868Zm-4.92 6.626a17.845 17.845 0 0 1-2.204 1.643l1.07 1.69a19.838 19.838 0 0 0 2.449-1.826l-1.316-1.507Zm-2.2 1.64c-.761.478-1.55.893-2.37 1.247l.795 1.836a19.634 19.634 0 0 0 2.637-1.388l-1.062-1.694Zm-7.545 2.628c-.873.106-1.774.16-2.704.16v2c1.007 0 1.989-.058 2.946-.175l-.242-1.985Zm-2.704-9.43c-.407 0-.8-.029-1.179-.084l-.292 1.978c.48.071.97.106 1.471.106v-2Zm-3.384-.793a7.305 7.305 0 0 1-.99-.62l-1.192 1.606c.404.3.824.563 1.261.79l.92-1.776Zm-.978-.61a6.66 6.66 0 0 1-.976-.927l-1.51 1.311c.393.453.816.855 1.27 1.203l1.216-1.588Zm-2.474-3.307c-.195-.418-.38-.867-.553-1.349l-1.882.678c.192.533.4 1.04.623 1.517l1.812-.846Zm-.547-1.332a17.45 17.45 0 0 1-.56-2.087l-1.958.404c.171.828.379 1.605.624 2.327l1.894-.644Zm-1.083-6.472a44.609 44.609 0 0 1-.054-2.236h-2c0 .809.019 1.587.056 2.336l1.998-.1ZM13.22 25.5c0-.778.018-1.523.054-2.236l-1.998-.1a46.631 46.631 0 0 0-.056 2.336h2Zm.578-6.62a17.45 17.45 0 0 1 .559-2.088l-1.894-.644a19.428 19.428 0 0 0-.624 2.327l1.959.404Zm.553-2.071c.173-.482.358-.931.553-1.35l-1.812-.845c-.223.477-.43.984-.623 1.517l1.882.678Zm2.051-3.73a6.66 6.66 0 0 1 .976-.925l-1.216-1.588c-.454.348-.877.75-1.27 1.203l1.51 1.31Zm.964-.916c.32-.238.65-.444.99-.62l-.92-1.776c-.438.227-.858.49-1.262.79l1.192 1.606Zm3.195-1.329a8.045 8.045 0 0 1 1.179-.084v-2c-.5 0-.991.035-1.471.106l.292 1.979Zm1.179-.084c.412 0 .807.028 1.185.082l.283-1.98a10.358 10.358 0 0 0-1.468-.102v2Zm3.387.78c.338.177.663.385.975.624l1.216-1.588a8.696 8.696 0 0 0-1.265-.808l-.926 1.773Zm.987.633c.347.257.676.56.987.91l1.497-1.325a8.462 8.462 0 0 0-1.292-1.191l-1.192 1.606Zm2.477 3.277c.19.419.368.869.532 1.352l1.894-.644a16.613 16.613 0 0 0-.606-1.536l-1.82.829Zm.538 1.369c.227.631.424 1.323.589 2.076l1.954-.427a18.6 18.6 0 0 0-.661-2.327l-1.882.678Zm1.144 6.455c.038.712.057 1.458.057 2.236h2c0-.81-.02-1.592-.06-2.343l-1.997.107Zm.057 2.236c0 .778-.02 1.524-.057 2.236l1.997.107c.04-.751.06-1.532.06-2.343h-2Zm-.612 6.615a16.63 16.63 0 0 1-.589 2.076l1.882.678a18.6 18.6 0 0 0 .66-2.327l-1.953-.427Zm-.595 2.093c-.164.483-.342.933-.532 1.352l1.82.828c.22-.484.422-.996.606-1.536l-1.894-.644Zm-2.022 3.718c-.311.351-.64.654-.987.91l1.192 1.607a8.458 8.458 0 0 0 1.292-1.19L27.1 37.925Zm-1 .92c-.311.24-.636.447-.974.623l.926 1.773c.442-.231.864-.5 1.265-.808l-1.216-1.588Zm-3.176 1.322a8.356 8.356 0 0 1-1.185.082v2c.501 0 .991-.034 1.468-.102l-.283-1.98ZM63.37 48.04l-.248.434.002.002.246-.436Zm-7.56-8.19.448-.221-.448.221Zm.49-27.65-.439-.24-.002.004.44.236Zm8.82-8.96-.239-.44-.002.002.24.438ZM85.63 1l.114-.487L85.63 1Zm6.16 2.52.446.225.202-.4-.376-.244-.272.419Zm-4.2 8.33-.284.412.472.325.258-.512-.446-.225Zm-4.34-1.89-.118.486.007.002.007.001.104-.489Zm-14.91 3.29-.36-.347.36.347Zm-3.71 14.21h-.5v.023l.5-.023Zm.42 3.08-.341.366 1.189 1.11-.36-1.587-.488.111ZM61.9 27.6l-.45-.219-.162.332.27.252.342-.365Zm3.43-4.55.327.378.007-.006-.334-.372Zm4.97-2.8.15.477.008-.003-.158-.474Zm14.98.91.223-.447-.223.447Zm6.02 5.32-.419.273.004.006.415-.279Zm-.21 16.73-.414-.28h-.001l.415.28Zm-6.65 5.67.214.452.003-.002-.217-.45Zm-5.81-7.35.21.454.007-.004-.217-.45Zm2.94-2.59.424.265-.424-.265Zm-1.26-9.17-.336.37.006.006.006.005.324-.381Zm-10.43-1.05.217.45.006-.003.007-.003-.23-.444Zm-3.01 2.59-.416-.277-.003.004.419.273Zm0 7.56-.424.265.005.008.419-.273Zm2.94 2.59-.23.444.006.003.007.004.217-.451Zm5.25 8.88a29.04 29.04 0 0 1-2.983-.15l-.103.996c.998.103 2.027.154 3.086.154v-1Zm-8.762-1.483a19.632 19.632 0 0 1-2.683-1.253l-.49.872c.898.506 1.837.945 2.818 1.316l.355-.935Zm-2.68-1.251a17.821 17.821 0 0 1-2.276-1.542l-.624.781a18.82 18.82 0 0 0 2.404 1.63l.496-.87Zm-5.98-5.586a20.789 20.789 0 0 1-1.38-2.391l-.897.442c.437.886.92 1.721 1.447 2.507l.83-.558Zm-1.38-2.391a21.946 21.946 0 0 1-1.24-3.103l-.953.301a22.943 22.943 0 0 0 1.296 3.244l.897-.442Zm-2.476-9.702a41.749 41.749 0 0 1-.132-3.377h-1c0 1.194.045 2.346.135 3.458l.997-.081Zm-.132-3.377c0-1.266.053-2.486.16-3.66l-.997-.091a41.6 41.6 0 0 0-.163 3.751h1Zm1.64-10.789a23.12 23.12 0 0 1 1.45-3.325l-.881-.472a24.114 24.114 0 0 0-1.514 3.468l.944.329Zm1.448-3.32a24.02 24.02 0 0 1 1.67-2.637l-.808-.59a25.022 25.022 0 0 0-1.739 2.746l.877.48ZM62.75 5.37a21.409 21.409 0 0 1 2.612-1.692l-.482-.876c-.962.529-1.874 1.12-2.734 1.77l.604.798Zm2.61-1.69c.965-.525 1.969-.982 3.01-1.37l-.35-.937c-1.084.405-2.13.88-3.138 1.428l.477.878ZM74.816.828A31.96 31.96 0 0 1 78.14.66v-1c-1.173 0-2.315.058-3.427.174l.104.995ZM78.14.66c.627 0 1.248.016 1.86.05l.054-1c-.631-.033-1.27-.05-1.914-.05v1Zm5.555.458c.615.105 1.221.228 1.82.369l.23-.974a30.976 30.976 0 0 0-1.882-.38l-.168.985Zm1.82.369a23.52 23.52 0 0 1 1.58.429l.296-.956a24.524 24.524 0 0 0-1.647-.447l-.229.974Zm4.6 1.644c.49.25.958.52 1.403.808l.544-.838a16.706 16.706 0 0 0-1.493-.86l-.455.89Zm1.228.164-1.05 2.082.893.45 1.05-2.082-.893-.45Zm-3.15 6.247-1.05 2.083.893.45 1.05-2.082-.893-.45Zm-.32 1.896a13.38 13.38 0 0 0-1.049-.655l-.49.872c.33.185.653.387.972.607l.568-.824Zm-3.32-1.648a12.15 12.15 0 0 0-1.2-.32l-.207.98c.373.078.74.176 1.101.292l.306-.952Zm-1.185-.316a19.77 19.77 0 0 0-1.224-.256l-.174.985c.392.07.78.15 1.162.243l.236-.972Zm-3.703-.54A22.526 22.526 0 0 0 78.42 8.9v1c.4 0 .798.01 1.19.033l.055-.999ZM78.42 8.9c-.991 0-1.939.068-2.842.206l.15.988c.85-.129 1.746-.194 2.692-.194v-1Zm-8.213 2.169c-.807.52-1.55 1.13-2.227 1.834l.72.694a11.404 11.404 0 0 1 2.048-1.687l-.54-.841Zm-2.227 1.834a11.85 11.85 0 0 0-1.884 2.587l.879.477a10.853 10.853 0 0 1 1.725-2.37l-.72-.694Zm-3.677 8.63c-.116.987-.173 2.03-.173 3.127h1c0-1.062.056-2.066.167-3.01l-.993-.118Zm-.173 3.127V25.359h1V24.66h-1Zm0 2.1V27.46h1V26.76h-1Zm0 .723c.012.266.03.532.055.799l.996-.091c-.023-.251-.04-.503-.052-.754l-.999.046Zm.272 2.384c.047.262.1.523.16.784l.975-.222a17.483 17.483 0 0 1-.152-.74l-.983.178Zm.989.307-.788-.735-.682.732.788.735.682-.732Zm-2.363-2.204-.787-.735-.682.73.787.736.682-.732Zm-.679-.151c.207-.425.428-.832.663-1.22l-.856-.518c-.251.416-.486.85-.706 1.3l.9.438Zm2.318-3.432c.314-.34.644-.659.99-.96l-.655-.755c-.374.325-.73.67-1.07 1.035l.735.68Zm.997-.965c.343-.309.702-.597 1.076-.864l-.581-.814c-.405.29-.793.6-1.164.934l.67.744Zm3.485-2.213c.419-.18.853-.34 1.302-.482l-.302-.954c-.48.152-.944.324-1.393.517l.393.919Zm1.309-.485c.497-.165 1.007-.31 1.53-.432l-.23-.974c-.55.13-1.09.282-1.616.458l.316.948Zm4.682-.9a23.14 23.14 0 0 1 1.6-.054v-1c-.567 0-1.123.019-1.67.057l.07.997Zm1.6-.054c.737 0 1.455.035 2.154.104l.098-.995a22.855 22.855 0 0 0-2.252-.109v1Zm6.344 1.007c.679.236 1.336.512 1.972.83l.447-.894a17.445 17.445 0 0 0-2.092-.88l-.328.944Zm1.972.83c.6.3 1.167.629 1.705.987l.554-.833a16.859 16.859 0 0 0-1.812-1.048l-.447.894Zm4.645 3.576c.424.492.818 1.015 1.18 1.57l.837-.546a15.732 15.732 0 0 0-1.26-1.677l-.757.653Zm1.184 1.576c.383.569.716 1.162 1 1.78l.909-.416a13.526 13.526 0 0 0-1.08-1.922l-.829.558Zm2.1 5.713c.083.663.125 1.349.125 2.058h1c0-.749-.045-1.477-.134-2.183l-.992.125Zm.125 2.058c0 .767-.046 1.508-.138 2.225l.992.127c.097-.761.146-1.545.146-2.352h-1Zm-1.343 6.476c-.31.667-.673 1.309-1.09 1.923l.826.562c.448-.659.838-1.347 1.17-2.065l-.906-.42Zm-1.092 1.925c-.402.597-.84 1.16-1.314 1.69l.745.666a16.5 16.5 0 0 0 1.398-1.798l-.83-.558ZM86.1 47.382c-.592.38-1.218.729-1.878 1.048l.435.9a18.996 18.996 0 0 0 1.982-1.105l-.54-.843Zm-1.875 1.046c-.702.334-1.43.623-2.183.87l.31.95c.793-.259 1.56-.564 2.302-.916l-.429-.904Zm-6.799 1.805c-.767.071-1.556.107-2.366.107v1c.84 0 1.659-.037 2.458-.111l-.092-.996ZM74.43 41.87c-.397 0-.78-.015-1.146-.044l-.08.996c.395.032.804.048 1.226.048v-1Zm-3.367-.455a7.542 7.542 0 0 1-1.036-.405l-.434.9c.37.179.761.332 1.173.46l.297-.955Zm-1.023-.399a8.399 8.399 0 0 1-.805-.474l-.556.83c.284.191.585.368.9.532l.46-.888Zm-2.196-1.686a6.527 6.527 0 0 1-.555-.733l-.838.546c.193.297.407.578.64.845l.753-.658Zm-.55-.725a6.357 6.357 0 0 1-.43-.814l-.917.402c.143.324.309.638.499.942l.848-.53Zm-.917-2.586c-.038-.301-.057-.61-.057-.929h-1c0 .359.021.71.065 1.055l.992-.127Zm-.057-.929c0-.322.018-.633.055-.932l-.993-.121a8.73 8.73 0 0 0-.062 1.053h1Zm.533-2.704c.123-.28.269-.547.436-.803l-.838-.546a6.67 6.67 0 0 0-.513.944l.915.405Zm.433-.799a6.9 6.9 0 0 1 .57-.742l-.749-.662c-.235.266-.453.55-.653.85l.832.554Zm1.988-1.957a7.59 7.59 0 0 1 .823-.46l-.434-.9c-.326.156-.636.33-.931.52l.542.84Zm.836-.466c.313-.162.64-.303.981-.423l-.33-.944a8.55 8.55 0 0 0-1.111.48l.46.887Zm3.089-.873c.351-.034.715-.051 1.09-.051v-1c-.405 0-.8.018-1.186.055l.096.996Zm1.09-.051c.547 0 1.066.033 1.557.098l.131-.991a12.802 12.802 0 0 0-1.687-.107v1Zm4.459 1.02c.444.248.852.542 1.226.88l.671-.74a7.65 7.65 0 0 0-1.41-1.013l-.487.873Zm1.238.891c.365.31.68.645.95 1.006l.802-.596a7.06 7.06 0 0 0-1.105-1.172l-.647.762Zm2.015 3.534c.079.44.119.909.119 1.405h1c0-.55-.044-1.077-.134-1.58l-.985.175Zm.119 1.405c0 .326-.02.642-.056.948l.992.121c.043-.348.064-.704.064-1.069h-1Zm-.54 2.757a6.208 6.208 0 0 1-.434.828l.848.53c.192-.308.36-.629.504-.96l-.918-.398Zm-.434.828a6.29 6.29 0 0 1-.543.742l.762.648c.23-.27.439-.556.629-.86l-.848-.53Zm-1.923 1.95a7.28 7.28 0 0 1-.81.455l.434.9c.323-.155.63-.327.92-.516l-.544-.839Zm-.803.451c-.302.14-.618.26-.946.364l.299.954a8.887 8.887 0 0 0 1.066-.41l-.419-.908Zm-2.956.75c-.334.03-.678.044-1.034.044v1c.383 0 .757-.016 1.121-.047l-.087-.997ZM63.37 48.04l-.496.868.005.003.49-.871Zm-7.56-8.19.896-.443-.896.443Zm.49-27.65-.877-.48-.005.008.882.472Zm8.82-8.96-.478-.879-.004.003.482.876ZM85.63 1l.229-.973-.23.973Zm6.16 2.52.893.45.403-.8-.752-.489-.544.839Zm-4.2 8.33-.568.823.944.651.517-1.024-.893-.45Zm-4.34-1.89-.236.972.014.003.014.003.208-.978Zm-14.91 3.29-.72-.694.72.694Zm-3.71 14.21h-1v.045l1-.045Zm.42 3.08-.683.731 2.379 2.22-.721-3.173-.975.222ZM61.9 27.6l-.9-.438-.323.665.54.504.683-.731Zm3.43-4.55.655.756.007-.006.007-.007-.67-.743Zm4.97-2.8.302.953.007-.002.007-.002-.316-.949Zm14.98.91.447-.894-.447.894Zm6.02 5.32-.837.547.003.006.004.006.83-.559Zm-.21 16.73-.828-.562-.002.004.83.558Zm-6.65 5.67.428.903.007-.003-.435-.9Zm-5.81-7.35.419.908.007-.004.008-.003-.434-.901Zm2.94-2.59.848.53-.848-.53Zm-1.26-9.17-.672.741.012.01.013.011.647-.762Zm-10.43-1.05.434.901.013-.006.013-.007-.46-.888Zm-3.01 2.59-.832-.555-.006.009.838.546Zm0 7.56-.848.53.005.008.005.008.838-.546Zm2.94 2.59-.46.888.013.007.013.006.434-.901Zm5.25 8.38a28.52 28.52 0 0 1-2.932-.147l-.205 1.99c1.016.105 2.061.157 3.137.157v-2Zm-8.585-1.45a19.15 19.15 0 0 1-2.614-1.221l-.982 1.742c.92.519 1.883.968 2.887 1.349l.709-1.87Zm-2.61-1.218a17.318 17.318 0 0 1-2.211-1.5l-1.248 1.564a19.306 19.306 0 0 0 2.468 1.672l.992-1.736Zm-5.812-5.43a20.276 20.276 0 0 1-1.346-2.334l-1.794.884c.446.905.94 1.76 1.48 2.564l1.66-1.115Zm-1.346-2.334a21.467 21.467 0 0 1-1.211-3.033l-1.907.603c.369 1.168.81 2.273 1.324 3.314l1.794-.885Zm-2.427-9.521a41.311 41.311 0 0 1-.13-3.337h-2c0 1.206.045 2.372.136 3.498l1.994-.161Zm-.13-3.337c0-1.252.053-2.457.157-3.616l-1.991-.18a42.08 42.08 0 0 0-.166 3.796h2Zm1.611-10.625c.4-1.149.874-2.233 1.42-3.253l-1.763-.944a24.609 24.609 0 0 0-1.545 3.54l1.888.657Zm1.416-3.245a23.547 23.547 0 0 1 1.635-2.58l-1.616-1.18a25.541 25.541 0 0 0-1.773 2.8l1.754.96Zm5.874-6.912a20.92 20.92 0 0 1 2.55-1.652l-.963-1.752a22.91 22.91 0 0 0-2.795 1.81l1.208 1.594Zm2.546-1.65c.945-.513 1.927-.96 2.946-1.339L67.845.905a24.952 24.952 0 0 0-3.203 1.456l.955 1.758Zm9.272-2.792a31.46 31.46 0 0 1 3.27-.166v-2a33.46 33.46 0 0 0-3.478.177l.208 1.989Zm3.27-.166c.62 0 1.23.016 1.835.048l.107-1.997A36.45 36.45 0 0 0 78.14-.84v2Zm5.472.45c.604.104 1.2.225 1.79.363l.458-1.946a31.503 31.503 0 0 0-1.911-.388l-.337 1.972Zm1.79.363c.534.126 1.05.266 1.546.42l.593-1.91a25.045 25.045 0 0 0-1.681-.456L85.4 1.973Zm4.486 1.603c.476.243.929.504 1.359.783l1.088-1.678a17.22 17.22 0 0 0-1.537-.886l-.91 1.78Zm1.01-.506-1.05 2.082 1.786.9 1.05-2.082-1.786-.9Zm-3.15 6.247-1.05 2.083 1.786.9 1.05-2.082-1.786-.9Zm.41 1.71a13.885 13.885 0 0 0-1.088-.68l-.979 1.745c.315.176.626.37.932.581l1.135-1.646Zm-3.45-1.713c-.41-.132-.827-.243-1.25-.332l-.415 1.956c.357.076.707.17 1.052.28l.613-1.904Zm-1.222-.326c-.413-.1-.831-.188-1.254-.262l-.347 1.97c.381.067.758.146 1.13.236l.471-1.944Zm-3.792-.553A23.02 23.02 0 0 0 78.42 8.4v2c.392 0 .78.01 1.162.032l.11-1.997ZM78.42 8.4c-1.014 0-1.987.07-2.917.212l.301 1.977a17.38 17.38 0 0 1 2.616-.189v-2Zm-8.483 2.248c-.84.541-1.613 1.178-2.317 1.908l1.44 1.388a10.901 10.901 0 0 1 1.959-1.613l-1.082-1.682Zm-2.317 1.908a12.35 12.35 0 0 0-1.963 2.696l1.758.954c.46-.85 1.01-1.603 1.645-2.262l-1.44-1.388Zm-3.813 8.918a27.313 27.313 0 0 0-.177 3.186h2c0-1.045.055-2.029.163-2.953l-1.986-.233Zm-.177 3.186V25.359h2V24.66h-2Zm0 2.1V27.46h2V26.76h-2Zm0 .745c.013.274.032.548.057.822l1.992-.182a16.028 16.028 0 0 1-.05-.73l-1.998.09Zm.28 2.452c.049.268.104.537.165.805l1.95-.444c-.055-.24-.104-.48-.148-.72l-1.967.359Zm1.822-.148-.787-.735-1.365 1.462.787.735 1.365-1.462Zm-2.362-2.205-.788-.735-1.365 1.462.788.735 1.364-1.462Zm-.571.434c.2-.412.414-.805.641-1.182l-1.712-1.033c-.26.43-.501.875-.727 1.339l1.798.876Zm2.235-3.311c.301-.326.618-.633.95-.921l-1.31-1.512c-.387.337-.757.695-1.108 1.074l1.468 1.359Zm.965-.934c.329-.296.672-.572 1.032-.829l-1.163-1.627c-.42.3-.823.624-1.207.97l1.338 1.486Zm3.347-2.124c.403-.173.822-.328 1.256-.466l-.605-1.906c-.494.156-.973.334-1.438.533l.787 1.839Zm1.27-.47c.482-.161.977-.301 1.485-.42l-.456-1.948c-.566.133-1.12.29-1.661.47l.632 1.898Zm4.558-.876c.51-.035 1.032-.053 1.566-.053v-2c-.578 0-1.146.02-1.704.058l.138 1.995Zm1.566-.053c.721 0 1.423.034 2.105.102l.197-1.99a23.353 23.353 0 0 0-2.302-.112v2Zm6.18.98c.659.228 1.296.496 1.912.804l.895-1.788a17.94 17.94 0 0 0-2.152-.906l-.655 1.89Zm1.912.804c.582.291 1.132.61 1.652.956l1.108-1.665a17.386 17.386 0 0 0-1.865-1.08l-.895 1.79Zm4.49 3.456c.41.474.79.98 1.14 1.517l1.675-1.094a16.228 16.228 0 0 0-1.3-1.73l-1.515 1.307Zm1.148 1.529c.368.545.688 1.115.96 1.71l1.818-.834a14.027 14.027 0 0 0-1.119-1.994L90.47 27.04Zm2.018 5.495c.08.641.122 1.306.122 1.996h2c0-.769-.046-1.517-.138-2.246l-1.984.25Zm.122 1.996c0 .746-.045 1.467-.134 2.162l1.984.254a19 19 0 0 0 .15-2.416h-2Zm-1.297 6.265c-.298.643-.648 1.26-1.05 1.853l1.654 1.124c.463-.681.866-1.393 1.21-2.135l-1.814-.842Zm-1.053 1.857c-.389.578-.813 1.123-1.272 1.635l1.49 1.334c.521-.581 1.001-1.199 1.441-1.853l-1.659-1.116Zm-4.43 4.31c-.574.367-1.183.707-1.825 1.018l.87 1.8c.712-.344 1.39-.722 2.034-1.135l-1.079-1.684Zm-1.819 1.015c-.683.324-1.391.606-2.125.846l.622 1.9c.813-.265 1.6-.578 2.36-.94l-.857-1.806Zm-6.631 1.758a25.15 25.15 0 0 1-2.32.105v2c.854 0 1.689-.038 2.504-.113l-.184-1.992Zm-2.95-8.365c-.385 0-.753-.014-1.106-.043l-.16 1.994c.41.033.831.049 1.266.049v-2Zm-3.219-.433a7.055 7.055 0 0 1-.968-.378l-.867 1.802c.394.19.808.351 1.241.486l.594-1.91Zm-.941-.365a7.9 7.9 0 0 1-.757-.446L68.4 41.788c.3.202.617.388.948.56l.921-1.776ZM68.22 39a6.035 6.035 0 0 1-.513-.676l-1.675 1.092c.206.317.434.617.683.902L68.22 39Zm-.502-.66a5.858 5.858 0 0 1-.397-.75l-1.831.804c.152.347.33.682.532 1.006l1.696-1.06Zm-.845-2.385a6.863 6.863 0 0 1-.053-.865h-2c0 .38.023.752.07 1.118l1.983-.253Zm-.053-.865c0-.303.017-.594.05-.872l-1.985-.241a9.22 9.22 0 0 0-.065 1.113h2Zm.49-2.502a5.17 5.17 0 0 1 .397-.732l-1.675-1.092c-.21.323-.395.662-.55 1.014l1.828.81Zm.392-.723c.163-.245.34-.474.529-.689l-1.499-1.324c-.25.283-.482.585-.694.903l1.664 1.11Zm1.843-1.815c.241-.155.497-.298.769-.429l-.868-1.802a9.096 9.096 0 0 0-.985.55l1.084 1.681Zm.795-.442c.291-.151.596-.283.917-.395l-.661-1.888c-.407.143-.8.312-1.177.507l.921 1.776Zm2.907-.82c.334-.032.682-.048 1.043-.048v-2c-.421 0-.833.02-1.235.058l.192 1.99Zm1.043-.048c.526 0 1.023.032 1.49.094l.263-1.983a13.312 13.312 0 0 0-1.753-.111v2Zm4.214.957c.41.23.788.5 1.134.814l1.343-1.482a8.152 8.152 0 0 0-1.502-1.078l-.975 1.746Zm1.159.835c.337.287.626.594.87.924l1.606-1.193a7.56 7.56 0 0 0-1.182-1.256l-1.294 1.525Zm1.846 3.24c.073.41.11.848.11 1.318h2c0-.577-.046-1.133-.14-1.668l-1.97.35Zm.11 1.318c0 .307-.017.603-.052.887l1.985.243c.045-.369.068-.746.068-1.13h-2Zm-.498 2.559a5.712 5.712 0 0 1-.4.761l1.697 1.06c.206-.33.386-.672.54-1.027l-1.837-.794Zm-.4.761c-.151.243-.318.47-.499.683l1.524 1.296c.245-.289.47-.595.672-.919l-1.696-1.06Zm-1.77 1.796a6.777 6.777 0 0 1-.755.423l.868 1.802a8.76 8.76 0 0 0 .976-.548l-1.09-1.677Zm-.74.416c-.283.13-.578.244-.887.34l.598 1.91a9.37 9.37 0 0 0 1.127-.434l-.838-1.816Zm-2.79.706c-.319.028-.65.042-.991.042v2c.397 0 .785-.016 1.164-.05l-.173-1.992Z" fill="#fff"/></svg>