<svg width="210" height="210" fill="none" xmlns="http://www.w3.org/2000/svg"><g filter="url(#a)"><circle cx="95" cy="95" r="35" fill="url(#b)" shape-rendering="crispEdges"/></g><path d="M92.453 113.032a4.798 4.798 0 1 1-6.786-6.786l14.37-14.37a4.799 4.799 0 0 1 6.786 6.786l-14.37 14.37Z" fill="url(#c)"/><path d="M85.667 84.292a4.798 4.798 0 0 1 6.785-6.786l14.371 14.37a4.798 4.798 0 1 1-6.786 6.786l-14.37-14.37Z" fill="url(#d)"/><defs><linearGradient id="b" x1="71.008" y1="69.597" x2="130" y2="135.081" gradientUnits="userSpaceOnUse"><stop stop-color="#E7E7E7"/><stop offset=".912" stop-color="#F8FBFF" stop-opacity="0"/></linearGradient><linearGradient id="c" x1="102.339" y1="113.629" x2="115.323" y2="84.556" gradientUnits="userSpaceOnUse"><stop stop-color="#00DB65"/><stop offset="1" stop-color="#007A38"/></linearGradient><linearGradient id="d" x1="102.339" y1="113.629" x2="115.323" y2="84.556" gradientUnits="userSpaceOnUse"><stop stop-color="#00DB65"/><stop offset="1" stop-color="#007A38"/></linearGradient><filter id="a" x="0" y="0" width="210" height="210" filterUnits="userSpaceOnUse" color-interpolation-filters="sRGB"><feFlood flood-opacity="0" result="BackgroundImageFix"/><feColorMatrix in="SourceAlpha" values="0 0 0 0 0 0 0 0 0 0 0 0 0 0 0 0 0 0 127 0" result="hardAlpha"/><feOffset dx="10" dy="10"/><feGaussianBlur stdDeviation="35"/><feComposite in2="hardAlpha" operator="out"/><feColorMatrix values="0 0 0 0 0.231373 0 0 0 0 0.25098 0 0 0 0 0.337255 0 0 0 0.1 0"/><feBlend in2="BackgroundImageFix" result="effect1_dropShadow_103_255"/><feBlend in="SourceGraphic" in2="effect1_dropShadow_103_255" result="shape"/></filter></defs></svg>