<svg width="16" height="16" viewBox="0 0 16 16" fill="none" xmlns="http://www.w3.org/2000/svg">
<path fill-rule="evenodd" clip-rule="evenodd" d="M8 16C12.4183 16 16 12.4183 16 8C16 3.58172 12.4183 0 8 0C3.58172 0 0 3.58172 0 8C0 12.4183 3.58172 16 8 16ZM12.4853 5.70696C12.0948 5.31643 11.4616 5.31643 11.0711 5.70696L7.53564 9.24237L6.12117 7.8279C5.73065 7.43737 5.09748 7.43737 4.70696 7.8279C4.31643 8.21842 4.31643 8.85159 4.70696 9.24211L6.82834 11.3637L6.82842 11.3638C7.21895 11.7543 7.85211 11.7543 8.24264 11.3638L12.4853 7.12117C12.8758 6.73065 12.8758 6.09748 12.4853 5.70696Z" fill="url(#paint0_linear_89_106)"/>
<defs>
<linearGradient id="paint0_linear_89_106" x1="2.5" y1="2.5" x2="13" y2="14" gradientUnits="userSpaceOnUse">
<stop stop-color="#51CE00"/>
<stop offset="1" stop-color="#0DD654"/>
</linearGradient>
</defs>
</svg>
