<svg width="16" height="16" fill="none" xmlns="http://www.w3.org/2000/svg"><path fill-rule="evenodd" clip-rule="evenodd" d="M8 16A8 8 0 1 0 8 0a8 8 0 0 0 0 16Zm4.485-10.293a1 1 0 0 0-1.414 0L7.536 9.242 6.12 7.828a1 1 0 1 0-1.414 1.414l2.121 2.122a1 1 0 0 0 1.415 0l4.242-4.243a1 1 0 0 0 0-1.414Z" fill="url(#a)"/><defs><linearGradient id="a" x1="2.5" y1="2.5" x2="13" y2="14" gradientUnits="userSpaceOnUse"><stop stop-color="#51CE00"/><stop offset="1" stop-color="#0DD654"/></linearGradient></defs></svg>