<svg width="105" height="125" fill="none" xmlns="http://www.w3.org/2000/svg"><g filter="url(#a)"><g filter="url(#b)"><circle cx="42.265" cy="57" r="35" fill="url(#c)"/></g><path d="M25.42 60.718a4.798 4.798 0 1 1 4.799-8.311l17.6 10.161a4.798 4.798 0 1 1-4.799 8.311l-17.6-10.161Z" fill="url(#d)"/><path d="M78.35 19.892c.312-.374.577-.786.882-1.166a4.8 4.8 0 0 1 8.215 4.743c-.177.454-.474.848-.786 1.222L49.575 69.123a4.799 4.799 0 0 1-8.628-4.139c.177-.454.474-.848.786-1.222l36.617-43.87Z" fill="url(#e)"/></g><defs><linearGradient id="c" x1="18.273" y1="31.597" x2="77.265" y2="97.081" gradientUnits="userSpaceOnUse"><stop/><stop offset=".912" stop-color="#002313"/></linearGradient><linearGradient id="d" x1="27.403" y1="70.422" x2="58.845" y2="75.439" gradientUnits="userSpaceOnUse"><stop stop-color="#00DB65"/><stop offset="1" stop-color="#007A38"/></linearGradient><linearGradient id="e" x1="27.403" y1="70.422" x2="58.845" y2="75.439" gradientUnits="userSpaceOnUse"><stop stop-color="#00DB65"/><stop offset="1" stop-color="#007A38"/></linearGradient><filter id="a" x="3.265" y="16.93" width="88.509" height="83.07" filterUnits="userSpaceOnUse" color-interpolation-filters="sRGB"><feFlood flood-opacity="0" result="BackgroundImageFix"/><feColorMatrix in="SourceAlpha" values="0 0 0 0 0 0 0 0 0 0 0 0 0 0 0 0 0 0 127 0" result="hardAlpha"/><feOffset dy="4"/><feGaussianBlur stdDeviation="2"/><feComposite in2="hardAlpha" operator="out"/><feColorMatrix values="0 0 0 0 0 0 0 0 0 0 0 0 0 0 0 0 0 0 0.25 0"/><feBlend in2="BackgroundImageFix" result="effect1_dropShadow_39_1605"/><feBlend in="SourceGraphic" in2="effect1_dropShadow_39_1605" result="shape"/></filter><filter id="b" x=".265" y="21" width="104" height="104" filterUnits="userSpaceOnUse" color-interpolation-filters="sRGB"><feFlood flood-opacity="0" result="BackgroundImageFix"/><feColorMatrix in="SourceAlpha" values="0 0 0 0 0 0 0 0 0 0 0 0 0 0 0 0 0 0 127 0" result="hardAlpha"/><feMorphology radius="9" in="SourceAlpha" result="effect1_dropShadow_39_1605"/><feOffset dx="10" dy="16"/><feGaussianBlur stdDeviation="13"/><feComposite in2="hardAlpha" operator="out"/><feColorMatrix values="0 0 0 0 0 0 0 0 0 0 0 0 0 0 0 0 0 0 1 0"/><feBlend in2="BackgroundImageFix" result="effect1_dropShadow_39_1605"/><feBlend in="SourceGraphic" in2="effect1_dropShadow_39_1605" result="shape"/></filter></defs></svg>