<svg width="114" height="114" fill="none" xmlns="http://www.w3.org/2000/svg"><g filter="url(#a)"><path d="M91.4 57v43H22.6V57M57 100V35.5m0 0H37.65a10.75 10.75 0 1 1 0-21.5C52.7 14 57 35.5 57 35.5Zm0 0h19.35a10.75 10.75 0 1 0 0-21.5C61.3 14 57 35.5 57 35.5Zm-43 0h86V57H14V35.5Z" stroke="#fff" stroke-width="2" stroke-linecap="round" stroke-linejoin="round"/></g><g filter="url(#b)"><path d="M91.4 57v43H22.6V57M57 100V35.5m0 0H37.65a10.75 10.75 0 1 1 0-21.5C52.7 14 57 35.5 57 35.5Zm0 0h19.35a10.75 10.75 0 1 0 0-21.5C61.3 14 57 35.5 57 35.5Zm-43 0h86V57H14V35.5Z" stroke="#fff" stroke-width="2" stroke-linecap="round" stroke-linejoin="round"/></g><defs><filter id="a" x="0" y="0" width="114" height="114" filterUnits="userSpaceOnUse" color-interpolation-filters="sRGB"><feFlood flood-opacity="0" result="BackgroundImageFix"/><feColorMatrix in="SourceAlpha" values="0 0 0 0 0 0 0 0 0 0 0 0 0 0 0 0 0 0 127 0" result="hardAlpha"/><feOffset/><feGaussianBlur stdDeviation="6.5"/><feColorMatrix values="0 0 0 0 0 0 0 0 0 0.858824 0 0 0 0 0.396078 0 0 0 1 0"/><feBlend in2="BackgroundImageFix" result="effect1_dropShadow_50_1789"/><feBlend in="SourceGraphic" in2="effect1_dropShadow_50_1789" result="shape"/></filter><filter id="b" x="0" y="0" width="114" height="114" filterUnits="userSpaceOnUse" color-interpolation-filters="sRGB"><feFlood flood-opacity="0" result="BackgroundImageFix"/><feColorMatrix in="SourceAlpha" values="0 0 0 0 0 0 0 0 0 0 0 0 0 0 0 0 0 0 127 0" result="hardAlpha"/><feOffset/><feGaussianBlur stdDeviation="6.5"/><feColorMatrix values="0 0 0 0 0 0 0 0 0 0.858824 0 0 0 0 0.396078 0 0 0 1 0"/><feBlend in2="BackgroundImageFix" result="effect1_dropShadow_50_1789"/><feBlend in="SourceGraphic" in2="effect1_dropShadow_50_1789" result="shape"/></filter></defs></svg>