<svg width="195" height="51" fill="none" xmlns="http://www.w3.org/2000/svg"><path fill="#fff" d="M2.985 17h41v17h-41z"/><path d="M0 25.5V51h46V0H0v25.5Zm22.898-6.262c1.417.13 2.485.512 3.35 1.201.185.146.526.48.673.657.93 1.12 1.39 2.674 1.39 4.694 0 1.95-.427 3.454-1.301 4.581a6.287 6.287 0 0 1-.832.825c-.745.572-1.645.933-2.728 1.093-.5.076-.694.087-1.395.087-.574-.001-.69-.004-.948-.033-1.576-.17-2.74-.686-3.645-1.611-.37-.381-.64-.756-.886-1.245-.406-.8-.622-1.626-.73-2.778a17.19 17.19 0 0 1-.007-1.774c.14-1.696.609-2.95 1.465-3.915.977-1.1 2.368-1.693 4.235-1.801.185-.01 1.188.004 1.359.019Zm-13.378.188c1.235.088 2.029.263 2.71.595.909.44 1.393 1.091 1.544 2.07.03.204.035.75.007.948-.07.5-.218.918-.45 1.274-.35.534-.84.903-1.426 1.07-.104.029-.11.033-.11.072 0 .04.005.042.165.09.593.18 1.027.428 1.375.789.363.378.583.864.686 1.518.033.213.037.946.007 1.151-.122.81-.43 1.419-.985 1.946-.695.661-1.694 1.076-2.92 1.21-.423.046-.718.05-3.331.05H4.157v-6.395c0-3.518.004-6.401.01-6.407.019-.017 5.094 0 5.353.019Zm24.653 1.944a101.062 101.062 0 0 0 1.169 1.969c.006-.003.511-.89 1.122-1.973l1.11-1.968h1.974c1.304 0 1.975.005 1.975.015 0 .007-.913 1.478-2.027 3.266l-2.028 3.25 2.125 3.05a2161 2161 0 0 0 2.187 3.14l.066.09h-4.022l-1.25-1.997a94.47 94.47 0 0 0-1.26-1.986c-.006.006-.562.902-1.238 1.993l-1.228 1.983-1.962.005c-1.08.001-1.964 0-1.964-.005 0-.004.954-1.47 2.118-3.26 1.164-1.79 2.117-3.267 2.117-3.283 0-.016-.893-1.424-1.986-3.13a449.869 449.869 0 0 1-1.987-3.115c0-.011.574-.016 1.917-.016h1.917l1.155 1.972Z" fill="red"/><path d="M21.713 22.063a2.947 2.947 0 0 0-.53.117c-.533.178-.968.568-1.244 1.113-.225.45-.356.946-.429 1.635-.03.295-.043 1.085-.022 1.418.076 1.16.352 1.966.85 2.486.34.353.75.556 1.285.637.215.032.683.03.897-.001.818-.125 1.355-.514 1.706-1.24.2-.414.325-.919.397-1.621.03-.292.025-1.406-.007-1.715-.145-1.361-.577-2.19-1.346-2.583a2.255 2.255 0 0 0-.798-.24 4.435 4.435 0 0 0-.759-.006ZM7.63 23.177v1.146l.68-.007c.698-.006.788-.013 1.023-.075.406-.106.7-.339.823-.653.078-.198.104-.546.055-.752-.084-.353-.347-.594-.78-.715-.266-.073-.313-.076-1.077-.084l-.724-.007v1.147ZM7.63 28.193v1.34l.804-.006c.848-.007.864-.008 1.14-.082.15-.04.384-.158.485-.242.236-.204.361-.453.406-.815.031-.247-.002-.55-.08-.741-.139-.343-.443-.594-.856-.706-.27-.074-.292-.076-1.117-.083l-.782-.006v1.34Z" fill="red"/><path d="M128.559 20.051c-1.562.11-2.824.837-3.598 2.07a6.56 6.56 0 0 0-.45.915c-.375 1.01-.494 2.257-.332 3.484.215 1.635.956 2.933 2.11 3.693.6.397 1.276.63 2.096.726a9.09 9.09 0 0 0 1.286-.008c.532-.065.964-.17 1.349-.331 1.221-.505 2.011-1.475 2.319-2.85.106-.477.127-.708.135-1.589l.008-.755h-4.32v1.158h2.999l-.009.253c-.012.3-.039.504-.098.744a2.699 2.699 0 0 1-.703 1.274c-.475.488-1.081.773-1.876.888a5.932 5.932 0 0 1-1.039-.008 3.582 3.582 0 0 1-.843-.23c-.842-.352-1.481-1.078-1.822-2.074-.188-.553-.279-1.103-.296-1.803a6.084 6.084 0 0 1 .164-1.66c.314-1.283 1.055-2.153 2.143-2.513.19-.064.433-.117.668-.15a5.164 5.164 0 0 1 1.025 0c1.176.17 2.014.838 2.455 1.954.037.094.071.19.077.214l.008.042h.695c.562 0 .696-.004.696-.019 0-.048-.106-.441-.167-.617-.483-1.4-1.634-2.388-3.154-2.707a5.572 5.572 0 0 0-1.526-.101ZM151.616 20.046a5.86 5.86 0 0 0-1.03.15c-1.865.465-3.118 1.95-3.439 4.081a9.337 9.337 0 0 0-.067 1.74c.196 2.735 1.674 4.535 4.013 4.889a6.418 6.418 0 0 0 1.904-.028c1.831-.323 3.033-1.531 3.343-3.366.071-.42.075-.502.083-1.321l.007-.785h-4.32v1.158h2.994v.191c-.001.837-.289 1.574-.821 2.104-.462.46-1.054.741-1.805.857a5.613 5.613 0 0 1-1.102-.002 3.25 3.25 0 0 1-1.497-.615 4.32 4.32 0 0 1-.494-.48c-.732-.872-1.078-2.308-.93-3.857.132-1.377.676-2.409 1.577-2.994.846-.547 2.118-.673 3.106-.305.83.308 1.45.958 1.777 1.861l.063.171H156.359l-.011-.062a4.69 4.69 0 0 0-.3-.938c-.481-1.061-1.381-1.847-2.541-2.22a5.477 5.477 0 0 0-1.891-.23ZM181.055 20.044a5.25 5.25 0 0 0-.971.146c-1.152.287-2.069.967-2.689 1.993-.44.731-.7 1.59-.798 2.636a12.09 12.09 0 0 0 .008 1.45c.147 1.46.636 2.61 1.458 3.428.709.706 1.588 1.11 2.701 1.242.217.024.99.024 1.228 0a5.309 5.309 0 0 0 1.374-.325 5.25 5.25 0 0 0 .647-.324 3.838 3.838 0 0 0 1.526-1.859c.088-.224.218-.637.218-.699 0-.023-.048-.024-.664-.022l-.666.005-.052.149a2.655 2.655 0 0 1-1.399 1.552 3.55 3.55 0 0 1-1.034.3c-.25.035-.864.035-1.098 0a3.162 3.162 0 0 1-.952-.292c-.976-.476-1.641-1.472-1.866-2.802-.07-.406-.081-.563-.081-1.115 0-.417.006-.573.026-.745.078-.65.224-1.17.466-1.665.357-.724.878-1.251 1.538-1.555.691-.319 1.574-.376 2.346-.155.991.284 1.725.983 2.039 1.944l.071.215.663.004c.654.003.663.003.663-.026 0-.054-.076-.382-.125-.55a4.194 4.194 0 0 0-.727-1.375 4.627 4.627 0 0 0-.599-.591c-.66-.521-1.441-.832-2.35-.938a8.778 8.778 0 0 0-.901-.026ZM53.179 25.5v5.291H54.414v-4.075c0-3.886.002-4.075.026-4.075.02 0 .37.825 1.718 4.039l1.693 4.039h1.12l1.635-3.906 1.69-4.039c.043-.101.064-.133.084-.133.028 0 .028.095.028 4.075v4.075H63.643V20.209h-1.536l-.141.336-1.831 4.412c-1.563 3.761-1.695 4.075-1.726 4.075-.032 0-.174-.339-1.866-4.412l-1.831-4.411h-1.533v5.29ZM68.761 20.24c-.13.348-3.887 10.508-3.893 10.526-.006.024.032.025.689.022l.694-.004.53-1.509.533-1.51 2.113.005 2.115.003.53 1.508.532 1.51h.695c.38 0 .693-.003.693-.007 0-.006-3.647-9.863-3.873-10.47l-.04-.105H68.774l-.013.032Zm1.528 3.964.849 2.406c.007.025-.08.026-1.71.026-1.463 0-1.716-.003-1.712-.02.003-.011.384-1.096.848-2.41.642-1.824.848-2.39.864-2.387.015.003.291.768.86 2.385ZM75.212 25.5v5.291h1.322v-4.184h2.541l1.136 2.092 1.139 2.092h1.552l-.051-.091a1769.113 1769.113 0 0 1-2.397-4.285.56.56 0 0 1 .15-.07c1.025-.386 1.71-1.208 1.91-2.291.226-1.22-.141-2.379-.973-3.075-.529-.443-1.212-.696-2.034-.756-.105-.007-1.104-.014-2.242-.014h-2.053v5.29Zm4.055-4.104c.827.064 1.417.411 1.725 1.019.294.58.29 1.46-.01 2.05-.228.449-.641.76-1.183.892-.317.076-.365.078-1.87.078h-1.395V21.38h1.27c.729 0 1.35.006 1.463.015ZM84.238 25.5v5.291H85.575V27.088l.57-.624c.45-.494.573-.621.587-.606l1.99 2.475 1.972 2.458h.843c.464 0 .84-.006.837-.012-.001-.007-1.066-1.33-2.366-2.94-1.3-1.61-2.362-2.933-2.362-2.94 0-.006.942-1.023 2.095-2.26 1.15-1.237 2.132-2.29 2.177-2.34l.084-.09h-1.67l-2.345 2.584c-1.787 1.967-2.353 2.584-2.378 2.584h-.034l-.002-2.581-.005-2.58-.664-.004-.666-.003v5.29ZM93.51 25.5v5.291h6.585V29.604h-5.247V25.97h4.97v-1.172h-4.97v-3.402h5.247V20.209h-6.584v5.29ZM101.17 20.802v.594l1.676.003 1.674.004.004 4.693.003 4.695h1.323v-9.395h3.343V20.209h-8.023v.593ZM110.598 20.219c-.006.004-.01 2.386-.01 5.291v5.281H111.925V20.209h-.658c-.364 0-.665.004-.669.01ZM113.984 20.219c-.006.004-.01 2.386-.01 5.291v5.281h1.322v-8.282l.032.005c.023.002.747 1.023 2.935 4.137l2.902 4.133.648.004.648.003V20.209h-1.308v8.311l-.039-.005c-.033-.004-.426-.558-2.94-4.152l-2.903-4.147-.639-.004c-.352-.002-.644.001-.648.007ZM141.315 20.248c-.007.023-.888 2.4-1.956 5.285a3101.345 3101.345 0 0 0-1.942 5.25c0 .005.312.008.695.008h.693l.532-1.51.53-1.508 2.115-.003 2.113-.005.532 1.51.532 1.509.695.004.693.003-.009-.032c-.004-.019-.883-2.399-1.954-5.288l-1.945-5.255-.656-.004-.654-.003-.014.039Zm1.535 3.968c.465 1.32.846 2.406.846 2.41 0 .006-.772.01-1.717.01-1.367 0-1.715-.004-1.709-.018l.846-2.4c.461-1.31.841-2.385.846-2.392.003-.006.014-.01.023-.01.01 0 .369.994.865 2.4ZM158.128 25.5v5.291h6.569V29.604h-5.246V25.97H164.436v-1.172H159.451v-3.402h5.246V20.209h-6.569v5.29ZM166.441 25.5v5.291h1.323v-8.282l.03.005c.022.002.833 1.146 2.933 4.137l2.903 4.133.649.004.65.003-.003-5.287-.004-5.288-.65-.004-.651-.003V28.518l-.039-.001c-.038 0-.292-.36-2.946-4.155l-2.904-4.153h-1.291v5.29ZM186.124 20.228c.003.01.843 1.356 1.866 2.992a894.925 894.925 0 0 1 1.877 3.007c.013.023.017.598.017 2.297v2.267h1.323v-4.553l1.869-2.99c1.027-1.644 1.875-3 1.882-3.015.013-.023-.026-.024-.74-.024h-.753l-1.446 2.37c-1.202 1.971-1.452 2.37-1.478 2.37-.025 0-.275-.399-1.475-2.366l-1.443-2.367-.753-.004c-.605-.003-.752 0-.746.016ZM135.605 46.06a3.436 3.436 0 0 1-1.68-.408 3.09 3.09 0 0 1-1.152-1.14c-.28-.488-.42-1.044-.42-1.668 0-.632.14-1.188.42-1.668.28-.48.664-.856 1.152-1.128a3.436 3.436 0 0 1 1.68-.408c.536 0 1.02.104 1.452.312.432.208.772.52 1.02.936l-.636.432a2 2 0 0 0-.804-.708 2.402 2.402 0 0 0-1.044-.228c-.448 0-.852.104-1.212.312-.36.2-.644.484-.852.852-.208.368-.312.8-.312 1.296s.104.928.312 1.296c.208.368.492.656.852.864.36.2.764.3 1.212.3.376 0 .724-.076 1.044-.228.32-.152.588-.384.804-.696l.636.432c-.248.408-.588.72-1.02.936a3.304 3.304 0 0 1-1.452.312Zm4.146-.06v-6.3h.816v1.716l-.084-.3c.176-.48.472-.844.888-1.092.416-.256.932-.384 1.548-.384v.828h-.096a.395.395 0 0 0-.096-.012c-.665 0-1.184.204-1.56.612-.376.4-.564.972-.564 1.716V46h-.852Zm7.34.06c-.656 0-1.232-.136-1.728-.408a3.064 3.064 0 0 1-1.164-1.14c-.28-.488-.42-1.044-.42-1.668 0-.624.132-1.176.396-1.656a2.99 2.99 0 0 1 1.104-1.128c.472-.28 1-.42 1.584-.42.592 0 1.116.136 1.572.408a2.8 2.8 0 0 1 1.092 1.128c.264.48.396 1.036.396 1.668 0 .04-.004.084-.012.132v.132h-5.484v-.636h5.028l-.336.252c0-.456-.1-.86-.3-1.212a2.11 2.11 0 0 0-.792-.84c-.336-.2-.724-.3-1.164-.3-.432 0-.82.1-1.164.3-.344.2-.612.48-.804.84-.192.36-.288.772-.288 1.236v.132c0 .48.104.904.312 1.272.216.36.512.644.888.852.384.2.82.3 1.308.3.384 0 .74-.068 1.068-.204.336-.136.624-.344.864-.624l.48.552c-.28.336-.632.592-1.056.768a3.507 3.507 0 0 1-1.38.264Zm8.338-.06v-1.392l-.036-.228v-2.328c0-.536-.152-.948-.456-1.236-.296-.288-.74-.432-1.332-.432a3.33 3.33 0 0 0-1.164.204c-.368.136-.68.316-.936.54l-.384-.636c.32-.272.704-.48 1.152-.624.448-.152.92-.228 1.416-.228.816 0 1.444.204 1.884.612.448.4.672 1.012.672 1.836V46h-.816Zm-2.172.06c-.472 0-.884-.076-1.236-.228a1.89 1.89 0 0 1-.792-.648c-.184-.28-.276-.6-.276-.96 0-.328.076-.624.228-.888.16-.272.416-.488.768-.648.36-.168.84-.252 1.44-.252h2.172v.636h-2.148c-.608 0-1.032.108-1.272.324a1.054 1.054 0 0 0-.348.804c0 .36.14.648.42.864.28.216.672.324 1.176.324.48 0 .892-.108 1.236-.324.352-.224.608-.544.768-.96l.192.588c-.16.416-.44.748-.84.996-.392.248-.888.372-1.488.372Zm7.294 0c-.592 0-1.048-.16-1.368-.48-.32-.32-.48-.772-.48-1.356v-5.916h.852v5.868c0 .368.092.652.276.852.192.2.464.3.816.3.376 0 .688-.108.936-.324l.3.612a1.57 1.57 0 0 1-.612.336 2.415 2.415 0 0 1-.72.108Zm-2.976-5.652V39.7h3.9v.708h-3.9Zm8.312 5.652c-.656 0-1.232-.136-1.728-.408a3.064 3.064 0 0 1-1.164-1.14c-.28-.488-.42-1.044-.42-1.668 0-.624.132-1.176.396-1.656a2.99 2.99 0 0 1 1.104-1.128c.472-.28 1-.42 1.584-.42.592 0 1.116.136 1.572.408a2.8 2.8 0 0 1 1.092 1.128c.264.48.396 1.036.396 1.668 0 .04-.004.084-.012.132v.132h-5.484v-.636h5.028l-.336.252c0-.456-.1-.86-.3-1.212a2.11 2.11 0 0 0-.792-.84c-.336-.2-.724-.3-1.164-.3-.432 0-.82.1-1.164.3-.344.2-.612.48-.804.84-.192.36-.288.772-.288 1.236v.132c0 .48.104.904.312 1.272.216.36.512.644.888.852.384.2.82.3 1.308.3.384 0 .74-.068 1.068-.204.336-.136.624-.344.864-.624l.48.552c-.28.336-.632.592-1.056.768a3.507 3.507 0 0 1-1.38.264Zm7.075 0c-.6 0-1.14-.136-1.62-.408a2.964 2.964 0 0 1-1.116-1.128c-.272-.488-.408-1.048-.408-1.68 0-.64.136-1.2.408-1.68.272-.48.644-.852 1.116-1.116a3.228 3.228 0 0 1 1.62-.408c.552 0 1.044.124 1.476.372.44.248.788.612 1.044 1.092.264.472.396 1.052.396 1.74 0 .68-.128 1.26-.384 1.74s-.604.848-1.044 1.104c-.432.248-.928.372-1.488.372Zm.06-.756c.448 0 .848-.1 1.2-.3.36-.208.64-.496.84-.864.208-.376.312-.808.312-1.296 0-.496-.104-.928-.312-1.296-.2-.368-.48-.652-.84-.852a2.314 2.314 0 0 0-1.2-.312c-.44 0-.836.104-1.188.312-.352.2-.632.484-.84.852-.208.368-.312.8-.312 1.296 0 .488.104.92.312 1.296.208.368.488.656.84.864.352.2.748.3 1.188.3Zm2.376.696v-1.896l.084-1.272-.12-1.272v-4.464h.852V46h-.816Zm9.581.06a2.977 2.977 0 0 1-1.488-.372 2.729 2.729 0 0 1-1.044-1.104c-.256-.48-.384-1.06-.384-1.74 0-.688.128-1.268.384-1.74.264-.48.616-.844 1.056-1.092.44-.248.932-.372 1.476-.372.6 0 1.136.136 1.608.408.48.264.856.636 1.128 1.116.272.48.408 1.04.408 1.68 0 .632-.136 1.192-.408 1.68-.272.48-.648.856-1.128 1.128a3.162 3.162 0 0 1-1.608.408Zm-3.252-.06v-8.904h.852v4.464l-.12 1.272.084 1.272V46h-.816Zm3.192-.696c.448 0 .848-.1 1.2-.3.352-.208.632-.496.84-.864.208-.376.312-.808.312-1.296 0-.496-.104-.928-.312-1.296a2.205 2.205 0 0 0-.84-.852 2.314 2.314 0 0 0-1.2-.312c-.448 0-.852.104-1.212.312-.352.2-.632.484-.84.852-.2.368-.3.8-.3 1.296 0 .488.1.92.3 1.296.208.368.488.656.84.864.36.2.764.3 1.212.3Zm4.813 3.084c-.296 0-.58-.048-.852-.144a1.846 1.846 0 0 1-.684-.432l.396-.636c.16.152.332.268.516.348.192.088.404.132.636.132.28 0 .52-.08.72-.24.208-.152.404-.424.588-.816l.408-.924.096-.132 2.592-5.844h.84l-3.156 7.056c-.176.408-.372.732-.588.972-.208.24-.436.408-.684.504a2.121 2.121 0 0 1-.828.156Zm1.68-2.208-2.904-6.48h.888l2.568 5.784-.552.696Z" fill="#fff"/></svg>