<svg width="30" height="30" fill="none" xmlns="http://www.w3.org/2000/svg"><path d="M15 2.703c4.005 0 4.48.014 6.061.087 1.635.075 3.319.447 4.51 1.639 1.203 1.202 1.564 2.87 1.639 4.51.072 1.581.087 2.056.087 6.061s-.015 4.48-.087 6.061c-.074 1.627-.455 3.326-1.639 4.51-1.202 1.203-2.869 1.564-4.51 1.639-1.581.072-2.056.087-6.061.087s-4.48-.015-6.061-.087c-1.614-.074-3.337-.464-4.51-1.639-1.197-1.196-1.564-2.88-1.639-4.51-.073-1.581-.087-2.056-.087-6.061s.014-4.48.087-6.061c.074-1.62.459-3.33 1.639-4.51 1.2-1.2 2.873-1.564 4.51-1.639 1.581-.073 2.056-.087 6.061-.087ZM15 0c-4.074 0-4.585.018-6.185.09-2.319.106-4.621.751-6.297 2.428C.835 4.2.196 6.498.09 8.814.018 10.415 0 10.926 0 15s.018 4.585.09 6.185c.106 2.316.754 4.625 2.428 6.298 1.68 1.68 3.982 2.32 6.297 2.427 1.6.073 2.111.09 6.185.09s4.585-.017 6.185-.09c2.318-.106 4.623-.753 6.298-2.427 1.683-1.684 2.32-3.98 2.427-6.298.073-1.6.09-2.111.09-6.185s-.017-4.585-.09-6.185c-.106-2.319-.753-4.622-2.427-6.297C25.803.838 23.495.195 21.184.09 19.585.018 19.074 0 15 0Z" fill="#fff"/><path d="M15 7.297a7.703 7.703 0 1 0 0 15.406 7.703 7.703 0 0 0 0-15.406ZM15 20a5 5 0 1 1 0-10 5 5 0 0 1 0 10ZM23.008 8.793a1.8 1.8 0 1 0 0-3.6 1.8 1.8 0 0 0 0 3.6Z" fill="#fff"/></svg>