<svg width="114" height="114" fill="none" xmlns="http://www.w3.org/2000/svg"><g filter="url(#a)"><path d="m36.182 52.7 17.2-38.7a12.9 12.9 0 0 1 12.9 12.9v17.2H90.62a8.602 8.602 0 0 1 8.6 9.89l-5.934 38.7a8.6 8.6 0 0 1-8.6 7.31H36.182m0-47.3V100m0-47.3h-12.9a8.6 8.6 0 0 0-8.6 8.6v30.1a8.6 8.6 0 0 0 8.6 8.6h12.9" stroke="#fff" stroke-width="2" stroke-linecap="round" stroke-linejoin="round"/></g><g filter="url(#b)"><path d="m36.182 52.7 17.2-38.7a12.9 12.9 0 0 1 12.9 12.9v17.2H90.62a8.602 8.602 0 0 1 8.6 9.89l-5.934 38.7a8.6 8.6 0 0 1-8.6 7.31H36.182m0-47.3V100m0-47.3h-12.9a8.6 8.6 0 0 0-8.6 8.6v30.1a8.6 8.6 0 0 0 8.6 8.6h12.9" stroke="#fff" stroke-width="2" stroke-linecap="round" stroke-linejoin="round"/></g><defs><filter id="a" x=".683" y="0" width="112.635" height="114" filterUnits="userSpaceOnUse" color-interpolation-filters="sRGB"><feFlood flood-opacity="0" result="BackgroundImageFix"/><feColorMatrix in="SourceAlpha" values="0 0 0 0 0 0 0 0 0 0 0 0 0 0 0 0 0 0 127 0" result="hardAlpha"/><feOffset/><feGaussianBlur stdDeviation="6.5"/><feColorMatrix values="0 0 0 0 0 0 0 0 0 0.858824 0 0 0 0 0.396078 0 0 0 1 0"/><feBlend in2="BackgroundImageFix" result="effect1_dropShadow_50_1854"/><feBlend in="SourceGraphic" in2="effect1_dropShadow_50_1854" result="shape"/></filter><filter id="b" x=".683" y="0" width="112.635" height="114" filterUnits="userSpaceOnUse" color-interpolation-filters="sRGB"><feFlood flood-opacity="0" result="BackgroundImageFix"/><feColorMatrix in="SourceAlpha" values="0 0 0 0 0 0 0 0 0 0 0 0 0 0 0 0 0 0 127 0" result="hardAlpha"/><feOffset/><feGaussianBlur stdDeviation="6.5"/><feColorMatrix values="0 0 0 0 0 0 0 0 0 0.858824 0 0 0 0 0.396078 0 0 0 1 0"/><feBlend in2="BackgroundImageFix" result="effect1_dropShadow_50_1854"/><feBlend in="SourceGraphic" in2="effect1_dropShadow_50_1854" result="shape"/></filter></defs></svg>