<svg width="114" height="114" fill="none" xmlns="http://www.w3.org/2000/svg"><g filter="url(#a)"><path d="M67.75 48.4a6.441 6.441 0 0 1-6.45-6.45v-21.5A6.441 6.441 0 0 1 67.75 14a6.441 6.441 0 0 1 6.45 6.45v21.5a6.441 6.441 0 0 1-6.45 6.45Zm25.8 0H87.1v-6.45a6.441 6.441 0 0 1 6.45-6.45 6.441 6.441 0 0 1 6.45 6.45 6.441 6.441 0 0 1-6.45 6.45Zm-47.3 17.2a6.441 6.441 0 0 1 6.45 6.45v21.5a6.441 6.441 0 0 1-6.45 6.45 6.441 6.441 0 0 1-6.45-6.45v-21.5a6.441 6.441 0 0 1 6.45-6.45Zm-25.8 0h6.45v6.45a6.441 6.441 0 0 1-6.45 6.45A6.441 6.441 0 0 1 14 72.05a6.441 6.441 0 0 1 6.45-6.45Zm45.15 2.15a6.441 6.441 0 0 1 6.45-6.45h21.5a6.441 6.441 0 0 1 6.45 6.45 6.441 6.441 0 0 1-6.45 6.45h-21.5a6.441 6.441 0 0 1-6.45-6.45Zm6.45 19.35H65.6v6.45a6.441 6.441 0 0 0 6.45 6.45 6.441 6.441 0 0 0 6.45-6.45 6.441 6.441 0 0 0-6.45-6.45ZM48.4 46.25a6.441 6.441 0 0 0-6.45-6.45h-21.5A6.441 6.441 0 0 0 14 46.25a6.441 6.441 0 0 0 6.45 6.45h21.5a6.441 6.441 0 0 0 6.45-6.45ZM41.95 26.9h6.45v-6.45A6.441 6.441 0 0 0 41.95 14a6.441 6.441 0 0 0-6.45 6.45 6.441 6.441 0 0 0 6.45 6.45Z" stroke="#fff" stroke-width="2" stroke-linecap="round" stroke-linejoin="round"/></g><g filter="url(#b)"><path d="M67.75 48.4a6.441 6.441 0 0 1-6.45-6.45v-21.5A6.441 6.441 0 0 1 67.75 14a6.441 6.441 0 0 1 6.45 6.45v21.5a6.441 6.441 0 0 1-6.45 6.45Zm25.8 0H87.1v-6.45a6.441 6.441 0 0 1 6.45-6.45 6.441 6.441 0 0 1 6.45 6.45 6.441 6.441 0 0 1-6.45 6.45Zm-47.3 17.2a6.441 6.441 0 0 1 6.45 6.45v21.5a6.441 6.441 0 0 1-6.45 6.45 6.441 6.441 0 0 1-6.45-6.45v-21.5a6.441 6.441 0 0 1 6.45-6.45Zm-25.8 0h6.45v6.45a6.441 6.441 0 0 1-6.45 6.45A6.441 6.441 0 0 1 14 72.05a6.441 6.441 0 0 1 6.45-6.45Zm45.15 2.15a6.441 6.441 0 0 1 6.45-6.45h21.5a6.441 6.441 0 0 1 6.45 6.45 6.441 6.441 0 0 1-6.45 6.45h-21.5a6.441 6.441 0 0 1-6.45-6.45Zm6.45 19.35H65.6v6.45a6.441 6.441 0 0 0 6.45 6.45 6.441 6.441 0 0 0 6.45-6.45 6.441 6.441 0 0 0-6.45-6.45ZM48.4 46.25a6.441 6.441 0 0 0-6.45-6.45h-21.5A6.441 6.441 0 0 0 14 46.25a6.441 6.441 0 0 0 6.45 6.45h21.5a6.441 6.441 0 0 0 6.45-6.45ZM41.95 26.9h6.45v-6.45A6.441 6.441 0 0 0 41.95 14a6.441 6.441 0 0 0-6.45 6.45 6.441 6.441 0 0 0 6.45 6.45Z" stroke="#fff" stroke-width="2" stroke-linecap="round" stroke-linejoin="round"/></g><defs><filter id="a" x="0" y="0" width="114" height="114" filterUnits="userSpaceOnUse" color-interpolation-filters="sRGB"><feFlood flood-opacity="0" result="BackgroundImageFix"/><feColorMatrix in="SourceAlpha" values="0 0 0 0 0 0 0 0 0 0 0 0 0 0 0 0 0 0 127 0" result="hardAlpha"/><feOffset/><feGaussianBlur stdDeviation="6.5"/><feColorMatrix values="0 0 0 0 0 0 0 0 0 0.858824 0 0 0 0 0.396078 0 0 0 1 0"/><feBlend in2="BackgroundImageFix" result="effect1_dropShadow_50_1870"/><feBlend in="SourceGraphic" in2="effect1_dropShadow_50_1870" result="shape"/></filter><filter id="b" x="6" y="6" width="102" height="102" filterUnits="userSpaceOnUse" color-interpolation-filters="sRGB"><feFlood flood-opacity="0" result="BackgroundImageFix"/><feColorMatrix in="SourceAlpha" values="0 0 0 0 0 0 0 0 0 0 0 0 0 0 0 0 0 0 127 0" result="hardAlpha"/><feOffset/><feGaussianBlur stdDeviation="3.5"/><feColorMatrix values="0 0 0 0 0 0 0 0 0 0.858824 0 0 0 0 0.396078 0 0 0 1 0"/><feBlend in2="BackgroundImageFix" result="effect1_dropShadow_50_1870"/><feBlend in="SourceGraphic" in2="effect1_dropShadow_50_1870" result="shape"/></filter></defs></svg>