<svg width="134" height="114" fill="none" xmlns="http://www.w3.org/2000/svg"><g filter="url(#a)"><path d="M90.75 99.5V90a19 19 0 0 0-19-19h-38a19 19 0 0 0-19 19v9.5m104.5 0V90A18.998 18.998 0 0 0 105 71.618m-19-57a19 19 0 0 1 0 36.812M71.75 33c0 10.493-8.507 19-19 19s-19-8.507-19-19 8.507-19 19-19 19 8.507 19 19Z" stroke="#fff" stroke-width="2" stroke-linecap="round" stroke-linejoin="round"/></g><g filter="url(#b)"><path d="M90.75 100v-9.5a19 19 0 0 0-19-19h-38a19 19 0 0 0-19 19v9.5m104.5 0v-9.5A18.998 18.998 0 0 0 105 72.118m-19-57a19 19 0 0 1 0 36.812M71.75 33.5c0 10.493-8.507 19-19 19s-19-8.507-19-19 8.507-19 19-19 19 8.507 19 19Z" stroke="#fff" stroke-width="2" stroke-linecap="round" stroke-linejoin="round"/></g><defs><filter id="a" x=".75" y="0" width="132.5" height="113.5" filterUnits="userSpaceOnUse" color-interpolation-filters="sRGB"><feFlood flood-opacity="0" result="BackgroundImageFix"/><feColorMatrix in="SourceAlpha" values="0 0 0 0 0 0 0 0 0 0 0 0 0 0 0 0 0 0 127 0" result="hardAlpha"/><feOffset/><feGaussianBlur stdDeviation="6.5"/><feColorMatrix values="0 0 0 0 0 0 0 0 0 0.858824 0 0 0 0 0.396078 0 0 0 1 0"/><feBlend in2="BackgroundImageFix" result="effect1_dropShadow_50_1848"/><feBlend in="SourceGraphic" in2="effect1_dropShadow_50_1848" result="shape"/></filter><filter id="b" x=".75" y=".5" width="132.5" height="113.5" filterUnits="userSpaceOnUse" color-interpolation-filters="sRGB"><feFlood flood-opacity="0" result="BackgroundImageFix"/><feColorMatrix in="SourceAlpha" values="0 0 0 0 0 0 0 0 0 0 0 0 0 0 0 0 0 0 127 0" result="hardAlpha"/><feOffset/><feGaussianBlur stdDeviation="6.5"/><feColorMatrix values="0 0 0 0 0 0 0 0 0 0.858824 0 0 0 0 0.396078 0 0 0 1 0"/><feBlend in2="BackgroundImageFix" result="effect1_dropShadow_50_1848"/><feBlend in="SourceGraphic" in2="effect1_dropShadow_50_1848" result="shape"/></filter></defs></svg>