<svg width="30" height="30" fill="none" xmlns="http://www.w3.org/2000/svg"><path fill-rule="evenodd" clip-rule="evenodd" d="M15 0C6.716 0 0 6.716 0 15c0 8.284 6.716 15 15 15 8.284 0 15-6.716 15-15 0-8.284-6.716-15-15-15Zm6.953 10.201c-.226 2.371-1.203 8.128-1.7 10.784-.21 1.125-.624 1.501-1.024 1.538-.871.08-1.533-.577-2.377-1.13-1.32-.864-2.066-1.403-3.347-2.248-1.481-.976-.521-1.512.322-2.389.222-.23 4.06-3.721 4.134-4.037.009-.04.019-.188-.07-.265-.088-.078-.217-.052-.31-.03-.132.03-2.241 1.424-6.327 4.181-.599.411-1.141.611-1.628.601-.535-.011-1.565-.302-2.331-.552-.939-.305-1.686-.468-1.621-.985.033-.27.405-.546 1.115-.829 4.372-1.905 7.289-3.161 8.747-3.769 4.167-1.732 5.031-2.034 5.597-2.043.707-.01.877.573.82 1.173Z" fill="#fff"/></svg>