<svg width="45" height="57" fill="none" xmlns="http://www.w3.org/2000/svg"><path d="M21.608 56.96c-3.893 0-7.76-.507-11.6-1.52-3.84-1.067-7.093-2.56-9.76-4.48l5.04-9.92c2.133 1.547 4.613 2.773 7.44 3.68s5.68 1.36 8.56 1.36c3.253 0 5.814-.64 7.68-1.92 1.867-1.28 2.8-3.04 2.8-5.28 0-2.133-.826-3.813-2.48-5.04-1.653-1.227-4.32-1.84-8-1.84h-5.92v-8.56l15.6-17.68 1.44 4.64H3.048V0h39.2v8.4l-15.52 17.68-6.56-3.76h3.76c6.88 0 12.08 1.547 15.6 4.64 3.52 3.093 5.28 7.067 5.28 11.92 0 3.147-.827 6.107-2.48 8.88-1.653 2.72-4.187 4.933-7.6 6.64-3.413 1.707-7.787 2.56-13.12 2.56Z" fill="url(#a)"/><defs><linearGradient id="a" x1="5.405" y1="4.5" x2="60.583" y2="19.398" gradientUnits="userSpaceOnUse"><stop stop-color="#00D864"/><stop offset="1" stop-color="#007C39"/></linearGradient></defs></svg>