<svg width="46" height="57" fill="none" xmlns="http://www.w3.org/2000/svg"><path d="M3.546 57v-8.4l21.6-20.4c1.707-1.547 2.96-2.933 3.76-4.16.8-1.227 1.334-2.347 1.6-3.36.32-1.013.48-1.947.48-2.8 0-2.24-.773-3.947-2.32-5.12-1.493-1.227-3.706-1.84-6.64-1.84-2.346 0-4.533.453-6.56 1.36-1.973.907-3.653 2.32-5.04 4.24l-9.44-6.08c2.134-3.2 5.12-5.733 8.96-7.6 3.84-1.867 8.267-2.8 13.28-2.8 4.16 0 7.787.693 10.88 2.08 3.147 1.333 5.574 3.227 7.28 5.68 1.76 2.453 2.64 5.387 2.64 8.8 0 1.813-.24 3.627-.72 5.44-.426 1.76-1.333 3.627-2.72 5.6-1.333 1.973-3.306 4.187-5.92 6.64l-17.92 16.88-2.48-4.72h31.6V57H3.546Z" fill="url(#a)"/><defs><linearGradient id="a" x1="5.905" y1="5.5" x2="61.083" y2="20.398" gradientUnits="userSpaceOnUse"><stop stop-color="#00D864"/><stop offset="1" stop-color="#007C39"/></linearGradient></defs></svg>