<svg width="218" height="23" fill="none" xmlns="http://www.w3.org/2000/svg"><path fill="#99CBF0" d="M0 16h3v7H0zM5 11h3v12H5zM10 4h3v19h-3zM15 11h3v12h-3zM30 5h3v18h-3zM45 6h3v17h-3zM60 8h3v15h-3zM85 4h3v19h-3zM20 16h3v7h-3zM35 0h3v23h-3zM50 6h3v17h-3zM65 8h3v15h-3zM75 4h3v19h-3zM90 6h3v17h-3zM25 9h3v14h-3zM40 4h3v19h-3zM55 6h3v17h-3zM70 8h3v15h-3zM80 4h3v19h-3zM95 6h3v17h-3zM100 11h3v12h-3zM105 16h3v7h-3zM110 11h3v12h-3zM115 9h3v14h-3zM120 9h3v14h-3zM125 4h3v19h-3zM130 4h3v19h-3zM135 0h3v23h-3zM140 7h3v16h-3zM145 7h3v16h-3zM150 7h3v16h-3zM155 12h3v11h-3zM160 12h3v11h-3zM165 16h3v7h-3zM170 16h3v7h-3zM175 16h3v7h-3zM180 11h3v12h-3zM185 11h3v12h-3zM190 11h3v12h-3zM195 5h3v18h-3zM200 12h3v11h-3zM205 12h3v11h-3zM210 15h3v8h-3zM215 17h3v6h-3z"/></svg>